<svg width="36" height="36" viewBox="0 0 36 36" fill="none" xmlns="http://www.w3.org/2000/svg">
<path d="M18 29.9573C13.9124 29.9573 9.52535 27.9737 5.3132 24.2209C2.1826 21.4318 0.255894 18.6761 0.175456 18.5601C-0.0584039 18.2233 -0.0584039 17.7768 0.175456 17.44C0.255894 17.324 2.1826 14.5684 5.31334 11.7792C9.52549 8.02645 13.9124 6.04272 18.0001 6.04272C20.7164 6.04272 23.5288 6.894 26.359 8.57278C31.9224 11.873 35.6679 17.2141 35.8246 17.4399C36.1339 17.8856 36.0234 18.4976 35.5779 18.8068C35.1322 19.116 34.5202 19.0058 34.2108 18.5601C34.1751 18.5086 30.5429 13.3386 25.3568 10.2623C22.834 8.76579 20.3589 8.00705 18 8.00705C10.4068 8.00705 3.88135 15.8153 2.20517 17.9995C3.88332 20.1822 10.4197 27.9929 18.0001 27.9929C22.5134 27.9929 26.6368 25.1821 29.3013 22.8242C29.7075 22.4649 30.3283 22.5028 30.6876 22.9088C31.0471 23.315 31.0092 23.9358 30.603 24.2953C26.4175 27.9994 22.0593 29.9573 18 29.9573Z" fill="#91BDD8"/>
<path d="M23.2087 12.7912C20.332 9.91449 15.6678 9.91449 12.7911 12.7912C9.91443 15.6679 9.91443 20.3321 12.7911 23.2088C15.6678 26.0855 20.332 26.0855 23.2087 23.2088L18 18L23.2087 12.7912Z" fill="#2785BD"/>
<path d="M18 26.3447C15.8621 26.3447 13.7243 25.5309 12.0967 23.9034C8.84163 20.6483 8.84163 15.3518 12.0967 12.0967C15.3519 8.84159 20.6481 8.84166 23.9034 12.0967C24.2869 12.4803 24.2869 13.1022 23.9034 13.4858L19.3891 18.0001L23.9034 22.5144C24.2869 22.8979 24.2869 23.5198 23.9034 23.9035C22.2757 25.5309 20.1379 26.3447 18 26.3447ZM18 11.6189C16.3649 11.6189 14.7304 12.2411 13.4857 13.4859C10.9966 15.975 10.9966 20.0253 13.4857 22.5144C15.7388 24.7675 19.2708 24.9813 21.7664 23.1556L17.3054 18.6946C16.9219 18.3111 16.9219 17.6892 17.3054 17.3055L21.7664 12.8446C20.6495 12.0275 19.3245 11.6189 18 11.6189Z" fill="#91BDD8"/>
</svg>
