<svg width="161" height="223" viewBox="0 0 161 223" fill="none" xmlns="http://www.w3.org/2000/svg">
<path d="M153.333 0H7.6666C3.43097 0 0 3.44126 0 7.68958V215.31C0 219.559 3.43097 223 7.6666 223H153.333C157.569 223 161 219.559 161 215.31V7.68958C161 3.44126 157.569 0 153.333 0Z" fill="#E6EEF4"/>
<path d="M92.0001 157.638C92.0001 157.638 111.247 176.943 126.5 153.793C134.439 141.743 129.057 130.005 120.593 121.893L84.1572 85.9012C82.1062 84.1481 78.9554 84.1481 76.9005 85.9012L39.9358 121.893C32.6639 129.525 26.4694 141.713 34.4999 153.793C49.8331 176.862 68.9998 157.638 68.9998 157.638C68.9998 167.492 66.2016 180.157 65.3852 183.633C65.274 184.117 65.6457 184.552 66.1403 184.552H94.8635C95.3581 184.552 95.7259 184.117 95.6148 183.637C94.8023 180.15 92.0001 167.431 92.0001 157.638Z" fill="#7BACC9"/>
<path d="M23.0002 42.2929C31.4692 42.2929 38.3334 35.4078 38.3334 26.9138C38.3334 18.4197 31.4688 11.5346 23.0002 11.5346C21.238 11.5346 19.5158 11.8334 17.8856 12.4131C15.605 13.2184 13.6187 14.5996 11.7185 16.5055C10.2216 18.0068 10.2216 20.4415 11.7185 21.9429C13.2153 23.4442 15.6427 23.4442 17.1396 21.9429C18.2912 20.7878 19.3599 20.0448 20.4398 19.6632C21.2575 19.3723 22.1134 19.2242 23.0002 19.2242C27.2349 19.2242 30.6668 22.6663 30.6668 26.9138C30.6668 31.1612 27.2349 34.6033 23.0002 34.6033H19.1784C17.0614 34.6033 15.3448 36.3246 15.3448 38.4484C15.3448 40.5716 17.061 42.2934 19.1784 42.2934H23.0002V42.2929Z" fill="#7BACC9"/>
<path d="M23.0011 65.3612C31.4702 65.3612 38.3343 58.4761 38.3343 49.9821C38.3343 41.488 31.4697 34.6029 23.0011 34.6029H19.1676C17.0506 34.6029 15.334 36.3242 15.334 38.4479C15.334 40.5712 17.0502 42.2929 19.1676 42.2929H23.0011C27.2358 42.2929 30.6677 45.7351 30.6677 49.9825C30.6677 54.23 27.2358 57.6721 23.0011 57.6721C20.9132 57.6721 18.8992 56.7213 17.1518 54.9686C15.6549 53.4673 13.2275 53.4673 11.7307 54.9686C10.2338 56.47 10.2338 58.9047 11.7307 60.406C14.8355 63.5202 18.7363 65.3612 23.0011 65.3612Z" fill="#7BACC9"/>
</svg>
