<svg width="161" height="223" viewBox="0 0 161 223" fill="none" xmlns="http://www.w3.org/2000/svg">
<path d="M153.333 0H7.6666C3.43097 0 0 3.44126 0 7.68958V215.31C0 219.559 3.43097 223 7.6666 223H153.333C157.569 223 161 219.559 161 215.31V7.68958C161 3.44126 157.569 0 153.333 0Z" fill="#E6EEF4"/>
<path d="M145.667 211.466C147.784 211.466 149.5 209.744 149.5 207.621V15.3793C149.5 13.256 147.784 11.5343 145.667 11.5343H15.333C13.2161 11.5343 11.4995 13.2556 11.4995 15.3793V207.621C11.4995 209.744 13.2157 211.466 15.333 211.466H145.667V211.466ZM19.1666 207.621V15.3793L15.333 19.2243H145.667L141.833 15.3793V207.621L145.667 203.776H15.333L19.1666 207.621Z" fill="#7BACC9"/>
<path d="M12.6236 45.4607C11.1268 46.962 11.1268 49.3967 12.6236 50.8981C14.1205 52.3994 16.5479 52.3994 18.0447 50.8981L50.7469 18.0979C52.2437 16.5966 52.2437 14.1619 50.7469 12.6605C49.25 11.1592 46.8226 11.1592 45.3258 12.6605L12.6236 45.4607Z" fill="#7BACC9"/>
<path d="M83.2715 18.0999C84.7684 16.5986 84.7684 14.1639 83.2715 12.6625C81.7747 11.1612 79.3473 11.1612 77.8504 12.6625L12.6224 78.086C11.1255 79.5874 11.1255 82.0221 12.6224 83.5234C14.1192 85.0247 16.5467 85.0247 18.0435 83.5234L83.2715 18.0999Z" fill="#7BACC9"/>
<path d="M115.802 18.0974C117.298 16.5961 117.298 14.1614 115.802 12.6601C114.305 11.1587 111.877 11.1587 110.38 12.6601L12.6226 110.711C11.1258 112.212 11.1258 114.647 12.6226 116.148C14.1195 117.649 16.5469 117.649 18.0438 116.148L115.802 18.0974Z" fill="#7BACC9"/>
<path d="M148.327 18.0983C149.824 16.597 149.824 14.1623 148.327 12.661C146.83 11.1596 144.403 11.1596 142.906 12.661L12.6224 143.335C11.1255 144.836 11.1255 147.271 12.6224 148.772C14.1192 150.274 16.5467 150.274 18.0435 148.772L148.327 18.0983Z" fill="#7BACC9"/>
<path d="M148.377 50.6724C149.874 49.171 149.874 46.7363 148.377 45.235C146.881 43.7337 144.453 43.7337 142.956 45.235L12.6226 175.959C11.1258 177.461 11.1258 179.895 12.6226 181.397C14.1195 182.898 16.5469 182.898 18.0438 181.397L148.377 50.6724Z" fill="#7BACC9"/>
<path d="M148.379 83.2957C149.876 81.7944 149.876 79.3597 148.379 77.8584C146.882 76.357 144.455 76.357 142.958 77.8584L19.1832 202.004C17.6863 203.505 17.6863 205.94 19.1832 207.441C20.68 208.942 23.1075 208.942 24.6043 207.441L148.379 83.2957Z" fill="#7BACC9"/>
<path d="M48.8211 204.902C47.3243 206.403 47.3243 208.838 48.8211 210.339C50.318 211.84 52.7454 211.84 54.2422 210.339L148.378 115.922C149.874 114.42 149.874 111.986 148.378 110.484C146.881 108.983 144.453 108.983 142.956 110.484L48.8211 204.902Z" fill="#7BACC9"/>
<path d="M81.3468 204.903C79.8499 206.404 79.8499 208.839 81.3468 210.34C82.8436 211.841 85.271 211.841 86.7679 210.34L148.377 148.546C149.874 147.045 149.874 144.61 148.377 143.109C146.88 141.607 144.453 141.607 142.956 143.109L81.3468 204.903Z" fill="#7BACC9"/>
<path d="M148.379 181.169C149.876 179.667 149.876 177.233 148.379 175.731C146.882 174.23 144.455 174.23 142.958 175.731L113.874 204.902C112.377 206.403 112.377 208.838 113.874 210.34C115.371 211.841 117.799 211.841 119.295 210.34L148.379 181.169Z" fill="#7BACC9"/>
</svg>
