<svg width="161" height="223" viewBox="0 0 161 223" fill="none" xmlns="http://www.w3.org/2000/svg">
<path d="M153.333 0H7.6666C3.43097 0 0 3.44126 0 7.68958V215.31C0 219.559 3.43097 223 7.6666 223H153.333C157.569 223 161 219.559 161 215.31V7.68958C161 3.44126 157.569 0 153.333 0Z" fill="#E6EEF4"/>
<path d="M92.0001 161.483C92.0001 171.026 94.622 180.569 95.5305 183.579C95.6799 184.075 95.3042 184.552 94.7905 184.552H66.2054C65.6917 184.552 65.32 184.075 65.4655 183.583C66.3661 180.557 68.9998 170.91 68.9998 161.482C65.2123 164.236 60.8347 165.654 56.0085 165.654C41.9937 165.654 29.8343 153.85 30.7124 139.617C31.2031 131.612 36.2859 124.745 43.0558 120.485C49.8522 116.206 56.1544 115.864 61.7892 117.237C58.1858 112.957 56.0085 107.436 56.0085 101.4C56.0085 86.2278 69.7202 74.2668 85.3909 77.3078C95.2005 79.2072 102.993 87.2927 104.642 97.174C105.922 104.84 103.641 111.976 99.2138 117.236C104.887 115.856 111.239 116.213 118.089 120.573C124.828 124.864 129.892 131.715 130.356 139.705C131.176 153.9 118.978 165.654 104.994 165.654C100.234 165.655 95.7185 164.178 92.0001 161.483Z" fill="#7BACC9"/>
<path d="M34.3033 14.1635C33.1382 10.6583 28.1952 10.6583 27.0301 14.1635L11.6965 60.3015C11.0268 62.3159 12.1125 64.4932 14.1208 65.1648C16.1292 65.8364 18.3 64.7475 18.9696 62.7331L34.3028 16.5952H27.0297L42.3629 62.7331C43.0325 64.7475 45.2033 65.8364 47.2117 65.1648C49.22 64.4932 50.3057 62.3159 49.6361 60.3015L34.3033 14.1635Z" fill="#7BACC9"/>
<path d="M38.3334 49.9829C40.4503 49.9829 42.1669 48.2616 42.1669 46.1379C42.1669 44.0146 40.4507 42.2929 38.3334 42.2929H23.0001C20.8832 42.2929 19.1666 44.0142 19.1666 46.1379C19.1666 48.2612 20.8828 49.9829 23.0001 49.9829H38.3334Z" fill="#7BACC9"/>
</svg>
