<svg width="161" height="223" viewBox="0 0 161 223" fill="none" xmlns="http://www.w3.org/2000/svg">
<path d="M153.333 0H7.6666C3.43097 0 0 3.44126 0 7.68958V215.31C0 219.559 3.43097 223 7.6666 223H153.333C157.569 223 161 219.559 161 215.31V7.68958C161 3.44126 157.569 0 153.333 0Z" fill="#E6EEF4"/>
<path d="M80.4999 103.81C84.6283 93.2641 93.3645 84.5863 104.332 84.5863C113.563 84.5863 121.789 88.9387 127.332 96.1208C134.286 105.133 139.2 125.195 123.982 140.46C116.261 148.203 80.4999 184.552 80.4999 184.552C80.4999 184.552 44.7385 148.203 37.0185 140.459C21.7999 125.195 26.7143 105.133 33.6683 96.1204C39.2114 88.9382 47.4378 84.5858 56.6685 84.5858C67.6354 84.5863 76.3716 93.2641 80.4999 103.81Z" fill="#7BACC9"/>
<path d="M34.4999 61.5171L38.3334 57.6721H15.3332C13.2162 57.6721 11.4996 59.3933 11.4996 61.5171C11.4996 63.6408 13.2158 65.3621 15.3332 65.3621H38.3334C40.4504 65.3621 42.1669 63.6408 42.1669 61.5171V57.6721C42.1669 55.5488 40.4508 53.8271 38.3334 53.8271C36.216 53.8271 34.4999 55.5483 34.4999 57.6721V61.5171Z" fill="#7BACC9"/>
<path d="M36.9942 35.4901L38.0082 34.2889L38.2722 33.9374C44.4497 24.6433 38.2227 11.7201 27.0886 11.5355L26.8333 11.535C18.3642 11.535 11.5001 18.4202 11.5001 26.9142C11.5001 29.0375 13.2162 30.7592 15.3336 30.7592C17.4505 30.7592 19.1671 29.0379 19.1671 26.9142C19.1671 22.6667 22.5989 19.2246 26.8337 19.2246H27.0252C31.8836 19.3061 34.7834 25.3236 31.8935 29.6721L35.0831 31.805L32.1576 29.3206L31.1419 30.524C23.5938 39.4802 17.1383 49.3052 11.9057 59.798C10.9586 61.697 11.7259 64.0067 13.6192 64.9566C15.5125 65.9065 17.8153 65.1369 18.7624 63.2379C23.7219 53.2905 29.8413 43.9772 36.9942 35.4901Z" fill="#7BACC9"/>
</svg>
