<svg width="21" height="25" viewBox="0 0 21 25" fill="none" xmlns="http://www.w3.org/2000/svg">
<path d="M19.3846 4.64423H16.9615V1.54808C16.9615 0.693151 16.2382 0 15.3462 0H5.65385C4.76175 0 4.03846 0.693151 4.03846 1.54808V4.64423H1.61538C0.723288 4.64423 0 5.33738 0 6.19231V7.74038H21V6.19231C21 5.33738 20.2767 4.64423 19.3846 4.64423ZM7.26923 4.64423V3.09615H13.7308V4.64423H7.26923Z" fill="#91BDD8"/>
<path d="M1.61538 23.2213C1.61538 24.0763 2.33847 24.7692 3.23056 24.7692H17.7696C18.6615 24.7692 19.3846 24.0763 19.3846 23.2215V23.2213V9.28845H1.61538V23.2213ZM13.7308 13.1586C13.7308 12.7312 14.0924 12.3846 14.5385 12.3846C14.9845 12.3846 15.3461 12.7312 15.3461 13.1586V20.899C15.3461 21.3265 14.9845 21.6731 14.5385 21.6731C14.0924 21.6731 13.7308 21.3265 13.7308 20.899V13.1586ZM9.6923 13.1586C9.6923 12.7312 10.0539 12.3846 10.5 12.3846C10.946 12.3846 11.3077 12.7312 11.3077 13.1586V20.899C11.3077 21.3265 10.946 21.6731 10.5 21.6731C10.0539 21.6731 9.6923 21.3265 9.6923 20.899V13.1586ZM5.65384 13.1586C5.65384 12.7312 6.01549 12.3846 6.46153 12.3846C6.90758 12.3846 7.26923 12.7312 7.26923 13.1586V20.899C7.26923 21.3265 6.90758 21.6731 6.46153 21.6731C6.01549 21.6731 5.65384 21.3265 5.65384 20.899V13.1586Z" fill="#91BDD8"/>
</svg>
