<svg width="45" height="27" viewBox="0 0 45 27" fill="none" xmlns="http://www.w3.org/2000/svg">
<path d="M43.9965 8.38266L34.4774 0.799449C33.8302 0.283917 32.9697 0 32.0546 0C31.1395 0 30.279 0.283847 29.6317 0.799449C28.9846 1.31505 28.6282 2.00051 28.6282 2.72952C28.6282 3.45861 28.9846 4.14407 29.6318 4.65967L33.3015 7.58307H20.6517C18.7623 7.58307 17.2253 8.80759 17.2253 10.3127C17.2253 11.8178 18.7624 13.0423 20.6517 13.0423H33.3014L29.6316 15.9657C28.9844 16.4813 28.628 17.1667 28.628 17.8958C28.628 18.6248 28.9844 19.3104 29.6316 19.826C30.2789 20.3414 31.1393 20.6253 32.0544 20.6253C32.9697 20.6253 33.8302 20.3414 34.4773 19.8258L43.9965 12.2427C44.6436 11.7271 45 11.0416 45 10.3126C45.0002 9.58379 44.6438 8.89833 43.9965 8.38266ZM42.7289 11.233L33.2099 18.8162C32.9012 19.062 32.491 19.1973 32.0546 19.1973C31.6182 19.1973 31.208 19.0619 30.8994 18.8162C30.5908 18.5704 30.4209 18.2436 30.4209 17.8959C30.4209 17.5483 30.5908 17.2215 30.8993 16.9757L36.0995 12.8331C36.3558 12.6289 36.4326 12.3217 36.2938 12.0549C36.155 11.7881 35.828 11.6141 35.4656 11.6141H20.6517C19.7509 11.6141 19.0181 11.0303 19.0181 10.3127C19.0181 9.59507 19.7509 9.01127 20.6517 9.01127H35.4657C35.8283 9.01127 36.1551 8.83735 36.2939 8.57044C36.4326 8.30361 36.3559 7.99645 36.0995 7.79221L30.8994 3.64968C30.5908 3.40385 30.4209 3.07702 30.4209 2.72938C30.4209 2.38175 30.5909 2.05492 30.8993 1.80916C31.208 1.56333 31.6182 1.42799 32.0546 1.42799C32.491 1.42799 32.9013 1.5634 33.2099 1.80916L42.7289 9.3923C43.0375 9.6382 43.2074 9.96503 43.2074 10.3126C43.2075 10.6603 43.0375 10.9871 42.7289 11.233Z" fill="white"/>
<path d="M37.1803 13.8737C36.8302 13.5948 36.2626 13.5948 35.9125 13.8737L35.7606 13.9947C35.4106 14.2736 35.4106 14.7258 35.7606 15.0047C35.9356 15.1442 36.1651 15.2138 36.3945 15.2138C36.6239 15.2138 36.8534 15.1442 37.0285 15.0047L37.1803 14.8837C37.5304 14.6047 37.5304 14.1526 37.1803 13.8737Z" fill="white"/>
<path d="M42.3173 9.78142C41.9672 9.50255 41.3996 9.50255 41.0495 9.78142L37.6774 12.4677C37.3273 12.7467 37.3273 13.1989 37.6774 13.4777C37.8524 13.6172 38.0818 13.6869 38.3112 13.6869C38.5406 13.6869 38.7701 13.6172 38.9452 13.4777L42.3173 10.7914C42.6674 10.5125 42.6674 10.0602 42.3173 9.78142Z" fill="white"/>
<path d="M24.3484 13.9575H11.6987L15.3686 11.0341C16.0158 10.5185 16.3722 9.83313 16.3722 9.10405C16.3722 8.37496 16.0158 7.6895 15.3686 7.1739C14.7215 6.65837 13.8609 6.37445 12.9457 6.37445C12.0304 6.37445 11.1699 6.65844 10.5228 7.17397L1.00354 14.7571C0.356398 15.2726 0 15.9582 0 16.6872C0 17.4162 0.356398 18.1017 1.00363 18.6174L10.5227 26.2006C10.5227 26.2006 10.5227 26.2006 10.5227 26.2006C11.17 26.7161 12.0304 27 12.9456 27C13.8608 27 14.7212 26.7162 15.3684 26.2004C16.0156 25.6848 16.372 24.9993 16.372 24.2703C16.372 23.5413 16.0156 22.8558 15.3684 22.3402L11.6986 19.4168H24.3484C26.2378 19.4168 27.7749 18.1923 27.7749 16.6872C27.7749 15.182 26.2378 13.9575 24.3484 13.9575ZM24.3484 17.9886H9.53459C9.17195 17.9886 8.84517 18.1625 8.70639 18.4294C8.56761 18.6962 8.64434 19.0034 8.90072 19.2076L14.1009 23.3502C14.4095 23.596 14.5794 23.9228 14.5794 24.2705C14.5794 24.6181 14.4094 24.9449 14.101 25.1907C13.7923 25.4365 13.3819 25.5719 12.9456 25.5719C12.5094 25.5719 12.0991 25.4365 11.7904 25.1907L2.27137 17.6076C1.96278 17.3616 1.79289 17.0348 1.79289 16.6872C1.79289 16.3396 1.96287 16.0128 2.27128 15.767L11.7904 8.18375C12.099 7.93799 12.5092 7.80265 12.9456 7.80265C13.3819 7.80265 13.7922 7.93799 14.1008 8.18375C14.4094 8.42965 14.5793 8.75648 14.5793 9.10405C14.5793 9.45161 14.4094 9.77845 14.1009 10.0243L8.90072 14.1668C8.64434 14.371 8.56761 14.6783 8.70639 14.945C8.84517 15.2118 9.17213 15.3859 9.53459 15.3859H24.3484C25.2492 15.3859 25.9821 15.9697 25.9821 16.6873C25.9821 17.4049 25.2492 17.9886 24.3484 17.9886Z" fill="white"/>
</svg>
