<svg width="27" height="27" viewBox="0 0 27 27" fill="none" xmlns="http://www.w3.org/2000/svg">
<path d="M26.4355 18.9641L20.327 12.8545L26.4345 6.74671C26.7963 6.38527 26.9997 5.89492 27 5.38351C27.0003 4.8721 26.7975 4.38151 26.4361 4.01963L26.4345 4.0177L22.9824 0.565574C22.6209 0.203714 22.1305 0.000271528 21.619 2.71601e-07C21.1075 -0.000270984 20.6169 0.202651 20.255 0.564127L20.2533 0.565574L14.146 6.67237L8.03748 0.563163C7.67529 0.202519 7.18496 8.09545e-05 6.67384 0.000171319C6.16272 0.000261684 5.67246 0.202873 5.3104 0.563645L0.564506 5.30974C0.20304 5.67156 0 6.16208 0 6.67353C0 7.18497 0.20304 7.67549 0.564506 8.03731L6.67206 14.1455L1.68978e-05 20.8173L0.564506 26.4378L6.18162 27L12.8535 20.3278L18.9626 26.4378C19.3252 26.7979 19.8155 27 20.3266 27C20.8376 27 21.328 26.7979 21.6906 26.4378L26.4355 21.6913C26.7969 21.3295 26.9999 20.8391 26.9999 20.3277C26.9999 19.8163 26.7969 19.3259 26.4355 18.9641ZM21.6127 1.92521L25.0745 5.38698L18.9674 11.4944L15.5056 8.03258L21.6127 1.92521ZM5.78569 25.0714L2 25L1.92858 21.6083L8.03159 15.5058L11.5772 19.0522L5.78569 25.0714ZM20.327 25.0748L1.92858 6.6742L6.67466 1.92868L10.3274 5.5809L8.15589 7.75294L9.52063 9.11653L11.6909 6.94497L15.6728 10.9269L13.4999 13.0983L14.8653 14.4619L17.0366 12.2904L21.0191 16.2729L18.8478 18.4434L20.2114 19.8079L22.3826 17.6368L25.0736 20.3281L20.327 25.0748Z" fill="#91BDD8"/>
</svg>
