<svg width="27" height="27" viewBox="0 0 27 27" fill="none" xmlns="http://www.w3.org/2000/svg">
<path d="M13.5 0C6.05609 0 0 6.05609 0 13.5C0 20.9439 6.05609 27 13.5 27C20.9439 27 27 20.9439 27 13.5C27 6.05609 20.9439 0 13.5 0ZM13.5 25.0986C7.10445 25.0986 1.90136 19.8955 1.90136 13.5C1.90136 7.10445 7.10445 1.90136 13.5 1.90136C19.8955 1.90136 25.0986 7.10445 25.0986 13.5C25.0986 19.8955 19.8955 25.0986 13.5 25.0986Z" fill="#F9B84F"/>
<path d="M13.5001 3.32745C7.89088 3.32745 3.32751 7.89082 3.32751 13.5C3.32751 19.1092 7.89088 23.6725 13.5001 23.6725C19.1092 23.6725 23.6726 19.1092 23.6726 13.5C23.6726 7.89082 19.1092 3.32745 13.5001 3.32745ZM20.2591 18.8937L19.9556 18.5903C19.5844 18.2189 18.9823 18.219 18.6111 18.5904C18.2399 18.9616 18.24 19.5636 18.6112 19.9348L18.9169 20.2404C17.6659 21.2477 16.13 21.9145 14.4508 22.0989V21.6285C14.4508 21.1035 14.0252 20.6778 13.5001 20.6778C12.975 20.6778 12.5493 21.1035 12.5493 21.6285V22.0989C10.8628 21.9137 9.32079 21.2419 8.06688 20.2272L8.40979 19.8842C8.78106 19.5129 8.78097 18.9109 8.4097 18.5397C8.03851 18.1684 7.43642 18.1685 7.06524 18.5398L6.72788 18.8773C5.73824 17.6335 5.08361 16.1122 4.90115 14.4506H5.37151C5.89651 14.4506 6.32224 14.025 6.32224 13.4999C6.32224 12.9748 5.89661 12.5492 5.37151 12.5492H4.90115C5.08551 10.87 5.75233 9.33409 6.7597 8.08309L7.06524 8.38873C7.25088 8.57445 7.49415 8.66727 7.73751 8.66727C7.98079 8.66727 8.22406 8.57445 8.4097 8.38882C8.78097 8.01763 8.78106 7.41564 8.40979 7.04436L8.10633 6.74091C9.35315 5.74391 10.8805 5.08418 12.5493 4.901V5.30009C12.5493 5.82509 12.975 6.25082 13.5001 6.25082C14.0252 6.25082 14.4508 5.82518 14.4508 5.30009V4.901C16.1123 5.08345 17.6336 5.73809 18.8774 6.72773L18.6112 6.99391C18.24 7.36518 18.2401 7.96718 18.6113 8.33836C18.797 8.52409 19.0401 8.61682 19.2835 8.61682C19.5269 8.61682 19.7701 8.524 19.9558 8.33827L20.2272 8.06673C21.242 9.32073 21.9138 10.8626 22.099 12.5492H21.6999C21.1749 12.5492 20.7491 12.9748 20.7491 13.4999C20.7491 14.025 21.1749 14.4507 21.6999 14.4507H22.099C21.9157 16.1195 21.256 17.6469 20.2591 18.8937Z" fill="#F9B84F"/>
<path d="M17.398 12.5492H14.4508V7.89079C14.4508 7.36579 14.0251 6.94006 13.5 6.94006C12.975 6.94006 12.5493 7.3657 12.5493 7.89079V13.5C12.5493 14.025 12.975 14.4507 13.5 14.4507H17.398C17.923 14.4507 18.3487 14.0251 18.3487 13.5C18.3487 12.9749 17.923 12.5492 17.398 12.5492Z" fill="#F9B84F"/>
</svg>
