<svg width="22" height="22" viewBox="0 0 22 22" fill="none" xmlns="http://www.w3.org/2000/svg">
<path d="M1.26837 2.68976C5.8388 2.68976 9.57824 2.68976 14.1814 2.68976C14.8812 2.68976 15.4498 3.25834 15.4498 3.95813V11.5245V13.3177V19.6813V20.228C15.4498 21.0808 14.761 21.7697 13.9081 21.7697H1.26837C0.568583 21.7697 0 21.2011 0 20.5013V3.95813C0 3.25834 0.56865 2.68976 1.26837 2.68976Z" fill="#ECCE93"/>
<path d="M14.6295 3.43323H0.819824V21.0154H14.6295V3.43323Z" fill="#F7F7F8"/>
<path d="M16.707 22C19.1106 22 21.0591 20.0515 21.0591 17.6479C21.0591 15.2443 19.1106 13.2958 16.707 13.2958C14.3035 13.2958 12.355 15.2443 12.355 17.6479C12.355 20.0515 14.3035 22 16.707 22Z" fill="#EFEFEF"/>
<path d="M1.94629 4.87659H3.72852V6.93216H1.94629V4.87659ZM1.94629 15.92H3.72852V17.9756H1.94629V15.92ZM1.94629 12.2352H3.72852V14.2908H1.94629V12.2352ZM1.94629 8.55043H3.72852V10.606H1.94629V8.55043Z" fill="#77959E"/>
<path d="M4.57043 5.63104H10.6607V6.16686H4.57043V5.63104ZM4.57043 16.6744H10.6607V17.2103H4.57043V16.6744ZM4.57043 12.9897H10.6607V13.5255H4.57043V12.9897ZM4.57043 9.30488H10.6607V9.8407H4.57043V9.30488Z" fill="#77959E"/>
<path d="M16.7069 21.3221C18.7361 21.3221 20.3811 19.6771 20.3811 17.6479C20.3811 15.6187 18.7361 13.9738 16.7069 13.9738C14.6777 13.9738 13.0327 15.6187 13.0327 17.6479C13.0327 19.6771 14.6777 21.3221 16.7069 21.3221Z" fill="#48C8EF"/>
<path d="M13.6019 17.7679L14.7719 17.6367L16.0403 18.7629C16.0403 18.7629 16.6527 16.2043 19.5173 15.6029C18.1178 16.3573 17.254 17.8553 16.6745 19.9219C16.5323 20.4467 16.1497 20.3045 16.0294 20.1514C15.8326 19.8999 14.5205 18.402 13.602 17.7569V17.7679H13.6019Z" fill="white"/>
<path d="M6.5057 1.61826H6.7025C6.64785 1.53083 6.61508 1.42145 6.61508 1.31214V0.656068C6.61508 0.295231 6.94315 6.10352e-05 7.34763 6.10352e-05H8.10207C8.50662 6.10352e-05 8.83463 0.295297 8.83463 0.656068V1.31208C8.83463 1.42145 8.80186 1.51982 8.74714 1.61819H8.94394C10.2889 1.61819 11.3822 2.61321 11.3822 3.81591H4.05652C4.05652 2.60227 5.16085 1.61819 6.49476 1.61819L6.5057 1.61826Z" fill="#E76E54"/>
<path d="M7.73036 0H8.11302C8.51757 0 8.84557 0.295236 8.84557 0.656007V1.31201C8.84557 1.42139 8.8128 1.51976 8.75808 1.61813H8.95488C10.2998 1.61813 11.3931 2.61315 11.3931 3.81585H7.73022L7.73036 0Z" fill="#E76E54"/>
</svg>
