<svg width="21" height="25" viewBox="0 0 21 25" fill="none" xmlns="http://www.w3.org/2000/svg">
<g clip-path="url(#clip0_648_33)">
<path d="M4.77272 13.6364V18.1818C4.77272 18.8094 5.2001 19.3182 5.72727 19.3182H9.54545C9.79859 19.3182 10.0414 19.1984 10.2204 18.9853L20.7203 6.4853C21.0931 6.04152 21.0931 5.32205 20.7203 4.87826L16.9021 0.332803C16.7232 0.119773 16.4804 0 16.2273 0C15.9741 0 15.7313 0.119773 15.5523 0.332879L5.05234 12.8329C4.87327 13.0459 4.77272 13.335 4.77272 13.6364ZM6.68181 14.107L16.2273 2.74341L18.6955 5.68182L9.15007 17.0455H6.68181V14.107Z" fill="#91BDD8"/>
<path d="M20.0455 11.3637C19.5183 11.3637 19.0909 11.8725 19.0909 12.5001V22.7273H1.90909V2.27273H10.5C11.0272 2.27273 11.4545 1.76394 11.4545 1.13636C11.4545 0.508788 11.0272 0 10.5 0H0.954545C0.427382 0 0 0.508788 0 1.13636V23.8636C0 24.4912 0.427382 25 0.954545 25H20.0455C20.5726 25 21 24.4912 21 23.8636V12.5001C21 11.8724 20.5726 11.3637 20.0455 11.3637Z" fill="#91BDD8"/>
</g>
<defs>
<clipPath id="clip0_648_33">
<rect width="21" height="25" fill="white"/>
</clipPath>
</defs>
</svg>
