<svg width="29" height="27" viewBox="0 0 29 27" fill="none" xmlns="http://www.w3.org/2000/svg">
<path d="M1 24.3415V16.1022H9.23931" stroke="#91BDD8" stroke-width="2" stroke-linecap="round" stroke-linejoin="round"/>
<path d="M1 16.1022L7.37173 22.0894C8.84759 23.566 10.6735 24.6447 12.679 25.2248C14.6845 25.8049 16.8042 25.8675 18.8405 25.4067C20.8767 24.946 22.763 23.977 24.3235 22.5901C25.8839 21.2031 27.0676 19.4435 27.764 17.4754" stroke="#91BDD8" stroke-width="2" stroke-linecap="round" stroke-linejoin="round"/>
<path d="M27.764 2.36995V10.6093H19.5247" stroke="#91BDD8" stroke-width="2" stroke-linecap="round" stroke-linejoin="round"/>
<path d="M27.764 10.6093L21.3923 4.62202C19.9164 3.14542 18.0906 2.06675 16.0851 1.48665C14.0796 0.906562 11.9598 0.843958 9.92359 1.30468C7.88735 1.76541 6.00101 2.73445 4.44058 4.12137C2.88014 5.5083 1.69648 7.26792 1.00003 9.23604" stroke="#91BDD8" stroke-width="2" stroke-linecap="round" stroke-linejoin="round"/>
</svg>
