<svg width="28" height="27" viewBox="0 0 28 27"  fill="none" xmlns="http://www.w3.org/2000/svg">
<path d="M26.5362 12.7774L24.0658 11.0616L25.5308 8.43431C25.6904 8.14796 25.7288 7.81664 25.6391 7.50132C25.5494 7.186 25.3424 6.92441 25.0562 6.76507L21.5448 4.80745V3.23295C21.5448 2.55599 20.994 2.00519 20.3171 2.00519H16.5197L13.2041 0.156388C12.9177 -0.00346211 12.5863 -0.0425403 12.2706 0.0473227C11.9553 0.136933 11.6934 0.344199 11.5335 0.631053L10.8399 1.87549L9.6708 1.06277C9.40188 0.875208 9.07595 0.804042 8.75313 0.861901C8.42981 0.919845 8.14868 1.10041 7.96171 1.37009L7.52074 2.00519H6.74692C6.06996 2.00519 5.51924 2.55599 5.51924 3.23295V4.88662L0.22027 12.5147C0.0327954 12.784 -0.0383707 13.1101 0.0197413 13.433C0.0778533 13.7559 0.258422 14.0366 0.527758 14.2234L2.99811 15.9395L1.53352 18.5662C1.37358 18.8523 1.33476 19.1836 1.42403 19.4988C1.51356 19.8147 1.72091 20.0767 2.00793 20.2367L5.51907 22.1946V23.7683C5.51907 24.4453 6.06979 24.996 6.74675 24.996H10.544L13.8599 26.8444C14.0487 26.9499 14.2538 27 14.4561 27C14.8868 27 15.3056 26.7731 15.5304 26.3708L16.2238 25.1274L17.393 25.9394C17.6058 26.0871 17.8496 26.158 18.0911 26.158C18.4802 26.158 18.8634 25.9742 19.1023 25.6317L19.5439 24.996H20.317C20.994 24.996 21.5447 24.4453 21.5447 23.7683V22.115L26.8438 14.486C27.23 13.9305 27.0921 13.1641 26.5362 12.7774ZM24.7282 7.35368C24.8572 7.42561 24.9506 7.54343 24.9911 7.6856C25.0314 7.82776 25.014 7.97725 24.9423 8.10628L23.5097 10.6753L21.5447 9.31054V5.57891L24.7282 7.35368ZM12.122 0.959091C12.1943 0.829476 12.3125 0.735908 12.4549 0.695398C12.597 0.655056 12.7464 0.672406 12.8757 0.744667L15.1363 2.00519H11.5385L12.122 0.959091ZM8.51513 1.75421C8.59951 1.6326 8.72635 1.55116 8.87214 1.52497C9.01767 1.49886 9.16446 1.53086 9.28599 1.61567L9.84682 2.00511H8.34087L8.51513 1.75421ZM0.682892 13.3135C0.656699 13.168 0.688787 13.0209 0.773513 12.8993L5.51916 6.06764V16.8703L0.912055 13.67C0.790441 13.5856 0.709084 13.4591 0.682892 13.3135ZM2.33605 19.6482C2.20635 19.5759 2.1127 19.4576 2.07227 19.3151C2.03193 19.173 2.04945 19.0238 2.12171 18.8946L3.55413 16.3258L5.51907 17.6907V21.4231L2.33605 19.6482ZM14.9421 26.0424C14.7931 26.3091 14.4553 26.4052 14.1883 26.2561L11.9278 24.996H15.5255L14.9421 26.0424ZM18.5493 25.2468C18.3745 25.4977 18.0281 25.5601 17.7773 25.386L17.2158 24.996H18.7235L18.5493 25.2468ZM20.871 23.7683C20.871 24.0738 20.6226 24.3222 20.3171 24.3222H6.74684C6.44137 24.3222 6.19292 24.0738 6.19292 23.7683V3.23295C6.19292 2.92749 6.44137 2.67895 6.74684 2.67895H20.3171C20.6226 2.67895 20.871 2.92749 20.871 3.23295V23.7683ZM26.2906 14.1016L21.5447 20.934V10.1309L26.1516 13.3306C26.4024 13.5051 26.4648 13.8509 26.2906 14.1016Z" fill="#23709D"/>
<line x1="9.75" y1="12.25" x2="17.25" y2="12.25" stroke="#23709D" stroke-width="1.5" stroke-linecap="round"/>
<line x1="10.75" y1="15.25" x2="16.25" y2="15.25" stroke="#23709D" stroke-width="1.5" stroke-linecap="round"/>
</svg>