<svg width="24" height="26" viewBox="0 0 24 26" fill="none" xmlns="http://www.w3.org/2000/svg">
<g clip-path="url(#clip0_41_417)">
<path d="M23.3447 0.517914H0.655365V4.7426H23.3447V0.517914Z" fill="#7BACC9"/>
<path d="M9.59579 7.79315C9.57977 7.79315 9.5639 7.79375 9.54804 7.79435C9.21771 7.78032 8.88283 7.9012 8.63059 8.15739L5.05561 11.7882C4.57742 12.2739 4.57742 13.0614 5.05561 13.547C5.29474 13.7898 5.60811 13.9112 5.92149 13.9112C6.23486 13.9112 6.54824 13.7898 6.78736 13.547L8.37128 11.9383V20.2319C8.37128 20.9187 8.91952 21.4755 9.59579 21.4755C10.2721 21.4755 10.8203 20.9187 10.8203 20.2319V9.03679C10.8203 8.34995 10.272 7.79315 9.59579 7.79315Z" fill="#7BACC9"/>
<path d="M17.2857 7.79315C17.2697 7.79315 17.2538 7.79375 17.2379 7.79435C16.9076 7.78032 16.5727 7.9012 16.3205 8.15739L12.7455 11.7882C12.2673 12.2739 12.2673 13.0614 12.7455 13.547C12.9846 13.7898 13.298 13.9112 13.6114 13.9112C13.9248 13.9112 14.2381 13.7898 14.4773 13.547L16.0612 11.9383V20.2319C16.0612 20.9187 16.6094 21.4755 17.2857 21.4755C17.962 21.4755 18.5102 20.9187 18.5102 20.2319V9.03679C18.5102 8.34995 17.962 7.79315 17.2857 7.79315Z" fill="#7BACC9"/>
<path d="M24 0.498746C24 0.223338 23.7827 0 23.5147 0H0.485255C0.217249 0 0 0.223338 0 0.498746V24.5383C0 24.8137 0.217249 25.037 0.485255 25.037H23.5147C23.7828 25.037 24 24.8137 24 24.5383L24 0.498746ZM0.970511 0.997492H23.0295V4.06822H0.970511V0.997492ZM23.0294 24.0395H0.970511V5.06571H23.0295L23.0294 24.0395Z" fill="#23709D" stroke="#23709D" stroke-linejoin="round"/>
<path d="M5.68947 13.7705C6.1408 13.7705 6.56505 13.616 6.88412 13.3356L7.62106 12.6878V18.7372C7.62106 19.556 8.37896 20.2222 9.31053 20.2222C10.2421 20.2222 11 19.556 11 18.7372V9.18872C11 8.36988 10.2421 7.7037 9.31053 7.7037C9.29465 7.7037 9.27891 7.70404 9.26323 7.70447C8.7992 7.69272 8.34628 7.85008 8.01804 8.13864L4.49487 11.2354C4.17575 11.516 4 11.8889 4 12.2855C4 12.6822 4.17575 13.0551 4.49482 13.3356C4.81394 13.6161 5.23819 13.7705 5.68947 13.7705ZM5.17751 11.8355L8.70068 8.73867C8.84544 8.61134 9.03737 8.54575 9.24329 8.55296C9.25628 8.55343 9.26936 8.55343 9.28234 8.553C9.29171 8.55266 9.30107 8.55228 9.31053 8.55228C9.70978 8.55228 10.0346 8.83779 10.0346 9.18872V18.7372C10.0346 19.0881 9.70978 19.3736 9.31053 19.3736C8.91129 19.3736 8.58647 19.0881 8.58647 18.7372V11.6635C8.58647 11.4919 8.46884 11.3372 8.2885 11.2715C8.22879 11.2498 8.16609 11.2392 8.10386 11.2392C7.97826 11.2392 7.85479 11.2823 7.76245 11.3635L6.20147 12.7356C6.06472 12.8558 5.88289 12.922 5.68952 12.922C5.49615 12.922 5.31431 12.8558 5.17751 12.7356C5.04076 12.6154 4.96546 12.4555 4.96546 12.2856C4.96546 12.1156 5.04071 11.9557 5.17751 11.8355Z" fill="#23709D"/>
<path d="M13.6895 13.7705C14.1408 13.7705 14.565 13.616 14.8841 13.3356L15.6211 12.6878V18.7372C15.6211 19.556 16.379 20.2222 17.3105 20.2222C18.2421 20.2222 19 19.556 19 18.7372V9.18872C19 8.36988 18.2421 7.7037 17.3105 7.7037C17.2947 7.7037 17.279 7.70404 17.2632 7.70447C16.7996 7.69318 16.3463 7.85004 16.018 8.13864L12.4949 11.2354C12.1757 11.5159 12 11.8888 12 12.2855C12 12.6822 12.1758 13.0551 12.4948 13.3356C12.8139 13.6161 13.2382 13.7705 13.6895 13.7705ZM13.1775 11.8355L16.7007 8.73867C16.8455 8.61134 17.0379 8.54575 17.2433 8.55296C17.2563 8.55343 17.2693 8.55343 17.2823 8.553C17.2917 8.55266 17.3011 8.55228 17.3105 8.55228C17.7097 8.55228 18.0345 8.83779 18.0345 9.18872V18.7372C18.0345 19.0881 17.7097 19.3736 17.3105 19.3736C16.9112 19.3736 16.5864 19.0881 16.5864 18.7372V11.6635C16.5864 11.4919 16.4688 11.3372 16.2885 11.2715C16.2287 11.2498 16.166 11.2392 16.1038 11.2392C15.9782 11.2392 15.8547 11.2823 15.7624 11.3635L14.2014 12.7356C14.0647 12.8558 13.8828 12.922 13.6895 12.922C13.4961 12.922 13.3143 12.8558 13.1775 12.7356C13.0407 12.6154 12.9654 12.4555 12.9654 12.2856C12.9654 12.1156 13.0407 11.9557 13.1775 11.8355Z" fill="#23709D"/>
</g>
<defs>
<clipPath id="clip0_41_417">
<rect width="24" height="26" fill="white"/>
</clipPath>
</defs>
</svg>
