<svg width="27" height="27" viewBox="0 0 27 27" fill="none" xmlns="http://www.w3.org/2000/svg">
<path d="M15.9602 9.91965H11.04V14.1866H15.9602V9.91965Z" fill="#91BDD8"/>
<path d="M15.9601 14.9576H11.04C10.6139 14.9576 10.2683 14.6121 10.2683 14.186V9.91928C10.2683 9.49314 10.6139 9.14767 11.04 9.14767H15.9601C16.3862 9.14767 16.7317 9.49314 16.7317 9.91928V14.186C16.7317 14.6122 16.3863 14.9576 15.9601 14.9576ZM11.8116 13.4144H15.1886V10.6909H11.8116V13.4144Z" fill="#23709D"/>
<path d="M18.1506 14.9576H8.84952C8.42343 14.9576 8.07791 14.6121 8.07791 14.186C8.07791 13.7598 8.42343 13.4144 8.84952 13.4144H18.1506C18.5767 13.4144 18.9222 13.7598 18.9222 14.186C18.9222 14.6122 18.5766 14.9576 18.1506 14.9576Z" fill="#23709D"/>
<path d="M16.9597 14.1858H10.0408V26.2281H16.9597V14.1858Z" fill="#91BDD8"/>
<path d="M16.9593 27H10.0407C9.61459 27 9.26907 26.6545 9.26907 26.2284V14.186C9.26907 13.7598 9.61459 13.4144 10.0407 13.4144H16.9593C17.3854 13.4144 17.7309 13.7598 17.7309 14.186V26.2284C17.7309 26.6545 17.3855 27 16.9593 27ZM10.8123 25.4568H16.1877V14.9576H10.8123V25.4568Z" fill="#23709D"/>
<path d="M23.878 27H16.9593C16.5332 27 16.1877 26.6545 16.1877 26.2284V18.281C16.1877 17.8549 16.5332 17.5094 16.9593 17.5094H22.5855C23.7237 17.5094 24.6496 18.4353 24.6496 19.5734V22.2547C24.6496 22.6809 24.3041 23.0263 23.878 23.0263C23.4519 23.0263 23.1064 22.6809 23.1064 22.2547V19.5734C23.1064 19.2862 22.8727 19.0526 22.5855 19.0526H17.7309V25.4568H23.878C24.3041 25.4568 24.6496 25.8022 24.6496 26.2284C24.6496 26.6545 24.3042 27 23.878 27Z" fill="#23709D"/>
<path d="M10.0407 27H3.12198C2.69589 27 2.35037 26.6545 2.35037 26.2284V21.8881C2.35037 20.75 3.27628 19.8241 4.41445 19.8241H10.0406C10.4667 19.8241 10.8122 20.1696 10.8122 20.5957V26.2284C10.8123 26.6545 10.4668 27 10.0407 27ZM3.89359 25.4568H9.26907V21.3673H4.4145C4.12726 21.3673 3.89359 21.601 3.89359 21.8881V25.4568Z" fill="#23709D"/>
<path d="M13.5 9.86618C13.3667 9.86618 13.2336 9.83169 13.1142 9.76277L10.4051 8.19867C9.28879 7.55415 8.59534 6.35302 8.59534 5.06398V0.771609C8.59534 0.345463 8.94085 0 9.36695 0H17.6332C18.0593 0 18.4048 0.345463 18.4048 0.771609C18.4048 1.19776 18.0593 1.54322 17.6332 1.54322H10.1386V5.06403C10.1386 5.80352 10.5363 6.49255 11.1767 6.86232L13.5 8.20362L15.8233 6.86227C16.4637 6.4925 16.8615 5.80347 16.8615 5.06398V4.00644C16.8615 3.58029 17.207 3.23483 17.6331 3.23483C18.0592 3.23483 18.4047 3.58029 18.4047 4.00644V5.06398C18.4047 6.35302 17.7112 7.55415 16.5949 8.19867L13.8858 9.76277C13.7665 9.83169 13.6333 9.86618 13.5 9.86618Z" fill="#23709D"/>
<path d="M9.21018 4.77805H7.65625C7.23016 4.77805 6.88464 4.43259 6.88464 4.00644C6.88464 3.5803 7.23016 3.23483 7.65625 3.23483H9.21018C9.63627 3.23483 9.98179 3.5803 9.98179 4.00644C9.98179 4.43259 9.63622 4.77805 9.21018 4.77805Z" fill="#23709D"/>
<path d="M19.3439 4.77805H17.6355C17.2094 4.77805 16.8639 4.43259 16.8639 4.00644C16.8639 3.5803 17.2094 3.23483 17.6355 3.23483H19.3439C19.77 3.23483 20.1155 3.5803 20.1155 4.00644C20.1155 4.43259 19.7699 4.77805 19.3439 4.77805Z" fill="#23709D"/>
</svg>
