<svg width="242" height="175" viewBox="0 0 242 175" fill="none" xmlns="http://www.w3.org/2000/svg">
<path d="M154.215 131.192V173.377H48.2749C36.2045 173.377 26.3839 163.915 26.3839 152.285C26.3839 140.655 36.2045 131.192 48.2749 131.192H154.215Z" fill="#F2F2F2"/>
<path d="M156.817 173.053C156.817 173.483 156.645 173.896 156.34 174.2C156.035 174.504 155.622 174.675 155.19 174.676H46.3879C40.4787 174.676 34.8114 172.334 30.633 168.165C26.4545 163.996 24.107 158.342 24.107 152.447C24.107 146.552 26.4545 140.898 30.633 136.729C34.8114 132.56 40.4787 130.219 46.3879 130.219H155.19C155.622 130.219 156.035 130.39 156.34 130.694C156.645 130.998 156.817 131.411 156.817 131.841C156.817 132.271 156.645 132.684 156.34 132.988C156.035 133.293 155.622 133.464 155.19 133.464H46.3879C41.3413 133.464 36.5014 135.464 32.9329 139.024C29.3645 142.584 27.3597 147.412 27.3597 152.447C27.3597 157.482 29.3645 162.31 32.9329 165.87C36.5014 169.43 41.3413 171.43 46.3879 171.43H155.19C155.622 171.431 156.035 171.602 156.34 171.906C156.645 172.21 156.817 172.623 156.817 173.053Z" fill="#007FC7"/>
<path d="M154.215 140.927H40.3705C40.2842 140.927 40.2015 140.893 40.1405 140.832C40.0795 140.771 40.0452 140.689 40.0452 140.603C40.0452 140.517 40.0795 140.434 40.1405 140.373C40.2015 140.312 40.2842 140.278 40.3705 140.278H154.215C154.301 140.278 154.384 140.312 154.445 140.373C154.506 140.434 154.54 140.517 154.54 140.603C154.54 140.689 154.506 140.771 154.445 140.832C154.384 140.893 154.301 140.927 154.215 140.927Z" fill="#CCCCCC"/>
<path d="M154.215 148.715H40.3705C40.2842 148.715 40.2015 148.681 40.1405 148.62C40.0795 148.559 40.0452 148.477 40.0452 148.391C40.0452 148.305 40.0795 148.222 40.1405 148.161C40.2015 148.1 40.2842 148.066 40.3705 148.066H154.215C154.301 148.066 154.384 148.1 154.445 148.161C154.506 148.222 154.54 148.305 154.54 148.391C154.54 148.477 154.506 148.559 154.445 148.62C154.384 148.681 154.301 148.715 154.215 148.715Z" fill="#CCCCCC"/>
<path d="M154.215 156.503H40.3705C40.2842 156.503 40.2015 156.469 40.1405 156.408C40.0795 156.347 40.0452 156.265 40.0452 156.179C40.0452 156.093 40.0795 156.01 40.1405 155.949C40.2015 155.889 40.2842 155.854 40.3705 155.854H154.215C154.301 155.854 154.384 155.889 154.445 155.949C154.506 156.01 154.54 156.093 154.54 156.179C154.54 156.265 154.506 156.347 154.445 156.408C154.384 156.469 154.301 156.503 154.215 156.503Z" fill="#CCCCCC"/>
<path d="M154.215 164.291H40.3705C40.2842 164.291 40.2015 164.257 40.1405 164.196C40.0795 164.135 40.0452 164.053 40.0452 163.967C40.0452 163.881 40.0795 163.798 40.1405 163.737C40.2015 163.677 40.2842 163.642 40.3705 163.642H154.215C154.301 163.642 154.384 163.677 154.445 163.737C154.506 163.798 154.54 163.881 154.54 163.967C154.54 164.053 154.506 164.135 154.445 164.196C154.384 164.257 154.301 164.291 154.215 164.291Z" fill="#CCCCCC"/>
<path d="M236.09 139.133L209.56 171.982L127.067 105.67C117.668 98.1142 115.972 84.5988 123.286 75.5426C130.6 66.4864 144.198 65.2653 153.597 72.8207L236.09 139.133Z" fill="#F2F2F2"/>
<path d="M211.79 173.358C211.52 173.693 211.127 173.907 210.698 173.953C210.269 173.999 209.839 173.873 209.503 173.603L124.781 105.499C120.18 101.8 117.24 96.4294 116.608 90.5678C115.975 84.7063 117.703 78.8343 121.411 74.2437C125.119 69.6531 130.502 66.7199 136.378 66.0894C142.253 65.4588 148.139 67.1826 152.74 70.8815L237.462 138.986C237.629 139.119 237.767 139.284 237.87 139.471C237.972 139.658 238.037 139.864 238.06 140.076C238.083 140.288 238.064 140.502 238.003 140.707C237.943 140.911 237.843 141.102 237.709 141.268C237.575 141.434 237.41 141.572 237.222 141.674C237.035 141.776 236.829 141.84 236.616 141.863C236.404 141.886 236.189 141.866 235.984 141.806C235.779 141.746 235.588 141.646 235.422 141.513L150.699 73.4083C148.754 71.843 146.518 70.6755 144.12 69.9724C141.722 69.2694 139.209 69.0445 136.723 69.3107C134.238 69.5769 131.83 70.329 129.636 71.524C127.442 72.7189 125.506 74.3334 123.938 76.275C122.37 78.2167 121.2 80.4476 120.497 82.8403C119.793 85.233 119.568 87.7406 119.836 90.2198C120.104 92.699 120.859 95.1013 122.057 97.2894C123.256 99.4775 124.875 101.409 126.822 102.972L211.544 171.077C211.88 171.347 212.094 171.739 212.141 172.166C212.187 172.594 212.061 173.023 211.79 173.358Z" fill="#CCCCCC"/>
<path d="M229.968 146.713L141.32 75.4535C141.287 75.4267 141.259 75.3937 141.238 75.3563C141.218 75.3189 141.205 75.2779 141.2 75.2355C141.196 75.1931 141.2 75.1503 141.212 75.1094C141.224 75.0685 141.244 75.0304 141.271 74.9972C141.297 74.964 141.33 74.9364 141.368 74.916C141.405 74.8956 141.447 74.8827 141.489 74.8781C141.532 74.8736 141.575 74.8774 141.616 74.8894C141.656 74.9014 141.695 74.9214 141.728 74.9481L230.376 146.208C230.409 146.235 230.437 146.268 230.458 146.305C230.478 146.343 230.491 146.384 230.496 146.426C230.5 146.469 230.497 146.511 230.484 146.552C230.472 146.593 230.452 146.631 230.426 146.665C230.399 146.698 230.366 146.726 230.328 146.746C230.291 146.766 230.249 146.779 230.207 146.784C230.164 146.788 230.121 146.784 230.08 146.772C230.039 146.76 230.001 146.74 229.968 146.714V146.713Z" fill="#CCCCCC"/>
<path d="M225.07 152.778L136.422 81.5179C136.355 81.4638 136.312 81.3855 136.303 81.2999C136.294 81.2144 136.319 81.1288 136.373 81.0618C136.427 80.9949 136.506 80.9521 136.591 80.9428C136.677 80.9336 136.763 80.9586 136.83 81.0125L225.478 152.273C225.512 152.299 225.539 152.332 225.56 152.37C225.58 152.407 225.593 152.448 225.598 152.491C225.602 152.533 225.599 152.576 225.587 152.617C225.575 152.658 225.555 152.696 225.528 152.729C225.501 152.762 225.468 152.79 225.43 152.81C225.393 152.831 225.352 152.844 225.309 152.848C225.267 152.853 225.224 152.849 225.183 152.837C225.142 152.825 225.103 152.805 225.07 152.778Z" fill="#CCCCCC"/>
<path d="M220.172 158.842L131.524 87.5823C131.457 87.5283 131.414 87.4499 131.405 87.3643C131.395 87.2788 131.421 87.1931 131.475 87.126C131.529 87.059 131.607 87.0162 131.693 87.007C131.779 86.9978 131.865 87.0229 131.932 87.0769L220.58 158.337C220.614 158.364 220.641 158.397 220.662 158.434C220.682 158.472 220.695 158.513 220.7 158.555C220.704 158.597 220.7 158.64 220.688 158.681C220.676 158.722 220.656 158.76 220.629 158.793C220.603 158.826 220.57 158.854 220.532 158.874C220.495 158.895 220.453 158.908 220.411 158.912C220.369 158.917 220.326 158.913 220.285 158.901C220.244 158.889 220.205 158.869 220.172 158.842V158.842Z" fill="#CCCCCC"/>
<path d="M215.274 164.907L126.626 93.6467C126.593 93.62 126.565 93.587 126.545 93.5496C126.524 93.5122 126.511 93.4711 126.507 93.4288C126.502 93.3864 126.506 93.3435 126.518 93.3026C126.53 93.2618 126.55 93.2236 126.577 93.1904C126.604 93.1573 126.637 93.1297 126.674 93.1093C126.712 93.0888 126.753 93.076 126.795 93.0714C126.838 93.0669 126.881 93.0707 126.922 93.0827C126.963 93.0947 127.001 93.1146 127.034 93.1414L215.682 164.401C215.716 164.428 215.743 164.461 215.764 164.499C215.784 164.536 215.797 164.577 215.802 164.619C215.807 164.662 215.803 164.705 215.791 164.746C215.779 164.787 215.759 164.825 215.732 164.858C215.705 164.891 215.672 164.919 215.634 164.939C215.597 164.96 215.556 164.972 215.513 164.977C215.471 164.982 215.428 164.978 215.387 164.966C215.346 164.954 215.307 164.934 215.274 164.907Z" fill="#CCCCCC"/>
<path d="M241.675 175H0.325269C0.239002 175 0.156269 174.966 0.0952688 174.905C0.034269 174.844 0 174.762 0 174.675C0 174.589 0.034269 174.507 0.0952688 174.446C0.156269 174.385 0.239002 174.351 0.325269 174.351H241.675C241.761 174.351 241.844 174.385 241.905 174.446C241.966 174.507 242 174.589 242 174.675C242 174.762 241.966 174.844 241.905 174.905C241.844 174.966 241.761 175 241.675 175Z" fill="#CCCCCC"/>
<path d="M109.967 126.758L106.249 126.758L104.48 112.448L109.969 112.449L109.967 126.758Z" fill="#FFB8B8"/>
<path d="M103.592 125.698H110.764V130.203H99.0771C99.0771 129.611 99.1938 129.025 99.4208 128.479C99.6477 127.932 99.9803 127.435 100.4 127.017C100.819 126.599 101.317 126.267 101.864 126.041C102.412 125.814 102.999 125.698 103.592 125.698Z" fill="#2F2E41"/>
<path d="M71.9774 126.758L68.259 126.758L66.4905 112.448L71.9787 112.449L71.9774 126.758Z" fill="#FFB8B8"/>
<path d="M65.6028 125.698H72.7742V130.203H61.0874C61.0874 129.611 61.2042 129.025 61.4311 128.479C61.658 127.932 61.9906 127.435 62.4099 127.017C62.8292 126.599 63.327 126.267 63.8748 126.041C64.4226 125.814 65.0098 125.698 65.6028 125.698Z" fill="#2F2E41"/>
<path d="M84.3978 20.6167V18.9942C84.3978 16.2186 85.5029 13.5567 87.4702 11.5941C89.4374 9.63152 92.1056 8.52893 94.8877 8.52893H94.8877C97.6698 8.52893 100.338 9.63152 102.305 11.5941C104.272 13.5567 105.378 16.2186 105.378 18.9942V20.6167C105.378 22.6177 104.581 24.5367 103.163 25.9516C101.744 27.3665 99.8208 28.1614 97.8151 28.1614H91.9603C90.9672 28.1614 89.9838 27.9662 89.0662 27.5871C88.1487 27.2079 87.315 26.6522 86.6128 25.9516C85.9105 25.251 85.3535 24.4193 84.9734 23.5039C84.5934 22.5886 84.3978 21.6075 84.3978 20.6167Z" fill="#2F2E41"/>
<path d="M94.8877 28.7197C99.2999 28.7197 102.877 25.1513 102.877 20.7496C102.877 16.3478 99.2999 12.7794 94.8877 12.7794C90.4755 12.7794 86.8988 16.3478 86.8988 20.7496C86.8988 25.1513 90.4755 28.7197 94.8877 28.7197Z" fill="#FFB8B8"/>
<path d="M51.433 48.1419C51.7572 47.8365 52.1446 47.6057 52.5679 47.4658C52.9911 47.3259 53.44 47.2803 53.8828 47.3322C54.3257 47.3841 54.7518 47.5322 55.131 47.7662C55.5103 48.0001 55.8335 48.3141 56.0779 48.6862L62.9263 47.3938L64.7286 51.3542L55.0316 53.0438C54.3779 53.412 53.6115 53.5283 52.8777 53.3704C52.1438 53.2126 51.4935 52.7917 51.0499 52.1875C50.6063 51.5832 50.4003 50.8377 50.4709 50.092C50.5415 49.3464 50.8839 48.6525 51.433 48.1419V48.1419Z" fill="#FFB8B8"/>
<path d="M88.6594 33.739L88.7489 33.8744L77.5187 41.255L58.5691 47.2918C58.3179 47.3724 58.1025 47.5372 57.9594 47.7584C57.8164 47.9796 57.7546 48.2434 57.7846 48.5049L58.198 52.0571C58.2163 52.2143 58.2674 52.366 58.3479 52.5024C58.4284 52.6388 58.5366 52.7568 58.6655 52.8491C58.7945 52.9413 58.9413 53.0056 59.0966 53.0379C59.2519 53.0702 59.4123 53.0698 59.5674 53.0366L77.4018 49.2228C78.2649 49.0393 79.081 48.6808 79.7995 48.1697L92.416 39.2144C92.8734 38.888 93.2384 38.449 93.4754 37.9402C93.7124 37.4315 93.8134 36.8702 93.7686 36.3109C93.7223 35.7509 93.5307 35.2125 93.2127 34.7488C92.8946 34.285 92.461 33.9119 91.9545 33.666C91.448 33.4202 90.8861 33.3101 90.324 33.3467C89.762 33.3832 89.2191 33.5651 88.7489 33.8744L88.6594 33.739Z" fill="#CCCCCC"/>
<path d="M106.315 122.697C106.03 122.698 105.75 122.615 105.511 122.459C105.272 122.303 105.084 122.082 104.969 121.821L87.922 79.7974C87.8822 79.7063 87.8153 79.6295 87.7305 79.5774C87.6456 79.5252 87.5468 79.5003 87.4473 79.5059C87.3478 79.5115 87.2524 79.5473 87.1739 79.6086C87.0955 79.6699 87.0377 79.7537 87.0084 79.8488L73.1005 120.76C73.0418 120.95 72.9446 121.127 72.8151 121.278C72.6855 121.43 72.5262 121.554 72.347 121.641C72.1678 121.729 71.9725 121.78 71.7731 121.789C71.5737 121.799 71.3743 121.768 71.1874 121.698L66.5236 119.953C66.2704 119.86 66.0483 119.698 65.882 119.485C65.7156 119.273 65.6115 119.019 65.5812 118.751C63.4831 100.517 81.7796 54.49 81.9648 54.0273L82.016 53.8991L98.6948 57.5799L98.7295 57.6176C105.384 64.8598 110.853 110.538 111.882 119.622C111.921 119.95 111.846 120.281 111.67 120.561C111.494 120.841 111.228 121.053 110.916 121.162L106.799 122.614C106.644 122.669 106.48 122.697 106.315 122.697Z" fill="#2F2E41"/>
<path d="M91.9446 59.0614C87.9035 59.0614 83.3983 58.2576 82.0115 54.94L81.9796 54.8638L82.0227 54.7931C83.1173 53.0014 84.5641 49.9449 83.7865 49.3712C82.2547 48.2413 81.5114 46.3825 81.5774 43.8464C81.7207 38.3409 85.4808 33.4529 90.934 31.6832H90.9341C92.4563 31.1972 94.0053 30.7993 95.5734 30.4915C96.7166 30.2614 97.8967 30.2867 99.029 30.5656C100.161 30.8446 101.217 31.3702 102.122 32.1048C103.038 32.8443 103.778 33.7769 104.29 34.8356C104.801 35.8944 105.071 37.0531 105.081 38.2284C105.138 44.1119 104.23 52.3064 99.5795 57.9323C99.3616 58.1933 99.0583 58.3693 98.7231 58.4292C96.4859 58.8329 94.218 59.0444 91.9446 59.0614Z" fill="#CCCCCC"/>
<path d="M90.4413 58.8411C90.6613 58.0541 91.1836 57.3855 91.8949 56.9805C92.6062 56.5756 93.4489 56.4671 94.24 56.6786C94.4015 56.7236 94.559 56.7818 94.7109 56.8526L99.9109 52.1314L103.527 54.5621L96.091 61.1271C95.7552 61.731 95.2266 62.2057 94.5892 62.4754C93.9519 62.7451 93.2425 62.7944 92.5738 62.6154C92.1843 62.5091 91.8198 62.3267 91.5013 62.079C91.1829 61.8312 90.9168 61.523 90.7185 61.172C90.5202 60.821 90.3936 60.4343 90.346 60.0342C90.2985 59.6342 90.3309 59.2286 90.4413 58.8411Z" fill="#FFB8B8"/>
<path d="M99.0872 58.9011C98.7498 58.9013 98.4228 58.7849 98.1617 58.5716L96.1111 56.8998C95.9401 56.7605 95.803 56.5843 95.7099 56.3846C95.6169 56.1849 95.5703 55.9668 95.5738 55.7466C95.5772 55.5264 95.6305 55.3098 95.7297 55.113C95.8289 54.9163 95.9714 54.7444 96.1465 54.6104L104.747 48.0296C104.849 47.9512 104.916 47.8358 104.933 47.7086C104.951 47.5813 104.917 47.4524 104.839 47.3498L99.5309 40.3483C98.9142 39.5375 98.6048 38.5352 98.6576 37.5188C98.7105 36.5024 99.1221 35.5374 99.8196 34.7947C100.554 34.0032 101.56 33.5161 102.638 33.4301C103.716 33.3441 104.787 33.6654 105.638 34.3304L105.671 34.3657L111.215 42.2844C111.814 42.7532 112.297 43.354 112.625 44.0398C112.953 44.7255 113.118 45.4777 113.107 46.2375C113.095 46.9973 112.908 47.7442 112.56 48.4199C112.211 49.0956 111.711 49.6818 111.098 50.1327L99.9585 58.6147C99.7063 58.8007 99.4009 58.9011 99.0872 58.9011Z" fill="#CCCCCC"/>
<path d="M87.8113 18.5074V14.553L94.8877 11.4702L101.635 14.553V18.5074C101.635 18.6795 101.567 18.8446 101.445 18.9663C101.323 19.088 101.157 19.1564 100.985 19.1564H88.4618C88.2893 19.1564 88.1238 19.088 88.0018 18.9663C87.8798 18.8446 87.8113 18.6795 87.8113 18.5074Z" fill="#2F2E41"/>
<path d="M94.5628 9.05352C93.5224 5.73108 95.7076 1.92342 98.938 0.608317C102.168 -0.706787 106.033 0.212511 108.759 2.38526C111.485 4.55801 113.176 7.81238 114.072 11.1764C114.968 14.5405 115.138 18.0484 115.304 21.5253C119.273 22.2526 121.973 26.9491 120.598 30.7341C119.223 34.5192 114.134 36.3996 110.619 34.4212C107.105 32.4429 106.087 27.1249 108.623 23.9938C109.824 22.5122 110.494 20.6734 110.528 18.7688C110.563 16.8641 109.96 15.0024 108.814 13.4786C107.668 11.9547 106.045 10.8558 104.203 10.3558C102.36 9.85585 100.403 9.98346 98.6415 10.7184C96.6854 11.5345 94.231 9.41412 94.5628 9.05352Z" fill="#2F2E41"/>
<path d="M49.9659 32.8017C45.2139 32.7706 40.5214 31.7452 36.1914 29.792C35.9336 29.6774 35.7148 29.4904 35.5617 29.254C35.4085 29.0175 35.3276 28.7417 35.3288 28.4602V16.6425C35.3292 16.2553 35.4836 15.8841 35.758 15.6104C36.0324 15.3366 36.4045 15.1826 36.7925 15.1822H63.1393C63.5274 15.1826 63.8994 15.3366 64.1738 15.6104C64.4482 15.8841 64.6026 16.2553 64.603 16.6425V28.4602C64.6042 28.7417 64.5233 29.0175 64.3701 29.254C64.217 29.4904 63.9982 29.6774 63.7404 29.792C59.4104 31.7453 54.7179 32.7706 49.9659 32.8017Z" fill="#007FC7"/>
<path d="M49.9623 23.2279C49.767 23.2281 49.5736 23.1893 49.3935 23.1138L28.5009 14.3199C28.2314 14.2065 28.0022 14.0152 27.8428 13.7707C27.6834 13.5261 27.601 13.2395 27.6064 12.9478C27.6117 12.6561 27.7046 12.3727 27.8729 12.1342C28.0412 11.8956 28.2772 11.7128 28.5507 11.6093L49.4436 3.70193C49.7801 3.57398 50.1522 3.57477 50.4881 3.70414L71.1011 11.6115C71.3729 11.7158 71.6074 11.8987 71.7745 12.1367C71.9416 12.3747 72.0338 12.657 72.0392 12.9475C72.0445 13.2381 71.9629 13.5236 71.8047 13.7676C71.6466 14.0116 71.419 14.203 71.1512 14.3172L50.538 23.111C50.356 23.1883 50.1601 23.2281 49.9623 23.2279Z" fill="#007FC7"/>
<path d="M37.7683 30.5961C38.8462 30.5961 39.7199 29.7244 39.7199 28.6491C39.7199 27.5738 38.8462 26.7021 37.7683 26.7021C36.6905 26.7021 35.8167 27.5738 35.8167 28.6491C35.8167 29.7244 36.6905 30.5961 37.7683 30.5961Z" fill="#3F3D56"/>
<path opacity="0.2" d="M71.2224 13.069L50.6091 21.8627C50.4484 21.9313 50.2755 21.9668 50.1007 21.9673C49.926 21.9677 49.7529 21.933 49.5919 21.8652L28.6992 13.0715C28.4368 12.9637 28.2179 12.7718 28.0771 12.526C27.985 12.6854 27.9279 12.8625 27.9096 13.0456C27.8914 13.2286 27.9124 13.4135 27.9712 13.5878C28.0301 13.7622 28.1254 13.9221 28.2509 14.0568C28.3764 14.1916 28.5292 14.2982 28.6992 14.3696L49.5919 23.1632C49.7529 23.231 49.926 23.2657 50.1007 23.2653C50.2755 23.2649 50.4484 23.2293 50.6091 23.1607L71.2224 14.367C71.3915 14.295 71.5434 14.1881 71.6681 14.0532C71.7927 13.9184 71.8873 13.7587 71.9455 13.5847C72.0037 13.4108 72.0243 13.2264 72.0059 13.0439C71.9875 12.8614 71.9305 12.6849 71.8386 12.526C71.6988 12.7698 71.4822 12.9607 71.2224 13.069Z" fill="black"/>
<path d="M37.9323 28.6414C38.0186 28.6414 38.1013 28.6073 38.1623 28.5464C38.2233 28.4855 38.2576 28.403 38.2576 28.3169V17.4586L48.9853 13.5597C49.0716 13.5609 49.1548 13.528 49.2167 13.468C49.2786 13.4081 49.3141 13.326 49.3154 13.24C49.3167 13.1539 49.2837 13.0709 49.2236 13.0091C49.1635 12.9473 49.0813 12.9119 48.995 12.9106L38.2673 16.8096C38.1809 16.8076 38.0951 16.8231 38.015 16.8552C37.9348 16.8873 37.862 16.9353 37.801 16.9962C37.7394 17.0565 37.6904 17.1284 37.6571 17.2078C37.6238 17.2872 37.6068 17.3725 37.607 17.4586V28.3169C37.607 28.403 37.6413 28.4855 37.7023 28.5464C37.7633 28.6072 37.846 28.6414 37.9323 28.6414Z" fill="#3F3D56"/>
</svg>
