<svg width="34" height="34" viewBox="0 0 34 34" fill="none" xmlns="http://www.w3.org/2000/svg">
<path opacity="0.35" d="M17.68 32.64C9.43089 32.64 2.71997 25.9291 2.71997 17.68C2.71997 9.43092 9.43089 2.72 17.68 2.72C21.4261 2.72 25.0111 4.1123 27.7742 6.63986C28.204 7.03256 28.4655 7.59288 28.4903 8.17598C28.5151 8.75806 28.3033 9.3381 27.9089 9.76718L25.0093 12.9186L30.1736 12.9176C31.2205 12.9176 32.1313 13.6619 32.3398 14.6873C32.539 15.6675 32.64 16.6746 32.64 17.68C32.64 25.9291 25.9291 32.64 17.68 32.64Z" fill="black"/>
<path d="M17 31.96C8.7509 31.96 2.03998 25.2491 2.03998 17C2.03998 8.75093 8.7509 2.04001 17 2.04001C20.7461 2.04001 24.3311 3.43231 27.0942 5.95987C27.524 6.35257 27.7855 6.91289 27.8103 7.49599C27.8351 8.07807 27.6233 8.65811 27.2289 9.08719L24.3294 12.2386L29.4936 12.2376C30.5405 12.2376 31.4513 12.9819 31.6598 14.0073C31.859 14.9875 31.96 15.9946 31.96 17C31.96 25.2491 25.2491 31.96 17 31.96Z" fill="#F2F2F2"/>
<path d="M29.477 14.534H28.4495V14.4809H16.9677V19.584H24.1774C23.1254 22.5546 20.299 24.6871 16.9673 24.6871C12.7401 24.6871 9.31293 21.2599 9.31293 17.0326C9.31293 12.8054 12.7401 9.37821 16.9673 9.37821C18.9186 9.37821 20.6937 10.1143 22.0456 11.3169L25.6543 7.70779C23.3757 5.58415 20.3279 4.27481 16.9677 4.27481C9.92221 4.27481 4.21021 9.98715 4.21021 17.0323C4.21021 24.0774 9.92254 29.7898 16.9677 29.7898C24.0128 29.7898 29.7252 24.0774 29.7252 17.0323C29.7252 16.1772 29.6371 15.3422 29.477 14.534Z" fill="#F9B84F"/>
<path d="M5.68073 11.0945L9.87224 14.1685C11.0065 11.3604 13.753 9.37787 16.9674 9.37787C18.9186 9.37787 20.6938 10.114 22.0456 11.3166L25.6544 7.70779C23.3757 5.58415 20.3279 4.27481 16.9677 4.27481C12.0673 4.27481 7.81763 7.04139 5.68073 11.0945Z" fill="#F4665C"/>
<path d="M16.9673 29.7901C20.2626 29.7901 23.257 28.5291 25.5207 26.4782L21.5723 23.137C20.2915 24.1074 18.6993 24.6871 16.9673 24.6871C13.6489 24.6871 10.8317 22.5712 9.77023 19.6183L5.60999 22.8239C7.72139 26.9552 12.0091 29.7901 16.9673 29.7901Z" fill="#96C362"/>
<path d="M29.477 14.534H28.4495V14.4809H16.9677V19.584H24.1774C23.6722 21.011 22.7542 22.2414 21.5703 23.1377C21.571 23.137 21.5717 23.137 21.5723 23.1363L25.5208 26.4775C25.2413 26.7315 29.7252 23.411 29.7252 17.0323C29.7252 16.1772 29.6371 15.3421 29.477 14.534Z" fill="#2785BD"/>
<path d="M29.494 14.4473L16.83 14.45V19.55H24.2131C23.1628 22.5209 20.3306 24.65 17 24.65C12.7752 24.65 9.35 21.2248 9.35 17C9.35 12.7752 12.7752 9.35 17 9.35C18.9836 9.35 20.7907 10.1051 22.15 11.3431L25.6027 7.59016C23.3349 5.51616 20.3153 4.25 17 4.25C9.95826 4.25 4.25 9.95826 4.25 17C4.25 24.0417 9.95826 29.75 17 29.75C24.0417 29.75 29.75 24.0417 29.75 17C29.75 16.1259 29.6616 15.2721 29.494 14.4473Z" stroke="#40396E" stroke-width="3" stroke-miterlimit="10" stroke-linecap="round" stroke-linejoin="round"/>
</svg>
