<svg width="284" height="131" viewBox="0 0 284 131" fill="none" xmlns="http://www.w3.org/2000/svg">
<g clip-path="url(#clip0_38_224)">
<path d="M60.2284 123.71C53.4285 119.28 48.4843 111.315 49.4962 103.263C55.6191 109.619 63.7934 113.606 72.5726 114.516C75.9597 114.855 79.7623 114.879 82.1676 117.288C83.6643 118.786 84.3002 120.976 84.3329 123.094C84.3656 125.211 83.8568 127.295 83.3512 129.352L83.4754 129.866C75.3645 129.566 67.0283 128.141 60.2284 123.71Z" fill="#F0F0F0"/>
<path d="M49.6665 103.261C52.2102 109.478 56.6484 114.736 62.3507 118.288C63.5647 119.074 64.8951 119.664 66.2929 120.036C67.6663 120.355 69.0998 120.3 70.4447 119.877C71.7066 119.508 72.9546 118.984 74.2843 118.928C74.9653 118.91 75.6426 119.035 76.2717 119.297C76.9007 119.558 77.4674 119.95 77.9345 120.446C79.1306 121.651 79.8222 123.214 80.4454 124.766C81.1373 126.49 81.8287 128.29 83.2379 129.567C83.4086 129.721 83.1586 129.977 82.9882 129.823C80.5364 127.602 80.2665 124.039 78.3393 121.463C77.44 120.261 76.173 119.322 74.624 119.283C73.2695 119.248 71.982 119.787 70.7076 120.172C69.4016 120.603 68.0099 120.709 66.6538 120.479C65.2416 120.179 63.8907 119.641 62.6589 118.888C59.8588 117.237 57.3357 115.156 55.1821 112.722C52.7088 109.957 50.7267 106.79 49.3216 103.356C49.2347 103.144 49.5802 103.05 49.6665 103.261H49.6665Z" fill="white"/>
<path d="M60.4473 117.252C59.7214 118.128 58.7079 118.717 57.5877 118.915C56.4675 119.112 55.3136 118.905 54.332 118.33C54.1337 118.213 54.3062 117.9 54.5047 118.017C55.4178 118.554 56.4927 118.747 57.5355 118.561C58.5782 118.374 59.5201 117.822 60.1911 117.002C60.3372 116.824 60.5925 117.075 60.4473 117.252V117.252Z" fill="white"/>
<path d="M69.8295 120.148C69.6334 117.831 68.5712 115.674 66.8547 114.105C66.6845 113.95 66.9345 113.694 67.1044 113.849C68.8876 115.485 69.9885 117.732 70.1872 120.144C70.206 120.373 69.8482 120.377 69.8295 120.148Z" fill="white"/>
<path d="M53.1588 109.807C53.5103 109.527 53.7866 109.164 53.9629 108.75C54.1393 108.337 54.2102 107.886 54.1692 107.438C54.1476 107.209 54.5054 107.206 54.5269 107.434C54.5699 107.929 54.491 108.427 54.2971 108.884C54.1033 109.341 53.8004 109.744 53.4149 110.057C53.3811 110.09 53.3361 110.108 53.2891 110.109C53.2421 110.109 53.1967 110.092 53.162 110.06C53.1283 110.027 53.109 109.982 53.1084 109.935C53.1078 109.887 53.1259 109.841 53.1588 109.807Z" fill="white"/>
<path d="M72.6912 88.5282C72.7088 88.6711 72.7264 88.814 72.7467 88.9584C72.9936 90.8785 73.3961 92.7753 73.9501 94.6303C73.9907 94.7744 74.034 94.9198 74.0786 95.0624C75.4612 99.5171 77.6589 103.676 80.56 107.329C81.7158 108.781 82.9804 110.144 84.3429 111.404C86.2247 113.145 88.4035 114.883 89.566 117.079C89.6898 117.306 89.7995 117.542 89.8942 117.783L84.0928 129.674C84.066 129.695 84.0419 129.717 84.0151 129.737L83.8052 130.223C83.7304 130.163 83.6541 130.099 83.5793 130.039C83.5357 130.004 83.4935 129.966 83.4499 129.932C83.4213 129.908 83.3927 129.884 83.3655 129.864C83.356 129.856 83.3465 129.848 83.3396 129.841C83.3124 129.821 83.2893 129.8 83.2648 129.781C82.8373 129.425 82.4116 129.065 81.9877 128.701C81.985 128.7 81.985 128.7 81.9835 128.696C78.7603 125.918 75.7406 122.847 73.2833 119.415C73.2094 119.311 73.1327 119.207 73.0614 119.098C71.9623 117.545 70.992 115.905 70.1602 114.193C69.7078 113.255 69.3031 112.294 68.9478 111.315C68.0347 108.783 67.5256 106.122 67.4392 103.432C67.2678 98.0683 68.8138 92.7096 72.4133 88.8225C72.5054 88.7231 72.5963 88.6263 72.6912 88.5282Z" fill="#F0F0F0"/>
<path d="M72.8291 88.6286C71.1165 95.1238 71.4942 101.994 73.9087 108.262C74.4046 109.621 75.1115 110.893 76.0035 112.031C76.9082 113.112 78.086 113.931 79.4144 114.403C80.6442 114.868 81.956 115.201 83.0513 115.957C83.6062 116.352 84.0713 116.86 84.4161 117.448C84.7609 118.035 84.9776 118.689 85.052 119.366C85.2812 121.049 84.8921 122.713 84.4551 124.327C83.9699 126.12 83.4375 127.974 83.7941 129.842C83.8373 130.068 83.4836 130.122 83.4405 129.896C82.8201 126.647 84.75 123.639 84.7626 120.422C84.7684 118.921 84.3219 117.409 83.109 116.445C82.0483 115.602 80.6959 115.257 79.4467 114.797C78.144 114.356 76.9693 113.602 76.0251 112.602C75.078 111.512 74.3232 110.27 73.7931 108.927C72.5515 105.923 71.7899 102.743 71.5363 99.5027C71.2263 95.8062 71.5511 92.0839 72.4965 88.4969C72.5551 88.2749 72.8874 88.408 72.8291 88.6286Z" fill="white"/>
<path d="M73.0125 106.289C71.9056 106.551 70.7416 106.412 69.7282 105.895C68.7149 105.379 67.9182 104.519 67.4804 103.469C67.3926 103.256 67.7191 103.11 67.807 103.323C68.2128 104.301 68.955 105.102 69.8997 105.581C70.8443 106.06 71.9291 106.186 72.9583 105.936C73.182 105.882 73.2349 106.235 73.0125 106.289V106.289Z" fill="white"/>
<path d="M78.7598 114.25C79.9982 112.282 80.4493 109.92 80.0232 107.634C79.9808 107.408 80.3344 107.354 80.3768 107.58C80.8158 109.959 80.3413 112.416 79.0481 114.461C78.9247 114.656 78.6371 114.443 78.7598 114.25Z" fill="white"/>
<path d="M71.6758 95.9575C72.1252 95.9453 72.5646 95.8216 72.9544 95.5976C73.3442 95.3737 73.6722 95.0564 73.9091 94.6743C74.0299 94.478 74.3175 94.691 74.1974 94.886C73.9337 95.3069 73.571 95.6569 73.1409 95.9053C72.7108 96.1537 72.2264 96.293 71.73 96.3111C71.6833 96.3167 71.6363 96.3043 71.5984 96.2765C71.5606 96.2487 71.5347 96.2076 71.5261 96.1614C71.5192 96.1145 71.531 96.0668 71.559 96.0287C71.5871 95.9905 71.6291 95.9649 71.6758 95.9575H71.6758Z" fill="white"/>
<path d="M267.746 123.71C274.546 119.28 279.49 111.315 278.478 103.263C272.355 109.619 264.181 113.606 255.402 114.516C252.015 114.855 248.212 114.879 245.807 117.288C244.31 118.786 243.674 120.976 243.641 123.094C243.609 125.211 244.118 127.295 244.623 129.352L244.499 129.866C252.61 129.566 260.946 128.141 267.746 123.71Z" fill="#F0F0F0"/>
<path d="M278.308 103.261C275.764 109.478 271.326 114.736 265.624 118.288C264.41 119.074 263.079 119.664 261.681 120.036C260.308 120.355 258.875 120.3 257.53 119.877C256.268 119.508 255.02 118.984 253.69 118.928C253.009 118.91 252.332 119.035 251.703 119.297C251.074 119.558 250.507 119.95 250.04 120.446C248.844 121.651 248.152 123.214 247.529 124.766C246.837 126.49 246.146 128.29 244.736 129.567C244.566 129.721 244.816 129.977 244.986 129.823C247.438 127.602 247.708 124.039 249.635 121.463C250.534 120.261 251.801 119.322 253.35 119.283C254.705 119.248 255.992 119.787 257.267 120.172C258.573 120.603 259.965 120.709 261.321 120.479C262.733 120.179 264.084 119.641 265.315 118.888C268.116 117.237 270.639 115.156 272.792 112.722C275.266 109.957 277.248 106.79 278.653 103.356C278.74 103.144 278.394 103.05 278.308 103.261H278.308Z" fill="white"/>
<path d="M267.527 117.252C268.253 118.128 269.266 118.717 270.387 118.915C271.507 119.112 272.661 118.905 273.642 118.33C273.841 118.213 273.668 117.9 273.47 118.017C272.557 118.554 271.482 118.747 270.439 118.561C269.396 118.374 268.454 117.822 267.783 117.002C267.637 116.824 267.382 117.075 267.527 117.252V117.252Z" fill="white"/>
<path d="M258.145 120.148C258.341 117.831 259.403 115.674 261.12 114.105C261.29 113.95 261.04 113.694 260.87 113.849C259.087 115.485 257.986 117.732 257.787 120.144C257.768 120.373 258.126 120.377 258.145 120.148Z" fill="white"/>
<path d="M274.816 109.807C274.464 109.527 274.188 109.164 274.011 108.75C273.835 108.337 273.764 107.886 273.805 107.438C273.827 107.209 273.469 107.206 273.447 107.434C273.404 107.929 273.483 108.427 273.677 108.884C273.871 109.341 274.174 109.744 274.559 110.057C274.593 110.09 274.638 110.108 274.685 110.109C274.732 110.109 274.778 110.092 274.812 110.06C274.846 110.027 274.865 109.982 274.866 109.935C274.867 109.887 274.848 109.841 274.816 109.807Z" fill="white"/>
<path d="M255.283 88.5282C255.266 88.6711 255.248 88.814 255.228 88.9584C254.981 90.8785 254.578 92.7753 254.024 94.6303C253.984 94.7744 253.94 94.9198 253.896 95.0624C252.513 99.5171 250.315 103.676 247.414 107.329C246.259 108.781 244.994 110.144 243.631 111.404C241.75 113.145 239.571 114.883 238.408 117.079C238.285 117.306 238.175 117.542 238.08 117.783L243.882 129.674C243.908 129.695 243.932 129.717 243.959 129.737L244.169 130.223C244.244 130.163 244.32 130.099 244.395 130.039C244.439 130.004 244.481 129.966 244.524 129.932C244.553 129.908 244.582 129.884 244.609 129.864C244.618 129.856 244.628 129.848 244.635 129.841C244.662 129.821 244.685 129.8 244.71 129.781C245.137 129.425 245.563 129.065 245.987 128.701C245.989 128.7 245.989 128.7 245.991 128.696C249.214 125.918 252.234 122.847 254.691 119.415C254.765 119.311 254.842 119.207 254.913 119.098C256.012 117.545 256.982 115.905 257.814 114.193C258.267 113.255 258.671 112.294 259.027 111.315C259.94 108.783 260.449 106.122 260.535 103.432C260.707 98.0683 259.161 92.7096 255.561 88.8225C255.469 88.7231 255.378 88.6263 255.283 88.5282Z" fill="#F0F0F0"/>
<path d="M255.145 88.6286C256.858 95.1238 256.48 101.994 254.066 108.262C253.57 109.621 252.863 110.893 251.971 112.031C251.066 113.112 249.888 113.931 248.56 114.403C247.33 114.868 246.018 115.201 244.923 115.957C244.368 116.352 243.903 116.86 243.558 117.448C243.213 118.035 242.997 118.689 242.922 119.366C242.693 121.049 243.082 122.713 243.519 124.327C244.004 126.12 244.537 127.974 244.18 129.842C244.137 130.068 244.491 130.122 244.534 129.896C245.154 126.647 243.224 123.639 243.212 120.422C243.206 118.921 243.653 117.409 244.865 116.445C245.926 115.602 247.278 115.257 248.528 114.797C249.83 114.356 251.005 113.602 251.949 112.602C252.896 111.512 253.651 110.27 254.181 108.927C255.423 105.923 256.185 102.743 256.438 99.5027C256.748 95.8062 256.423 92.0839 255.478 88.4969C255.419 88.2749 255.087 88.408 255.145 88.6286Z" fill="white"/>
<path d="M254.962 106.289C256.069 106.551 257.233 106.412 258.246 105.895C259.259 105.379 260.056 104.519 260.494 103.469C260.582 103.256 260.255 103.11 260.167 103.323C259.762 104.301 259.019 105.102 258.075 105.581C257.13 106.06 256.045 106.186 255.016 105.936C254.792 105.882 254.739 106.235 254.962 106.289V106.289Z" fill="white"/>
<path d="M249.215 114.25C247.976 112.282 247.525 109.92 247.951 107.634C247.994 107.408 247.64 107.354 247.598 107.58C247.159 109.959 247.633 112.416 248.926 114.461C249.05 114.656 249.337 114.443 249.215 114.25Z" fill="white"/>
<path d="M256.299 95.9575C255.849 95.9453 255.41 95.8216 255.02 95.5976C254.63 95.3737 254.302 95.0564 254.065 94.6743C253.944 94.478 253.657 94.691 253.777 94.886C254.041 95.3069 254.403 95.6569 254.834 95.9053C255.264 96.1537 255.748 96.293 256.244 96.3111C256.291 96.3167 256.338 96.3043 256.376 96.2765C256.414 96.2487 256.44 96.2076 256.448 96.1614C256.455 96.1145 256.443 96.0668 256.415 96.0287C256.387 95.9905 256.345 95.9649 256.299 95.9575H256.299Z" fill="white"/>
<path d="M73.6215 84.6368C73.3642 84.4819 73.144 84.2726 72.9764 84.0235C72.8088 83.7744 72.6978 83.4916 72.6514 83.1949C72.6049 82.8983 72.6241 82.5951 72.7075 82.3067C72.7909 82.0183 72.9365 81.7517 73.1342 81.5256L69.517 75.1866L73.3021 75.4311L76.1567 81.4133C76.5145 81.7704 76.7289 82.2463 76.7592 82.7509C76.7895 83.2555 76.6336 83.7536 76.3211 84.151C76.0086 84.5483 75.5611 84.8172 75.0636 84.9068C74.566 84.9963 74.0529 84.9002 73.6215 84.6368Z" fill="#FFB6B6"/>
<path d="M45.7766 127.85H48.281L49.4723 118.193L45.7763 118.193L45.7766 127.85Z" fill="#FFB6B6"/>
<path d="M45.138 127.033L50.0696 127.033H50.0698C50.9033 127.033 51.7026 127.364 52.292 127.953C52.8814 128.542 53.2125 129.342 53.2126 130.175V130.277L45.1381 130.277L45.138 127.033Z" fill="#2F2E41"/>
<path d="M62.9345 127.85H65.4386L66.6299 118.193L62.9339 118.193L62.9345 127.85Z" fill="#FFB6B6"/>
<path d="M62.2956 127.033L67.2272 127.033H67.2274C68.0609 127.033 68.8602 127.364 69.4496 127.953C70.039 128.542 70.3701 129.342 70.3702 130.175V130.277L62.2957 130.277L62.2956 127.033Z" fill="#2F2E41"/>
<path d="M69.3736 75.459C69.3736 75.459 70.0624 85.2664 68.7058 90.2057C67.3493 95.1449 67.107 125.015 67.107 125.015H62.5599L58.6188 84.3556L49.5329 125.158L45.2018 124.86L47.5771 76.78L69.3736 75.459Z" fill="#2F2E41"/>
<path d="M49.4561 42.3987L52.9323 39.8624L58.7571 41.1306L60.3339 44.8766L63.0508 46.2235C63.9441 46.6664 64.7166 47.3195 65.3018 48.1268C65.8869 48.934 66.2673 49.8713 66.4102 50.858L70.2917 77.658L47.577 76.7801L44.8271 45.2178C44.7984 44.8881 44.8361 44.556 44.9381 44.2411C45.04 43.9263 45.204 43.635 45.4205 43.3847C45.637 43.1343 45.9015 42.93 46.1984 42.7836C46.4953 42.6373 46.8185 42.552 47.1489 42.5328L49.4561 42.3987Z" fill="#3F3D56"/>
<path d="M64.4882 48.317L66.5861 51.1446L75.7238 79.0108L71.4406 80.7254L64.5821 67.7405L64.4882 48.317Z" fill="#3F3D56"/>
<path d="M56.8833 38.5383C59.6853 38.5383 61.9567 36.2671 61.9567 33.4656C61.9567 30.664 59.6853 28.3929 56.8833 28.3929C54.0814 28.3929 51.81 30.664 51.81 33.4656C51.81 36.2671 54.0814 38.5383 56.8833 38.5383Z" fill="#FFB9B9"/>
<path opacity="0.1" d="M45.8234 54.3357L54.1024 65.849L63.3566 71.8828L45.8234 54.3357Z" fill="black"/>
<path d="M54.1946 37.1327C53.8417 36.4282 53.4787 35.6614 53.6136 34.8851C53.7485 34.1088 54.6394 33.4325 55.327 33.8173C55.6123 32.7864 56.8752 32.3353 57.9384 32.4543C59.0015 32.5733 59.9803 33.086 61.0272 33.3061C62.0741 33.5262 63.3454 33.3516 63.9112 32.4439L62.5574 32.4204L63.9672 30.7855L62.333 30.6633C62.8991 30.0525 62.7487 29.0147 62.2007 28.3877C61.6528 27.7606 60.8212 27.464 60.0098 27.2763C58.3901 26.903 56.7111 26.8644 55.0759 27.1629C54.3049 27.2818 53.562 27.5403 52.8838 27.9257C52.2451 28.3152 51.7174 28.8624 51.3513 29.5147C50.9564 30.2506 50.7429 31.0703 50.7287 31.9053C50.7046 33.0239 50.9616 34.1306 51.4763 35.1241C51.991 36.1176 52.7468 36.966 53.6745 37.5916" fill="#2F2E41"/>
<path d="M243.09 130.408H85.6473C84.026 130.406 82.4715 129.761 81.325 128.615C80.1785 127.468 79.5336 125.914 79.5317 124.293V6.11463C79.5336 4.49347 80.1785 2.93925 81.325 1.79293C82.4715 0.646614 84.026 0.00182002 85.6473 0H243.09C244.712 0.00184879 246.266 0.646658 247.413 1.79297C248.559 2.93929 249.204 4.4935 249.206 6.11463V124.293C249.204 125.914 248.559 127.468 247.413 128.615C246.266 129.761 244.712 130.406 243.09 130.408Z" fill="#E4E4E4"/>
<path d="M203.465 54.261H179.161C177.96 54.261 176.808 53.784 175.959 52.9348C175.11 52.0856 174.632 50.9339 174.632 49.733C174.632 48.5321 175.11 47.3804 175.959 46.5312C176.808 45.682 177.96 45.205 179.161 45.205H203.465C204.666 45.205 205.818 45.682 206.667 46.5312C207.517 47.3804 207.994 48.5321 207.994 49.733C207.994 50.9339 207.517 52.0856 206.667 52.9348C205.818 53.784 204.666 54.261 203.465 54.261Z" fill="white"/>
<path d="M182.18 66.6377H176.444C176.004 66.6377 175.581 66.4628 175.27 66.1514C174.958 65.8401 174.783 65.4178 174.783 64.9774C174.783 64.5371 174.958 64.1148 175.27 63.8034C175.581 63.4921 176.004 63.3171 176.444 63.3171H182.18C182.621 63.3171 183.043 63.4921 183.354 63.8034C183.666 64.1148 183.841 64.5371 183.841 64.9774C183.841 65.4178 183.666 65.8401 183.354 66.1514C183.043 66.4628 182.621 66.6377 182.18 66.6377Z" fill="white"/>
<path d="M206.031 66.6377H200.295C199.855 66.6377 199.432 66.4628 199.121 66.1514C198.809 65.8401 198.634 65.4178 198.634 64.9774C198.634 64.5371 198.809 64.1148 199.121 63.8034C199.432 63.4921 199.855 63.3171 200.295 63.3171H206.031C206.472 63.3171 206.894 63.4921 207.205 63.8034C207.517 64.1148 207.692 64.5371 207.692 64.9774C207.692 65.4178 207.517 65.8401 207.205 66.1514C206.894 66.4628 206.472 66.6377 206.031 66.6377Z" fill="white"/>
<path d="M193.955 66.6377H188.218C187.778 66.6377 187.356 66.4628 187.044 66.1514C186.733 65.8401 186.558 65.4178 186.558 64.9774C186.558 64.5371 186.733 64.1148 187.044 63.8034C187.356 63.4921 187.778 63.3171 188.218 63.3171H193.955C194.395 63.3171 194.818 63.4921 195.129 63.8034C195.44 64.1148 195.615 64.5371 195.615 64.9774C195.615 65.4178 195.44 65.8401 195.129 66.1514C194.818 66.4628 194.395 66.6377 193.955 66.6377Z" fill="white"/>
<path d="M182.18 72.9769H176.444C176.004 72.9769 175.581 72.802 175.27 72.4907C174.958 72.1793 174.783 71.757 174.783 71.3167C174.783 70.8763 174.958 70.454 175.27 70.1427C175.581 69.8313 176.004 69.6564 176.444 69.6564H182.18C182.621 69.6564 183.043 69.8313 183.354 70.1427C183.666 70.454 183.841 70.8763 183.841 71.3167C183.841 71.757 183.666 72.1793 183.354 72.4907C183.043 72.802 182.621 72.9769 182.18 72.9769Z" fill="white"/>
<path d="M206.031 72.9769H200.295C199.855 72.9769 199.432 72.802 199.121 72.4907C198.809 72.1793 198.634 71.757 198.634 71.3167C198.634 70.8763 198.809 70.454 199.121 70.1427C199.432 69.8313 199.855 69.6564 200.295 69.6564H206.031C206.472 69.6564 206.894 69.8313 207.205 70.1427C207.517 70.454 207.692 70.8763 207.692 71.3167C207.692 71.757 207.517 72.1793 207.205 72.4907C206.894 72.802 206.472 72.9769 206.031 72.9769Z" fill="white"/>
<path d="M193.955 72.9769H188.218C187.778 72.9769 187.356 72.802 187.044 72.4907C186.733 72.1793 186.558 71.757 186.558 71.3167C186.558 70.8763 186.733 70.454 187.044 70.1427C187.356 69.8313 187.778 69.6564 188.218 69.6564H193.955C194.395 69.6564 194.818 69.8313 195.129 70.1427C195.44 70.454 195.615 70.8763 195.615 71.3167C195.615 71.757 195.44 72.1793 195.129 72.4907C194.818 72.802 194.395 72.9769 193.955 72.9769Z" fill="white"/>
<path d="M182.18 79.3162H176.444C176.004 79.3162 175.581 79.1413 175.27 78.8299C174.958 78.5185 174.783 78.0962 174.783 77.6559C174.783 77.2156 174.958 76.7933 175.27 76.4819C175.581 76.1705 176.004 75.9956 176.444 75.9956H182.18C182.621 75.9956 183.043 76.1705 183.354 76.4819C183.666 76.7933 183.841 77.2156 183.841 77.6559C183.841 78.0962 183.666 78.5185 183.354 78.8299C183.043 79.1413 182.621 79.3162 182.18 79.3162Z" fill="white"/>
<path d="M206.031 79.3162H200.295C199.855 79.3162 199.432 79.1413 199.121 78.8299C198.809 78.5185 198.634 78.0962 198.634 77.6559C198.634 77.2156 198.809 76.7933 199.121 76.4819C199.432 76.1705 199.855 75.9956 200.295 75.9956H206.031C206.472 75.9956 206.894 76.1705 207.205 76.4819C207.517 76.7933 207.692 77.2156 207.692 77.6559C207.692 78.0962 207.517 78.5185 207.205 78.8299C206.894 79.1413 206.472 79.3162 206.031 79.3162Z" fill="white"/>
<path d="M193.955 79.3162H188.218C187.778 79.3162 187.356 79.1413 187.044 78.8299C186.733 78.5185 186.558 78.0962 186.558 77.6559C186.558 77.2156 186.733 76.7933 187.044 76.4819C187.356 76.1705 187.778 75.9956 188.218 75.9956H193.955C194.395 75.9956 194.818 76.1705 195.129 76.4819C195.44 76.7933 195.615 77.2156 195.615 77.6559C195.615 78.0962 195.44 78.5185 195.129 78.8299C194.818 79.1413 194.395 79.3162 193.955 79.3162Z" fill="white"/>
<path d="M182.18 85.6555H176.444C176.004 85.6555 175.581 85.4806 175.27 85.1692C174.958 84.8579 174.783 84.4356 174.783 83.9952C174.783 83.5549 174.958 83.1326 175.27 82.8213C175.581 82.5099 176.004 82.335 176.444 82.335H182.18C182.621 82.335 183.043 82.5099 183.354 82.8213C183.666 83.1326 183.841 83.5549 183.841 83.9952C183.841 84.4356 183.666 84.8579 183.354 85.1692C183.043 85.4806 182.621 85.6555 182.18 85.6555Z" fill="white"/>
<path d="M206.031 85.6555H200.295C199.855 85.6555 199.432 85.4806 199.121 85.1692C198.809 84.8579 198.634 84.4356 198.634 83.9952C198.634 83.5549 198.809 83.1326 199.121 82.8213C199.432 82.5099 199.855 82.335 200.295 82.335H206.031C206.472 82.335 206.894 82.5099 207.205 82.8213C207.517 83.1326 207.692 83.5549 207.692 83.9952C207.692 84.4356 207.517 84.8579 207.205 85.1692C206.894 85.4806 206.472 85.6555 206.031 85.6555Z" fill="white"/>
<path d="M193.955 85.6555H188.218C187.778 85.6555 187.356 85.4806 187.044 85.1692C186.733 84.8579 186.558 84.4356 186.558 83.9952C186.558 83.5549 186.733 83.1326 187.044 82.8213C187.356 82.5099 187.778 82.335 188.218 82.335H193.955C194.395 82.335 194.818 82.5099 195.129 82.8213C195.44 83.1326 195.615 83.5549 195.615 83.9952C195.615 84.4356 195.44 84.8579 195.129 85.1692C194.818 85.4806 194.395 85.6555 193.955 85.6555Z" fill="white"/>
<path d="M143.385 79.0143C151.889 79.0143 158.782 72.1216 158.782 63.619C158.782 55.1164 151.889 48.2236 143.385 48.2236C134.881 48.2236 127.987 55.1164 127.987 63.619C127.987 72.1216 134.881 79.0143 143.385 79.0143Z" fill="#CACACA"/>
<path d="M143.385 82.4858C142.184 82.4844 141.033 82.0069 140.184 81.1581C139.335 80.3092 138.857 79.1582 138.856 77.9577V49.2801C138.856 48.6852 138.972 48.096 139.2 47.5462C139.427 46.9964 139.761 46.4968 140.181 46.0759C140.602 45.6551 141.101 45.3212 141.651 45.0934C142.201 44.8657 142.79 44.7484 143.385 44.7484C143.98 44.7484 144.569 44.8657 145.119 45.0934C145.668 45.3212 146.168 45.6551 146.588 46.0759C147.009 46.4968 147.342 46.9964 147.57 47.5462C147.797 48.096 147.914 48.6852 147.913 49.2801V77.9577C147.912 79.1582 147.434 80.3092 146.585 81.158C145.736 82.0069 144.585 82.4844 143.385 82.4858Z" fill="white"/>
<path d="M183.61 52.3167H179.383C179.223 52.3167 179.07 52.2531 178.957 52.1399C178.843 52.0267 178.78 51.8731 178.78 51.713C178.78 51.5529 178.843 51.3993 178.957 51.2861C179.07 51.1729 179.223 51.1093 179.383 51.1093H183.61C183.77 51.1093 183.924 51.1729 184.037 51.2861C184.15 51.3993 184.214 51.5529 184.214 51.713C184.214 51.8731 184.15 52.0267 184.037 52.1399C183.924 52.2531 183.77 52.3167 183.61 52.3167Z" fill="#E4E4E4"/>
<path d="M190.252 52.4676H186.025C185.865 52.4676 185.712 52.404 185.598 52.2908C185.485 52.1776 185.422 52.024 185.422 51.8639C185.422 51.7037 185.485 51.5502 185.598 51.437C185.712 51.3237 185.865 51.2601 186.025 51.2601H190.252C190.412 51.2601 190.566 51.3237 190.679 51.437C190.792 51.5502 190.856 51.7037 190.856 51.8639C190.856 52.024 190.792 52.1776 190.679 52.2908C190.566 52.404 190.412 52.4676 190.252 52.4676Z" fill="#E4E4E4"/>
<path d="M196.894 52.6186H192.668C192.507 52.6186 192.354 52.555 192.241 52.4418C192.127 52.3286 192.064 52.175 192.064 52.0149C192.064 51.8548 192.127 51.7012 192.241 51.588C192.354 51.4747 192.507 51.4111 192.668 51.4111H196.894C197.054 51.4111 197.208 51.4747 197.321 51.588C197.434 51.7012 197.498 51.8548 197.498 52.0149C197.498 52.175 197.434 52.3286 197.321 52.4418C197.208 52.555 197.054 52.6186 196.894 52.6186Z" fill="#E4E4E4"/>
<path d="M203.536 52.7695H199.31C199.149 52.7695 198.996 52.7059 198.883 52.5927C198.769 52.4794 198.706 52.3259 198.706 52.1658C198.706 52.0056 198.769 51.8521 198.883 51.7388C198.996 51.6256 199.149 51.562 199.31 51.562H203.536C203.696 51.562 203.85 51.6256 203.963 51.7388C204.077 51.8521 204.14 52.0056 204.14 52.1658C204.14 52.3259 204.077 52.4794 203.963 52.5927C203.85 52.7059 203.696 52.7695 203.536 52.7695Z" fill="#E4E4E4"/>
<path d="M99.6076 111.767C99.6073 112.514 99.7556 113.254 100.044 113.944C100.332 114.634 100.754 115.26 101.286 115.785H98.7923C98.0564 115.785 97.3278 115.64 96.648 115.358C95.9682 115.077 95.3505 114.664 94.8302 114.144C94.3099 113.624 93.8972 113.006 93.6156 112.326C93.334 111.647 93.1891 110.918 93.1891 110.182V19.3552C93.1891 18.6195 93.334 17.891 93.6156 17.2113C93.8972 16.5316 94.3099 15.9139 94.8302 15.3937C95.3505 14.8735 95.9682 14.4608 96.648 14.1793C97.3278 13.8977 98.0564 13.7528 98.7923 13.7528H102.422C101.566 14.2505 100.855 14.9641 100.361 15.8223C99.8677 16.6804 99.6078 17.6531 99.6076 18.6431L99.6076 111.767Z" fill="#CACACA"/>
<path d="M283.641 131H0.359478C0.264319 131 0.173153 130.962 0.105962 130.894C0.0387711 130.827 0.0010376 130.736 0.0010376 130.641C0.0010376 130.545 0.0387711 130.454 0.105962 130.387C0.173153 130.319 0.264319 130.281 0.359478 130.281H283.641C283.736 130.281 283.827 130.319 283.895 130.386C283.962 130.454 284 130.545 284 130.641C284 130.736 283.962 130.827 283.895 130.895C283.827 130.962 283.736 131 283.641 131Z" fill="#CACACA"/>
<path d="M99.0038 40.2932C97.0958 39.759 95.1807 39.2639 93.2586 38.808C86.6854 37.2392 80.0217 36.0778 73.3053 35.3305C72.1669 35.0308 70.9561 35.1928 69.9366 35.7813C68.9171 36.3699 68.1713 37.3373 67.8618 38.473L64.5076 50.8496C64.1996 51.9905 64.357 53.2069 64.9451 54.2318C65.5332 55.2568 66.5041 56.0065 67.6445 56.3165L67.6897 56.3255C72.1279 56.8297 76.6082 57.53 81.0643 58.4235C81.4629 58.502 81.8585 58.5835 82.2569 58.6681C83.685 58.9639 85.109 59.2799 86.5289 59.6159C87.1509 59.7608 87.7698 59.9118 88.3917 60.0657C90.0643 60.4823 91.7379 60.926 93.4126 61.397C95.2754 61.9222 97.1391 62.4827 99.0038 63.0784C99.2063 63.1388 99.4085 63.2021 99.6077 63.2685V40.4653C99.4085 40.4049 99.2063 40.3476 99.0038 40.2932Z" fill="white"/>
<path d="M99.0038 40.2932C97.0958 39.759 95.1807 39.2639 93.2586 38.808C86.6854 37.2392 80.0217 36.0778 73.3053 35.3305C72.1669 35.0308 70.9561 35.1928 69.9366 35.7813C68.9171 36.3699 68.1713 37.3373 67.8618 38.473L64.5076 50.8496C64.1996 51.9905 64.357 53.2069 64.9451 54.2318C65.5332 55.2568 66.5041 56.0065 67.6445 56.3165L67.6897 56.3255C72.1279 56.8297 76.6082 57.53 81.0643 58.4235C81.4629 58.502 81.8585 58.5835 82.2569 58.6681C83.685 58.9639 85.109 59.2799 86.5289 59.6159C87.1509 59.7608 87.7698 59.9118 88.3917 60.0657C90.0643 60.4823 91.7379 60.926 93.4126 61.397C95.2754 61.9222 97.1391 62.4827 99.0038 63.0784C99.2063 63.1388 99.4085 63.2021 99.6077 63.2685V62.6316C99.4054 62.5682 99.2032 62.5048 99.0038 62.4414C97.2891 61.895 95.5763 61.3808 93.8655 60.8989C93.2254 60.7147 92.5853 60.5366 91.9452 60.3646C90.792 60.0536 89.6417 59.7558 88.4945 59.471C87.8846 59.3171 87.2757 59.1691 86.6678 59.0273C86.6226 59.0152 86.5742 59.0061 86.5289 58.9941C85.4933 58.7495 84.4558 58.5161 83.4162 58.2937C83.0177 58.2092 82.6193 58.1247 82.2206 58.0432C77.4143 57.047 72.5716 56.2712 67.7802 55.7278C66.8002 55.4549 65.9677 54.806 65.4639 53.9223C64.9601 53.0387 64.8258 51.9918 65.0903 51.0096L68.4445 38.6299C68.7128 37.6449 69.361 36.8066 70.2468 36.2989C71.1326 35.7913 72.1837 35.6558 73.1694 35.9222L73.2146 35.9282C79.8458 36.6644 86.4257 37.8056 92.9174 39.3454C92.9837 39.3635 93.0502 39.3786 93.1166 39.3937C95.0852 39.8646 97.0476 40.3737 99.0038 40.9211C99.2031 40.9755 99.4054 41.0328 99.6076 41.0932V40.4653C99.4085 40.4049 99.2063 40.3476 99.0038 40.2932Z" fill="#004973"/>
<path d="M99.6076 40.7792V62.9485C99.4054 62.8821 99.2062 62.8187 99.0038 62.7554C97.2196 62.1848 95.4293 61.6475 93.633 61.1434C91.9089 60.6543 90.179 60.1945 88.4431 59.7638C87.8272 59.6129 87.2143 59.465 86.5984 59.3201C86.5742 59.2114 86.55 59.1027 86.5289 58.9941C86.4172 58.4748 86.3298 57.9496 86.2633 57.4213C86.233 57.2191 86.212 57.0168 86.1907 56.8115C85.8731 53.5775 86.3158 50.3139 87.4838 47.2813C88.6517 44.2488 90.5124 41.5311 92.9174 39.3454C93.0049 39.2608 93.0955 39.1793 93.1861 39.1008C95.1365 39.5657 97.0757 40.0688 99.0038 40.6102C99.2062 40.6615 99.4085 40.7189 99.6076 40.7792Z" fill="#004973"/>
<path d="M79.5579 49.8565L71.1617 48.8663C70.8664 48.8315 70.567 48.8551 70.2808 48.9359C69.9945 49.0167 69.727 49.153 69.4935 49.3372C69.26 49.5214 69.065 49.7497 68.9197 50.0092C68.7745 50.2688 68.6817 50.5543 68.6469 50.8497C68.612 51.145 68.6356 51.4443 68.7164 51.7305C68.7972 52.0167 68.9336 52.2842 69.1178 52.5177C69.302 52.7512 69.5304 52.9461 69.7899 53.0914C70.0495 53.2366 70.3351 53.3293 70.6305 53.3642L79.0265 54.3543C79.6222 54.4232 80.221 54.2531 80.6914 53.8811C81.1619 53.5092 81.4656 52.9659 81.5359 52.3704C81.6063 51.7749 81.4376 51.1758 81.0668 50.7045C80.6959 50.2333 80.1533 49.9283 79.5579 49.8565ZM80.9407 52.3016C80.8881 52.7385 80.6643 53.1367 80.3185 53.4089C79.9727 53.6811 79.533 53.8051 79.0959 53.7536L70.6997 52.7635C70.2637 52.7104 69.8665 52.4867 69.5952 52.1414C69.3238 51.7961 69.2003 51.3574 69.2519 50.9213C69.3034 50.4851 69.5257 50.0872 69.8701 49.8146C70.2145 49.5421 70.6528 49.4171 71.0892 49.4671L79.4853 50.4572C79.9224 50.5101 80.3207 50.7338 80.5934 51.0793C80.8661 51.4249 80.9909 51.8643 80.9407 52.3016L80.9407 52.3016Z" fill="#004973"/>
<path d="M99.6077 45.9714V56.4855C99.4137 56.6019 99.212 56.7048 99.0038 56.7934C97.9202 57.2772 96.7188 57.4337 95.5474 57.2439C94.3759 57.054 93.2855 56.526 92.4102 55.7248C92.3257 55.6493 92.2411 55.5678 92.1596 55.4833C92.078 55.4018 91.9996 55.3143 91.9241 55.2267C91.0127 54.18 90.486 52.8536 90.4309 51.4669C90.3759 50.0802 90.796 48.7163 91.6216 47.6007C92.4472 46.4851 93.6289 45.6847 94.9713 45.3319C96.3137 44.9791 97.7363 45.095 99.0038 45.6605C99.2106 45.7532 99.4121 45.857 99.6077 45.9714Z" fill="white"/>
<path d="M99.0039 53.5815C96.6279 54.0766 94.268 54.625 91.9242 55.2267C91.0486 55.4501 90.1761 55.6815 89.3066 55.921C88.2681 56.2078 87.2294 56.5046 86.1908 56.8115C84.8655 57.204 83.5421 57.6145 82.2207 58.0431C81.8373 58.1699 81.4509 58.2967 81.0644 58.4235C77.3901 59.6491 73.7401 61.0075 70.1503 62.4897C69.008 62.7752 68.0247 63.5003 67.4145 64.5073C66.8044 65.5142 66.6168 66.7214 66.8927 67.866L69.9209 80.3272C70.2012 81.4749 70.9253 82.4646 71.9345 83.0792C72.9436 83.6938 74.1554 83.883 75.3039 83.6055L75.3462 83.5904C81.2494 81.1693 87.2913 79.1009 93.4398 77.396C95.2754 76.8859 97.1301 76.4049 99.0039 75.9531C99.2063 75.9048 99.4054 75.8565 99.6077 75.8112V53.4578C99.4054 53.494 99.2063 53.5362 99.0039 53.5815Z" fill="white"/>
<path d="M99.0039 53.5815C96.6279 54.0766 94.268 54.625 91.9242 55.2267C91.0486 55.4501 90.1761 55.6815 89.3066 55.921C88.2681 56.2078 87.2294 56.5046 86.1908 56.8115C84.8655 57.204 83.5421 57.6145 82.2207 58.0431C81.8373 58.1699 81.4509 58.2967 81.0644 58.4235C77.3901 59.6491 73.7401 61.0075 70.1503 62.4897C69.008 62.7752 68.0247 63.5003 67.4145 64.5073C66.8044 65.5142 66.6168 66.7214 66.8927 67.866L69.9209 80.3272C70.2012 81.4749 70.9253 82.4646 71.9345 83.0792C72.9436 83.6938 74.1554 83.883 75.3039 83.6055L75.3462 83.5904C81.2494 81.1693 87.2913 79.1009 93.4398 77.396C95.2754 76.8859 97.1301 76.4049 99.0039 75.9531C99.2063 75.9048 99.4054 75.8565 99.6077 75.8112V75.1894C99.4054 75.2377 99.2063 75.286 99.0039 75.3343C98.8529 75.3705 98.699 75.4067 98.5481 75.4429C96.7729 75.8746 95.0167 76.3314 93.2797 76.8134C93.2344 76.8255 93.1862 76.8406 93.1408 76.8527C87.0233 78.5537 81.0119 80.6151 75.1379 83.0259C74.1473 83.2581 73.1052 83.0899 72.2379 82.558C71.3707 82.0261 70.7485 81.1734 70.5066 80.1853L67.4815 67.7241C67.2414 66.7318 67.4047 65.6849 67.9356 64.8128C68.4664 63.9408 69.3216 63.3149 70.3134 63.0723L70.3586 63.0572C74.2684 61.4392 78.2475 59.9721 82.257 58.668C82.6433 58.5412 83.0299 58.4175 83.4163 58.2937C84.3643 57.9949 85.3133 57.7041 86.2633 57.4213C87.2656 57.1225 88.2669 56.8347 89.2672 56.558C89.3337 56.5398 89.4002 56.5217 89.4666 56.5036C90.4448 56.235 91.426 55.9754 92.4102 55.7248C94.593 55.1694 96.7909 54.6592 99.0039 54.1943C99.2032 54.1521 99.4054 54.1098 99.6077 54.0706V53.4578C99.4054 53.494 99.2063 53.5362 99.0039 53.5815Z" fill="#004973"/>
<path d="M99.6077 53.7627V75.5003C99.4085 75.5456 99.2063 75.5909 99.0039 75.6392C97.114 76.098 95.2321 76.5871 93.3582 77.1063C93.2827 77.0218 93.2103 76.9372 93.1408 76.8527C91.1845 74.563 89.7471 71.877 88.9273 68.9793C88.1076 66.0816 87.9248 63.0408 88.3917 60.0657C88.4069 59.9661 88.425 59.8635 88.4432 59.7639C88.4582 59.6673 88.4763 59.5676 88.4945 59.4711C88.6808 58.4825 88.9391 57.5089 89.2672 56.558C89.3066 56.4433 89.3458 56.3286 89.3881 56.2139C90.3089 55.9603 91.2327 55.7168 92.1596 55.4834C94.427 54.8977 96.7084 54.3654 99.0038 53.8865C99.2032 53.8412 99.4054 53.8019 99.6077 53.7627Z" fill="#004973"/>
<path d="M85.578 73.4536C85.3516 72.8976 84.9139 72.4541 84.3609 72.2204C83.808 71.9867 83.1849 71.9818 82.6283 72.2068L74.7936 75.3825C74.2381 75.6089 73.795 76.0465 73.5619 76.5992C73.3287 77.152 73.3244 77.7746 73.55 78.3305C73.7756 78.8863 74.2126 79.33 74.765 79.564C75.3174 79.798 75.9402 79.8032 76.4965 79.5785L84.3311 76.4028C84.8867 76.1759 85.3298 75.7383 85.5635 75.1856C85.7971 74.6329 85.8023 74.0101 85.578 73.4536ZM84.1047 75.8413L76.27 79.02C75.8618 79.1851 75.4048 79.1813 74.9993 79.0097C74.5938 78.838 74.273 78.5125 74.1074 78.1045C73.9418 77.6966 73.9449 77.2396 74.116 76.8339C74.2872 76.4283 74.6123 76.1071 75.0201 75.941L82.8547 72.7653C83.2627 72.5996 83.7198 72.6027 84.1255 72.7739C84.5311 72.9452 84.8522 73.2705 85.0179 73.6784C85.1837 74.0863 85.1806 74.5434 85.0093 74.949C84.838 75.3546 84.5126 75.6756 84.1047 75.8413Z" fill="#004973"/>
<path d="M99.6077 59.314V71.1503C99.4086 71.201 99.2071 71.2413 99.0039 71.2711C97.7918 71.4409 96.5566 71.2423 95.4589 70.701C94.3612 70.1597 93.4517 69.3008 92.8487 68.2358C92.2457 67.1709 91.977 65.9492 92.0776 64.7296C92.1781 63.5099 92.6433 62.3487 93.4126 61.3969C93.4821 61.3094 93.5544 61.2249 93.633 61.1434C93.7054 61.0588 93.784 60.9773 93.8655 60.8988C94.5331 60.2387 95.3441 59.7415 96.2354 59.4462C97.1267 59.1509 98.0741 59.0654 99.0039 59.1963C99.2073 59.2236 99.4089 59.2629 99.6077 59.314Z" fill="white"/>
<path d="M99.0038 38.7205V68.8501C99.2062 68.7837 99.4085 68.7203 99.6077 68.6599V38.9952C99.4054 38.9016 99.2063 38.8111 99.0038 38.7205ZM99.0038 38.7205V68.8501C99.2062 68.7837 99.4085 68.7203 99.6077 68.6599V38.9952C99.4054 38.9016 99.2063 38.8111 99.0038 38.7205ZM99.0038 38.7205V68.8501C99.2062 68.7837 99.4085 68.7203 99.6077 68.6599V38.9952C99.4054 38.9016 99.2063 38.8111 99.0038 38.7205ZM99.0038 40.9211V75.6392C99.2062 75.5909 99.4085 75.5456 99.6077 75.5003V41.0932C99.4054 41.0328 99.2032 40.9755 99.0038 40.9211V40.9211ZM99.0038 40.9211V75.6392C99.2062 75.5909 99.4085 75.5456 99.6077 75.5003V41.0932C99.4054 41.0328 99.2032 40.9755 99.0038 40.9211V40.9211ZM99.0038 40.9211V75.6392C99.2062 75.5909 99.4085 75.5456 99.6077 75.5003V41.0932C99.4054 41.0328 99.2032 40.9755 99.0038 40.9211V40.9211ZM99.0038 40.9211V75.6392C99.2062 75.5909 99.4085 75.5456 99.6077 75.5003V41.0932C99.4054 41.0328 99.2032 40.9755 99.0038 40.9211V40.9211ZM99.0038 40.9211V75.9531C99.2062 75.9048 99.4054 75.8565 99.6077 75.8112V41.0932C99.4054 41.0328 99.2032 40.9755 99.0038 40.9211V40.9211ZM230.712 12.3764H105.272C103.61 12.3791 102.018 13.0402 100.843 14.2149C99.6679 15.3896 99.0066 16.9819 99.0038 18.6432V111.767C99.0067 113.428 99.668 115.02 100.843 116.194C102.018 117.368 103.61 118.029 105.272 118.031H230.712C232.373 118.029 233.966 117.368 235.14 116.194C236.314 115.02 236.975 113.428 236.977 111.767V18.6432C236.976 16.982 236.315 15.3893 235.141 14.2145C233.966 13.0396 232.374 12.3785 230.712 12.3763V12.3764ZM236.373 111.767C236.372 113.268 235.775 114.706 234.713 115.767C233.652 116.829 232.213 117.425 230.712 117.427H105.272C103.77 117.426 102.331 116.829 101.269 115.768C100.207 114.707 99.6099 113.268 99.6077 111.767V18.6432C99.6099 17.1419 100.207 15.7028 101.269 14.6412C102.331 13.5797 103.77 12.9823 105.272 12.9801H230.712C232.214 12.9818 233.653 13.5791 234.714 14.6409C235.776 15.7026 236.372 17.142 236.373 18.6432V111.767ZM99.0038 40.9211V75.3343C99.2062 75.286 99.4054 75.2377 99.6077 75.1894V41.0932C99.4054 41.0328 99.2032 40.9755 99.0038 40.9211V40.9211ZM99.0038 40.9211V75.6392C99.2062 75.5909 99.4085 75.5456 99.6077 75.5003V41.0932C99.4054 41.0328 99.2032 40.9755 99.0038 40.9211V40.9211ZM99.0038 40.9211V75.6392C99.2062 75.5909 99.4085 75.5456 99.6077 75.5003V41.0932C99.4054 41.0328 99.2032 40.9755 99.0038 40.9211V40.9211ZM99.0038 40.9211V75.6392C99.2062 75.5909 99.4085 75.5456 99.6077 75.5003V41.0932C99.4054 41.0328 99.2032 40.9755 99.0038 40.9211V40.9211ZM99.0038 38.7205V68.8501C99.2062 68.7837 99.4085 68.7203 99.6077 68.6599V38.9952C99.4054 38.9016 99.2063 38.8111 99.0038 38.7205ZM99.0038 38.7205V68.8501C99.2062 68.7837 99.4085 68.7203 99.6077 68.6599V38.9952C99.4054 38.9016 99.2063 38.8111 99.0038 38.7205Z" fill="#2F2E41"/>
<path d="M72.1115 70.5994C71.9932 70.3235 71.8158 70.0768 71.5918 69.8769C71.3678 69.6769 71.1027 69.5285 70.8151 69.4421C70.5276 69.3556 70.2245 69.3333 69.9274 69.3766C69.6303 69.4199 69.3462 69.5279 69.0953 69.6928L63.3075 65.2462L63.034 69.0288L68.5722 72.6715C68.8773 73.0746 69.3196 73.3517 69.8154 73.4505C70.3112 73.5493 70.8261 73.4627 71.2623 73.2073C71.6986 72.9519 72.026 72.5453 72.1825 72.0647C72.339 71.584 72.3138 71.0627 72.1115 70.5994V70.5994Z" fill="#FFB6B6"/>
<path d="M48.7886 43.764L46.884 42.864C46.884 42.864 43.8159 43.7269 45.3065 47.7836L54.3273 64.5867L65.3407 71.0339L68.774 67.9918L57.7528 59.2726L48.7886 43.764Z" fill="#3F3D56"/>
</g>
<defs>
<clipPath id="clip0_38_224">
<rect width="284" height="131" fill="white"/>
</clipPath>
</defs>
</svg>
