<svg width="304" height="182" viewBox="0 0 304 182" fill="none" xmlns="http://www.w3.org/2000/svg">
<g clip-path="url(#clip0_4_229)">
<path d="M218.216 181.602H90.6758V50.5615C90.6758 22.6818 113.326 0 141.168 0H167.724C195.566 0 218.216 22.6818 218.216 50.5615V181.602Z" fill="#F2F2F2"/>
<path d="M191.66 181.602H90.6758V50.5615C90.648 39.8787 94.0261 29.4658 100.318 20.8389C100.55 20.5223 100.782 20.2099 101.02 19.9008C104.064 15.9035 107.686 12.3831 111.767 9.45587C111.997 9.28791 112.229 9.12287 112.463 8.95783C115.878 6.59156 119.572 4.65718 123.461 3.19872C123.692 3.11107 123.927 3.02325 124.162 2.93901C127.679 1.68217 131.325 0.821246 135.032 0.372124C135.262 0.340685 135.498 0.316084 135.734 0.291482C139.346 -0.0953296 142.99 -0.0953296 146.603 0.291482C146.838 0.316084 147.074 0.340682 147.306 0.372461C151.013 0.821612 154.658 1.68244 158.174 2.93903C158.409 3.02326 158.644 3.11108 158.876 3.1989C162.716 4.63896 166.367 6.54448 169.745 8.87292C169.98 9.03438 170.215 9.19942 170.446 9.36447C172.733 10.9995 174.882 12.821 176.87 14.8104C178.464 16.4061 179.949 18.1071 181.316 19.9018C181.554 20.2099 181.785 20.5224 182.017 20.8384C188.309 29.4654 191.688 39.8784 191.66 50.5615V181.602Z" fill="#CCCCCC"/>
<path d="M183.448 122.992C186.536 122.992 189.039 120.486 189.039 117.394C189.039 114.302 186.536 111.795 183.448 111.795C180.361 111.795 177.857 114.302 177.857 117.394C177.857 120.486 180.361 122.992 183.448 122.992Z" fill="#007FC7"/>
<path d="M207.768 177.677H203.484L201.446 161.13L207.769 161.131L207.768 177.677Z" fill="#FFB8B8"/>
<path d="M200.424 176.451H208.686V181.66H195.222C195.222 180.976 195.357 180.299 195.618 179.667C195.88 179.035 196.263 178.46 196.746 177.977C197.229 177.493 197.802 177.109 198.433 176.847C199.064 176.586 199.741 176.451 200.424 176.451Z" fill="#2F2E41"/>
<path d="M229.083 177.677H224.799L222.761 161.13L229.084 161.131L229.083 177.677Z" fill="#FFB8B8"/>
<path d="M221.739 176.451H230.001V181.66H216.537C216.537 180.976 216.672 180.299 216.933 179.667C217.194 179.035 217.578 178.46 218.061 177.977C218.544 177.493 219.117 177.109 219.748 176.847C220.379 176.586 221.056 176.451 221.739 176.451Z" fill="#2F2E41"/>
<path d="M186.278 118.503C185.97 118.048 185.765 117.531 185.678 116.989C185.59 116.446 185.623 115.891 185.773 115.363C185.924 114.834 186.188 114.345 186.547 113.93C186.907 113.514 187.353 113.183 187.854 112.959L202.416 72.7666L209.582 76.6825L192.955 115.092C193.275 115.96 193.266 116.915 192.929 117.777C192.593 118.639 191.952 119.347 191.129 119.767C190.306 120.188 189.358 120.291 188.464 120.058C187.569 119.825 186.792 119.272 186.278 118.503Z" fill="#FFB8B8"/>
<path d="M226.895 126.055C226.418 125.782 226.008 125.407 225.692 124.958C225.376 124.509 225.163 123.995 225.066 123.454C224.97 122.913 224.993 122.358 225.134 121.827C225.276 121.296 225.531 120.802 225.884 120.381L221.372 77.8639L229.527 78.237L231.402 120.058C232.07 120.698 232.48 121.56 232.555 122.482C232.629 123.405 232.364 124.322 231.808 125.061C231.253 125.801 230.446 126.31 229.54 126.493C228.634 126.676 227.693 126.521 226.895 126.055Z" fill="#FFB8B8"/>
<path d="M213.885 65.3218C218.625 65.3218 222.468 61.4741 222.468 56.7278C222.468 51.9814 218.625 48.1337 213.885 48.1337C209.145 48.1337 205.303 51.9814 205.303 56.7278C205.303 61.4741 209.145 65.3218 213.885 65.3218Z" fill="#FFB8B8"/>
<path d="M226.84 116.386H200.966L200.997 116.184C201.044 115.883 205.608 85.9383 202.242 76.142C201.904 75.1793 201.934 74.1255 202.325 73.1834C202.717 72.2413 203.442 71.4776 204.362 71.0391H204.363C209.175 68.7699 218.412 65.9756 226.209 72.7569C227.356 73.7712 228.252 75.0389 228.825 76.4597C229.399 77.8805 229.635 79.4155 229.514 80.9433L226.84 116.386Z" fill="#007FC7"/>
<path d="M205.935 90.3636L194.287 87.9971L199.747 75.0401C200.074 73.7852 200.884 72.7112 202 72.0539C203.117 71.3965 204.448 71.2094 205.702 71.5336C206.956 71.8577 208.031 72.6668 208.69 73.7831C209.349 74.8995 209.539 76.2321 209.218 77.4886L205.935 90.3636Z" fill="#007FC7"/>
<path d="M220.854 94.7576L220.154 78.6824C219.623 75.6605 221.351 72.8038 224.007 72.3369C226.665 71.8717 229.26 73.9675 229.793 77.0116L232.425 92.0323L220.854 94.7576Z" fill="#007FC7"/>
<path d="M225.979 114.461C230.142 130.339 230.596 150.526 229.473 172.546L223.882 171.846L213.749 129.857L208.158 172.546L201.869 172.196C199.99 149.091 198.16 129.257 201.17 116.211L225.979 114.461Z" fill="#2F2E41"/>
<path d="M219.54 63.3695C217.939 65.0773 214.966 64.1605 214.757 61.8274C214.741 61.6463 214.742 61.464 214.761 61.2831C214.868 60.2496 215.465 59.3113 215.322 58.2201C215.289 57.9485 215.188 57.6897 215.028 57.4682C213.752 55.7574 210.757 58.2334 209.553 56.6847C208.815 55.735 209.683 54.2398 209.116 53.1784C208.369 51.7775 206.154 52.4686 204.765 51.7014C203.219 50.8478 203.312 48.4734 204.329 47.0292C205.57 45.2679 207.745 44.3281 209.893 44.1927C212.041 44.0572 214.174 44.6387 216.18 45.4213C218.459 46.3106 220.718 47.5395 222.12 49.5459C223.826 51.9858 223.99 55.2661 223.137 58.1192C222.618 59.8548 220.848 61.9749 219.54 63.3695Z" fill="#2F2E41"/>
<path d="M293.511 181.827H35.5322C35.4221 181.826 35.3166 181.782 35.2388 181.704C35.161 181.626 35.1174 181.52 35.1174 181.41C35.1174 181.3 35.161 181.194 35.2388 181.116C35.3166 181.038 35.4221 180.994 35.5322 180.993H293.511C293.621 180.994 293.726 181.038 293.804 181.116C293.882 181.194 293.926 181.3 293.926 181.41C293.926 181.52 293.882 181.626 293.804 181.704C293.726 181.782 293.621 181.826 293.511 181.827Z" fill="white"/>
<path d="M163.88 143.637H118.455C117.857 143.64 117.282 143.405 116.856 142.985C116.43 142.564 116.189 141.991 116.184 141.392V39.8597C116.189 39.2607 116.43 38.6879 116.856 38.2671C117.282 37.8463 117.857 37.6117 118.455 37.615H163.88C164.479 37.6117 165.054 37.8463 165.48 38.2671C165.905 38.6879 166.147 39.2607 166.152 39.8597V141.392C166.147 141.991 165.905 142.564 165.48 142.985C165.054 143.405 164.479 143.64 163.88 143.637Z" fill="white"/>
<path d="M166.152 70.4676H116.184V71.1674H166.152V70.4676Z" fill="#CCCCCC"/>
<path d="M166.326 110.396H116.359V111.095H166.326V110.396Z" fill="#CCCCCC"/>
<path d="M132.607 37.615H131.908V143.987H132.607V37.615Z" fill="#CCCCCC"/>
<path d="M150.078 37.615H149.379V143.987H150.078V37.615Z" fill="#CCCCCC"/>
</g>
<defs>
<clipPath id="clip0_4_229">
<rect width="304" height="182" fill="white"/>
</clipPath>
</defs>
</svg>
