<svg width="250" height="250" viewBox="0 0 250 250" fill="none" xmlns="http://www.w3.org/2000/svg">
<rect x="2.755" y="2.1789" width="135.637" height="215.811" rx="11.5" transform="matrix(0.992478 -0.122423 0.109523 0.993984 -0.217917 30.8674)" fill="#001E3A" stroke="#2785BD" stroke-width="5"/>
<path d="M71.438 51.7218L75.3881 51.0922L77.108 61.7528C78.4614 69.367 79.4106 75.0881 79.9557 78.9162C78.8268 81.3911 75.8264 83.0168 70.9546 83.7933C69.7695 83.9822 67.1832 84.2594 63.1954 84.625L63.3929 84.5935L56.6495 85.4659C54.0161 85.8856 51.7212 86.3189 49.765 86.7657L49.1729 82.6077L45.251 83.4353C44.8939 80.9272 44.2266 77.1862 43.2491 72.2121C42.1212 66.1819 41.2283 60.8568 40.5705 56.2368L39.9785 52.0787L70.8741 47.7617L71.438 51.7218ZM42.6865 56.912C43.2692 61.004 44.0868 65.8011 45.1396 71.3032C46.0419 75.7493 46.634 78.9624 46.916 80.9424L50.2736 80.4073C52.2486 80.0925 55.0984 79.7732 58.8228 79.4496L65.9612 78.5143C70.3063 77.8217 72.78 76.7524 73.382 75.3065C72.7806 71.0824 71.822 65.2953 70.5062 57.9452C70.0362 55.5901 69.5945 52.9606 69.181 50.0565L42.2355 53.7439L42.6865 56.912ZM78.3456 94.5625L82.3803 94.5269C83.4516 102.051 84.9456 113.49 86.8625 128.844C88.1026 140.392 89.5778 152.171 91.288 164.183C92.9608 175.932 94.6713 186.054 96.4196 194.55C95.5166 195.774 94.1716 196.731 92.3845 197.421C90.5975 198.11 88.2556 198.686 85.3589 199.148C81.5404 199.757 78.6342 200.152 76.6404 200.335L76.8379 200.304L72.0695 200.861C69.1728 201.323 66.7838 202.041 64.9027 203.016C64.7712 202.092 64.6679 200.421 64.593 198.003C62.6555 198.582 61.2541 199.143 60.3888 199.685C59.7879 190.736 58.8203 181.576 57.4859 172.204C56.7341 166.924 55.4747 159.024 53.7078 148.506C51.9409 137.988 50.6628 129.957 49.8734 124.413C48.5578 115.173 47.6373 105.397 47.1118 95.086C48.0335 94.9391 48.6825 94.7681 49.0587 94.5732L52.1624 93.6735C53.2158 93.5056 55.2097 93.3228 58.144 93.1251C61.1912 92.7744 64.4266 92.3262 67.85 91.7805L72.3927 91.0564L77.8663 91.1965L78.3456 94.5625ZM68.132 93.7605C63.7868 94.4531 59.6204 94.9822 55.6326 95.3478L49.8767 96.0627L49.0867 96.1887L49.1149 96.3867C49.321 103.509 50.2134 112.614 51.7921 123.702C52.5063 128.718 53.7657 136.617 55.5701 147.399C57.3746 158.182 58.681 166.411 59.4891 172.087C60.7671 181.063 61.6596 189.223 62.1667 196.567C62.4112 196.393 63.4552 196.159 65.2986 195.865C68.0637 195.425 70.3115 195.134 72.042 194.993L80.958 193.774C83.8548 193.313 85.9521 192.911 87.25 192.569C88.6796 192.206 89.5449 191.663 89.846 190.94C87.9849 181.652 86.2086 171.068 84.5171 159.188C82.6752 146.252 81.0497 133.416 79.6404 120.681C78.1371 108.231 76.9626 99.0354 76.1168 93.0953L76.0322 92.5013L68.132 93.7605Z" fill="white"/>
<path d="M111.524 26.4206C111.858 21.1845 116.371 17.2429 121.605 17.6168L237.871 25.9224C243.105 26.2962 247.076 30.8439 246.742 36.08L234.202 232.596C233.868 237.832 229.355 241.774 224.121 241.4L107.855 233.095C102.621 232.721 98.6497 228.173 98.9839 222.937L111.524 26.4206Z" fill="#001E3A" stroke="#2785BD" stroke-width="5"/>
<path d="M223.561 108.348C217.644 108.766 212.162 108.754 207.115 108.311C200.872 107.764 195.478 106.622 190.933 104.885C191.097 104.498 191.242 103.507 191.367 101.912C189.528 101.483 188.159 101.028 187.261 100.548C187.425 100.161 187.559 99.3026 187.663 97.9733C187.882 95.1819 187.363 93.2627 186.108 92.2158C184.853 91.1688 183.029 90.5406 180.639 90.331C177.982 90.0981 175.662 90.6977 173.677 92.1298C171.693 93.5619 170.581 95.8067 170.341 98.864C170.175 100.991 170.531 102.427 171.408 103.173C172.296 103.787 173.399 104.218 174.717 104.467C176.035 104.717 176.954 104.931 177.475 105.111C185.617 107.029 193.137 110.9 200.036 116.725C207.079 122.428 212.506 129.127 216.316 136.822C220.27 144.396 221.956 151.905 221.373 159.349C220.675 168.255 218.069 175.923 213.553 182.353C209.038 188.783 203.319 193.501 196.397 196.508C189.597 199.66 182.345 200.898 174.641 200.222C165.875 199.454 157.397 196.703 149.209 191.97C141.01 187.37 134.453 181.442 129.538 174.185C124.767 166.807 122.698 159.064 123.333 150.955L123.735 148.381L123.954 145.589C127.582 145.372 131.455 145.444 135.572 145.805L147.112 147.017C149.758 147.383 153.539 147.781 158.453 148.212C158.338 149.674 158.434 151.021 158.738 152.252L162.125 152.549C161.865 155.872 162.414 158.263 163.771 159.72C165.138 161.044 167.283 161.835 170.205 162.091C173.127 162.347 175.647 161.765 177.764 160.344C179.881 158.924 181.054 156.752 181.283 153.827C181.606 149.706 180.302 146.715 177.372 144.852C174.442 142.989 171.404 141.652 168.258 140.841C165.122 139.896 163.095 139.317 162.175 139.103L159.234 138.243C155.311 137.096 152.09 135.542 149.569 133.581C147.058 131.487 144.395 128.778 141.579 125.453C132.979 115.731 129.158 104.756 130.115 92.527C130.761 84.2855 133.413 76.8892 138.071 70.338C142.73 63.7868 148.736 58.8258 156.088 55.4552C163.583 51.9632 171.647 50.5957 180.281 51.3525C189.18 52.1326 197.285 54.5161 204.596 58.503C212.039 62.5015 217.841 67.8283 222 74.4833C226.16 81.1384 227.907 88.7196 227.24 97.2269C226.98 100.55 226.285 104.304 225.155 108.487L223.561 108.348ZM219.846 101.999C220.801 98.3354 221.378 95.2407 221.576 92.7151C222.502 80.8847 218.944 71.6725 210.901 65.0785C203.002 58.3633 192.743 54.4526 180.125 53.3464C171.757 52.6128 164.035 53.8766 156.959 57.1376C149.883 60.3986 144.092 65.1777 139.587 71.4747C135.215 77.7833 132.722 84.859 132.108 92.7016C131.743 97.354 132.344 102.493 133.909 108.117C135.485 113.609 138.171 118.596 141.966 123.077C145.761 127.559 150.477 130.515 156.116 131.947C157.29 132.317 160.687 133.351 166.304 135.048C171.933 136.612 176.226 138.996 179.185 142.2C182.276 145.415 183.64 149.349 183.276 154.002C182.984 157.724 181.57 160.41 179.034 162.062C176.497 163.713 173.502 164.388 170.049 164.085C166.197 163.747 162.893 162.387 160.137 160.004C157.525 157.5 156.247 154.175 156.304 150.031C152.187 149.67 149.071 149.33 146.956 149.011L136.213 147.869C132.494 147.543 129.025 147.439 125.806 147.559L125.54 150.948C124.926 158.791 126.781 165.846 131.105 172.114C135.428 178.382 141.184 183.437 148.373 187.279C155.704 191 163.355 193.21 171.324 193.909C178.629 194.549 185.528 193.548 192.021 190.905C198.524 188.129 203.885 183.714 208.103 177.659C212.465 171.484 214.995 163.943 215.692 155.037C216.265 147.726 214.875 140.711 211.523 133.993C208.181 127.142 203.422 121.304 197.247 116.48C191.205 111.668 184.496 108.537 177.12 107.087C168.294 105.376 164.151 101.065 164.692 94.1528C164.973 90.5638 166.316 87.9378 168.719 86.2748C171.134 84.4788 173.935 83.7206 177.122 84C180.841 84.326 184.012 85.6747 186.635 88.0461C189.258 90.4174 190.434 93.3311 190.163 96.7872C190.07 97.9835 189.941 98.7753 189.777 99.1624C194.066 100.743 198.602 101.743 203.383 102.162C207.501 102.523 212.922 102.463 219.646 101.982L219.846 101.999Z" fill="white"/>
</svg>
