<svg width="111" height="111" viewBox="0 0 111 111" fill="none" xmlns="http://www.w3.org/2000/svg">
<path fill-rule="evenodd" clip-rule="evenodd" d="M83.25 88.8C82.2288 88.8 81.4 89.6288 81.4 90.65V94.35C81.4 95.3712 82.2288 96.2 83.25 96.2C84.2712 96.2 85.1 95.3712 85.1 94.35V90.65C85.1 89.6288 84.2712 88.8 83.25 88.8ZM85.1 68.45C85.1 67.4288 84.2712 66.6 83.25 66.6C82.2288 66.6 81.4 67.4288 81.4 68.45V83.25C81.4 84.2712 82.2288 85.1 83.25 85.1C84.2712 85.1 85.1 84.2712 85.1 83.25V68.45ZM96.2 48.1H14.8C12.7594 48.1 11.1 49.7594 11.1 51.8V59.2C11.1 61.2406 12.7594 62.9 14.8 62.9V101.75C14.8 106.85 18.9495 111 24.05 111H86.95C92.0504 111 96.2 106.85 96.2 101.75V68.45C96.2 67.4288 95.3712 66.6 94.35 66.6C93.3288 66.6 92.5 67.4288 92.5 68.45V101.75C92.5 104.81 90.0099 107.3 86.95 107.3H24.05C20.9901 107.3 18.5 104.81 18.5 101.75V61.05C18.5 60.0288 17.6712 59.2 16.65 59.2H14.8V51.8H96.2V59.2H24.05C23.0288 59.2 22.2 60.0288 22.2 61.05C22.2 62.0712 23.0288 62.9 24.05 62.9H96.2C98.2405 62.9 99.9 61.2406 99.9 59.2V51.8C99.9 49.7594 98.2405 48.1 96.2 48.1ZM51.8 30.4621V42.55C51.8 43.5712 52.6288 44.4 53.65 44.4C54.6712 44.4 55.5 43.5712 55.5 42.55V29.6C55.5 29.0191 55.2225 28.4678 54.7581 28.1182C52.8785 26.7048 51.8 24.5477 51.8 22.2C51.8 17.5454 56.2788 9.6496 59.2 5.14855C62.1211 9.6496 66.6 17.5454 66.6 22.2C66.6 25.7169 64.1025 28.7675 60.6633 29.4557C59.6606 29.6555 59.0094 30.6304 59.2111 31.6313C59.4109 32.634 60.3858 33.2778 61.3867 33.0835C66.5519 32.0531 70.3 27.4762 70.3 22.2C70.3 14.2987 61.0962 1.32275 60.7059 0.77515C60.0103 -0.19795 58.3897 -0.19795 57.6941 0.77515C57.3037 1.32275 48.1 14.2987 48.1 22.2C48.1 25.3709 49.4116 28.3124 51.8 30.4621ZM16.65 44.4H20.35C21.3712 44.4 22.2 43.5712 22.2 42.55C22.2 41.5288 21.3712 40.7 20.35 40.7H18.5V37H27.75C28.7712 37 29.6 36.1712 29.6 35.15C29.6 34.1288 28.7712 33.3 27.75 33.3H18.5V29.6H20.35C21.3712 29.6 22.2 28.7712 22.2 27.75C22.2 26.7288 21.3712 25.9 20.35 25.9H18.5V22.2H20.35C21.3712 22.2 22.2 21.3712 22.2 20.35C22.2 19.3288 21.3712 18.5 20.35 18.5H18.5V14.8H27.75C28.7712 14.8 29.6 13.9712 29.6 12.95C29.6 11.9288 28.7712 11.1 27.75 11.1H18.5V3.7H40.7V42.55C40.7 43.5712 41.5288 44.4 42.55 44.4C43.5712 44.4 44.4 43.5712 44.4 42.55V1.85C44.4 0.8288 43.5712 0 42.55 0H16.65C15.6288 0 14.8 0.8288 14.8 1.85V42.55C14.8 43.5712 15.6288 44.4 16.65 44.4ZM83.25 24.05V42.55C83.25 43.5712 84.0788 44.4 85.1 44.4C86.1212 44.4 86.95 43.5712 86.95 42.55V24.05C86.95 23.0288 86.1212 22.2 85.1 22.2C84.0788 22.2 83.25 23.0288 83.25 24.05ZM94.35 22.2C93.3288 22.2 92.5 23.0288 92.5 24.05V42.55C92.5 43.5712 93.3288 44.4 94.35 44.4C95.3712 44.4 96.2 43.5712 96.2 42.55V24.05C96.2 23.0288 95.3712 22.2 94.35 22.2ZM75.85 44.4C76.8712 44.4 77.7 43.5712 77.7 42.55V17.181L85.1 5.34095L91.0126 14.8H83.25C82.2288 14.8 81.4 15.6288 81.4 16.65C81.4 17.6712 82.2288 18.5 83.25 18.5H94.35C95.0234 18.5 95.6413 18.1355 95.9687 17.5472C96.2943 16.959 96.2758 16.2393 95.9188 15.6695L86.6688 0.8695C85.9917 -0.21275 84.2083 -0.21275 83.5312 0.8695L74.2812 15.6695C74.098 15.9637 74 16.3022 74 16.65V42.55C74 43.5712 74.8288 44.4 75.85 44.4ZM66.6 37V42.55C66.6 43.5712 65.7712 44.4 64.75 44.4C63.7288 44.4 62.9 43.5712 62.9 42.55V37C62.9 35.9788 63.7288 35.15 64.75 35.15C65.7712 35.15 66.6 35.9788 66.6 37Z" fill="#7BACC9"/>
</svg>
