<svg width="230" height="160" viewBox="0 0 291 160" fill="none" xmlns="http://www.w3.org/2000/svg">
<g clip-path="url(#clip0_455_423)">
<path d="M44.391 136.713C37.929 141.531 36.0977 150.008 36.0977 150.008C36.0977 150.008 44.7431 150.674 51.2051 145.856C57.667 141.038 59.4984 132.561 59.4984 132.561C59.4984 132.561 50.8529 131.895 44.391 136.713Z" fill="#42BEFB"/>
<path d="M47.0828 138.975C43.9771 146.414 36.199 150.248 36.199 150.248C36.199 150.248 33.4562 142.02 36.5619 134.581C39.6676 127.142 47.4456 123.309 47.4456 123.309C47.4456 123.309 50.1884 131.537 47.0828 138.975Z" fill="#42BEFB"/>
<path d="M232.998 117.471C232.312 112.845 232.13 108.158 232.457 103.493L232.998 95.772C230.017 101.704 230.691 109.512 232.998 117.47V117.471Z" fill="#CACACA"/>
<path d="M235.323 118.762C234.992 116.002 234.905 113.218 235.062 110.442L235.323 105.846C233.888 109.377 234.213 114.025 235.323 118.762Z" fill="#CACACA"/>
<path d="M245.654 124.446V127.029C245.653 127.234 245.571 127.43 245.426 127.576C245.281 127.721 245.084 127.803 244.879 127.804H243.588C243.554 127.804 243.52 127.81 243.489 127.823C243.458 127.836 243.429 127.855 243.405 127.879C243.381 127.903 243.362 127.932 243.349 127.963C243.336 127.994 243.33 128.028 243.33 128.062V149.244C243.329 149.449 243.247 149.646 243.102 149.791C242.957 149.936 242.76 150.018 242.555 150.019H226.801C226.595 150.019 226.398 149.937 226.253 149.792C226.108 149.646 226.026 149.449 226.026 149.244V128.062C226.026 127.994 225.999 127.928 225.95 127.88C225.902 127.831 225.836 127.804 225.768 127.804H224.218C224.013 127.804 223.816 127.722 223.67 127.577C223.525 127.431 223.444 127.234 223.443 127.029V124.446C223.443 124.344 223.463 124.243 223.502 124.149C223.541 124.055 223.598 123.969 223.67 123.897C223.742 123.825 223.827 123.768 223.921 123.729C224.016 123.691 224.116 123.671 224.218 123.671H244.879C245.085 123.671 245.281 123.753 245.426 123.898C245.572 124.044 245.654 124.24 245.654 124.446V124.446Z" fill="#91BDD8"/>
<path d="M243.353 128.346H226.049V129.121H243.353V128.346Z" fill="#91BDD8"/>
<path d="M243.33 139.75C237.54 142.146 231.686 142.173 225.768 139.75V134.29C231.466 132.376 237.632 132.376 243.33 134.29V139.75Z" fill="white"/>
<path d="M146.34 56.2738C159.266 56.2738 169.745 45.7932 169.745 32.8648C169.745 19.9364 159.266 9.45581 146.34 9.45581C133.415 9.45581 122.936 19.9364 122.936 32.8648C122.936 45.7932 133.415 56.2738 146.34 56.2738Z" fill="#FEB8B8"/>
<path d="M168.2 12.6695C164.701 6.98628 159.224 2.79854 152.823 0.9124L149.949 3.00956V0.28646C148.412 0.051127 146.856 -0.03953 145.302 0.0156812L142.823 2.25906V0.202062C139.153 0.65824 135.617 1.87009 132.438 3.76119C129.26 5.65229 126.507 8.18162 124.354 11.1897C118.971 18.9519 118.062 29.7509 123.357 37.5754C124.811 33.1076 126.575 28.9156 128.029 24.4482C129.171 24.604 130.329 24.6096 131.473 24.4649L133.241 20.3378L133.735 24.2903C139.216 23.8128 147.346 22.764 152.542 21.8032L152.037 18.7709L155.06 21.2905C156.652 20.9241 157.597 20.5915 157.519 20.3374C161.383 26.5689 166.113 30.5488 169.977 36.7802C171.445 27.9936 173.134 20.6876 168.2 12.6695Z" fill="#0C0C1E"/>
<path d="M196.677 93.0618C195.872 88.219 195.042 83.2832 192.792 78.9206C191.313 76.063 188.965 73.3399 185.8 72.7749C185.177 72.7193 184.564 72.5774 183.98 72.3534C183.052 71.9066 170.591 64.7915 168.61 63.5523C166.91 62.4884 164.225 60.5186 162.872 60.5186C161.51 60.4886 156.288 61.7042 135.908 60.1107C135.908 60.1107 130.309 62.318 125.976 64.9945C125.911 64.9512 104.823 76.2774 104.031 76.2476C102.531 76.1844 101.136 77.1452 100.276 78.3551C99.4161 79.565 99.0127 81.0629 98.5903 82.5111C103.196 92.7703 107.41 103.043 112.017 113.302C112.232 113.688 112.347 114.123 112.35 114.565C112.257 115.025 112.061 115.457 111.777 115.829C109.518 119.458 109.59 124.023 109.836 128.289C110.083 132.554 110.389 137.06 108.483 140.883C107.964 141.933 107.29 142.894 106.797 143.944C105.643 146.321 105.225 153.925 105.9 156.479L190.395 158.9C188.578 153.905 196.677 93.0618 196.677 93.0618Z" fill="#007FC7"/>
<path d="M91.2865 113.757C91.1179 114.977 91.101 116.213 91.236 117.437L92.447 134.832C92.5607 136.472 92.6726 138.107 92.8265 139.743C93.1171 142.917 93.5511 146.065 94.0899 149.209C94.102 149.656 94.2908 150.079 94.6147 150.387C94.9386 150.694 95.3712 150.86 95.8175 150.849C101.148 151.977 106.656 151.932 112.097 151.625C120.399 151.161 141.639 150.284 142.937 148.598C144.234 146.912 143.478 144.185 141.786 142.822C140.094 141.458 112.065 138.135 112.065 138.135C112.339 135.964 113.165 133.92 113.949 131.859C115.356 128.203 116.671 124.428 116.696 120.512C116.722 116.596 115.247 112.479 112.04 110.235C109.401 108.394 106.005 108.052 102.79 108.128C100.451 108.195 96.4095 107.634 94.273 108.549C92.5824 109.294 91.6024 112.101 91.2865 113.757Z" fill="#FBBEBE"/>
<path d="M98.3461 82.8234C97.9357 83.2533 97.6174 83.7625 97.4108 84.3199C94.0044 91.9984 91.9923 100.222 91.4689 108.607C91.4781 109.015 91.3839 109.42 91.195 109.783C91.0088 110.024 90.8015 110.248 90.5755 110.453C90.3785 110.686 90.2295 110.956 90.1368 111.248C90.0442 111.539 90.0098 111.845 90.0357 112.15C90.0615 112.454 90.147 112.751 90.2874 113.022C90.4278 113.294 90.6202 113.535 90.8537 113.732C90.892 113.764 90.9313 113.795 90.9717 113.825C91.667 112.516 93.3314 112.088 94.8109 111.975C101.895 111.414 108.814 114.71 115.92 114.462C115.418 112.729 114.697 111.064 114.288 109.311C112.481 101.526 116.99 93.0496 114.225 85.5509C113.673 84.0504 112.75 82.5751 111.297 81.9176C110.695 81.6747 110.065 81.508 109.421 81.4212C107.626 81.0967 104.052 79.7099 102.316 80.2663C101.676 80.473 101.423 81.0755 100.892 81.4397C100.085 81.9551 99.0148 82.1446 98.3461 82.8234Z" fill="#007FC7"/>
<path d="M196.727 108.549C194.591 107.634 190.549 108.195 188.21 108.128C184.995 108.052 181.599 108.394 178.96 110.235C175.753 112.479 174.278 116.596 174.304 120.512C174.329 124.428 175.644 128.203 177.051 131.859C177.835 133.92 178.661 135.964 178.935 138.135C178.935 138.135 150.906 141.458 149.214 142.822C147.522 144.185 146.766 146.912 148.063 148.598C149.361 150.284 189.852 151.977 195.183 150.849C195.629 150.86 196.061 150.694 196.385 150.387C196.709 150.079 196.898 149.656 196.91 149.209C197.449 146.065 197.883 142.917 198.174 139.743C198.327 138.107 198.439 136.472 198.553 134.832L199.764 117.437C199.899 116.213 199.882 114.977 199.714 113.757C199.398 112.101 198.418 109.294 196.727 108.549Z" fill="#FBBEBE"/>
<path d="M190.108 81.4397C189.577 81.0755 189.324 80.473 188.683 80.2663C186.948 79.7099 183.374 81.0967 181.578 81.4212C180.935 81.508 180.305 81.6747 179.703 81.9176C178.249 82.5751 177.327 84.0504 176.774 85.5509C174.01 93.0496 178.519 101.526 176.711 109.311C176.302 111.064 175.581 112.729 175.08 114.462C182.185 114.71 189.105 111.414 196.189 111.975C197.668 112.088 199.333 112.516 200.028 113.825C200.068 113.795 200.108 113.764 200.146 113.732C200.379 113.535 200.572 113.294 200.712 113.022C200.853 112.751 200.938 112.454 200.964 112.15C200.99 111.845 200.955 111.539 200.863 111.248C200.77 110.956 200.621 110.686 200.424 110.453C200.198 110.248 199.991 110.024 199.805 109.783C199.616 109.42 199.522 109.015 199.531 108.607C199.007 100.222 196.995 91.9984 193.589 84.3198C193.382 83.7625 193.064 83.2532 192.654 82.8234C191.985 82.1446 190.915 81.9551 190.108 81.4397Z" fill="#007FC7"/>
<path d="M139.409 151.68C142.897 151.68 145.725 148.851 145.725 145.362C145.725 141.872 142.897 139.043 139.409 139.043C135.92 139.043 133.092 141.872 133.092 145.362C133.092 148.851 135.92 151.68 139.409 151.68Z" fill="#FBBEBE"/>
<path d="M153.396 151.68C156.885 151.68 159.713 148.851 159.713 145.362C159.713 141.872 156.885 139.043 153.396 139.043C149.907 139.043 147.079 141.872 147.079 145.362C147.079 148.851 149.907 151.68 153.396 151.68Z" fill="#FBBEBE"/>
<path d="M192.388 159.599H105.605C104.591 159.597 103.62 159.194 102.903 158.478C102.187 157.761 101.784 156.79 101.783 155.776V103.117C101.784 102.103 102.187 101.132 102.903 100.415C103.62 99.6984 104.591 99.2953 105.605 99.2942H192.388C193.402 99.2953 194.373 99.6984 195.089 100.415C195.806 101.132 196.209 102.103 196.21 103.117V155.776C196.209 156.79 195.806 157.761 195.089 158.478C194.373 159.194 193.402 159.597 192.388 159.599Z" fill="#004973"/>
<path d="M148.786 131.975C150.182 131.975 151.314 130.843 151.314 129.446C151.314 128.05 150.182 126.917 148.786 126.917C147.389 126.917 146.257 128.05 146.257 129.446C146.257 130.843 147.389 131.975 148.786 131.975Z" fill="white"/>
<path d="M291 148.977H0V157.921H17.2123V160H273.794V157.921H291V148.977Z" fill="#007FC7"/>
<path d="M124.818 41.5898C121.058 41.5898 118.009 38.2929 118.009 34.226V30.5441C118.009 26.4772 121.058 23.1803 124.818 23.1803V41.5898H124.818Z" fill="#007FC7"/>
<path d="M168.279 23.1803C172.04 23.1803 175.088 26.4772 175.088 30.5441V34.226C175.088 38.2929 172.04 41.5898 168.279 41.5898V23.1803Z" fill="#007FC7"/>
<path d="M171.848 31.1227H170.767C170.767 16.3053 159.621 4.25041 145.919 4.25041C132.218 4.25041 121.071 16.3053 121.071 31.1227H119.99C119.99 15.661 131.622 3.08206 145.919 3.08206C160.216 3.08207 171.848 15.661 171.848 31.1227Z" fill="#007FC7"/>
</g>
<defs>
<clipPath id="clip0_455_423">
<rect width="291" height="160" fill="white"/>
</clipPath>
</defs>
</svg>
