<svg width="285" height="267" viewBox="0 0 285 267" fill="none" xmlns="http://www.w3.org/2000/svg">
<g clip-path="url(#clip0_407_455)">
<path d="M263.455 204.263L276.24 206.264C280.568 201.016 283.551 194.788 284.931 188.122C275.582 195.788 261.365 191.714 250.029 195.899C246.503 197.232 243.322 199.342 240.721 202.073C238.121 204.804 236.167 208.087 235.004 211.677L228.756 218.411C234.412 220.654 240.486 221.642 246.56 221.307C252.634 220.972 258.563 219.322 263.939 216.47C266.939 214.841 269.723 212.84 272.223 210.513C267.75 207.692 263.455 204.263 263.455 204.263Z" fill="#42BEFB"/>
<path d="M258.916 183.781L271.251 179.861C272.787 173.23 272.685 166.323 270.952 159.741C265.997 170.778 251.459 173.483 243.176 182.293C240.613 185.06 238.705 188.37 237.594 191.976C236.482 195.583 236.194 199.394 236.753 203.126L234.158 211.945C240.219 211.425 246.096 209.596 251.383 206.583C256.671 203.57 261.243 199.444 264.785 194.491C266.745 191.692 268.345 188.658 269.547 185.458C264.287 184.931 258.916 183.781 258.916 183.781Z" fill="#42BEFB"/>
<path d="M285 222.49C285 222.556 284.987 222.621 284.962 222.682C284.937 222.744 284.9 222.799 284.853 222.846C284.807 222.892 284.751 222.929 284.69 222.955C284.629 222.98 284.564 222.993 284.498 222.993H0.501947C0.368823 222.993 0.241149 222.94 0.147016 222.845C0.0528828 222.751 0 222.623 0 222.49C0 222.356 0.0528828 222.229 0.147016 222.134C0.241149 222.04 0.368823 221.987 0.501947 221.987H284.498C284.564 221.987 284.629 222 284.69 222.025C284.751 222.05 284.807 222.087 284.853 222.134C284.9 222.181 284.937 222.236 284.962 222.297C284.987 222.358 285 222.424 285 222.49Z" fill="#CCCCCC"/>
<path d="M117.682 201.055C167.768 201.055 208.37 160.385 208.37 110.217C208.37 60.0482 167.768 19.3785 117.682 19.3785C67.5967 19.3785 26.9944 60.0482 26.9944 110.217C26.9944 160.385 67.5967 201.055 117.682 201.055Z" fill="#9EDEFE"/>
<path d="M195.716 110.217C195.725 122.413 192.881 134.442 187.411 145.339C181.942 156.235 173.999 165.696 164.22 172.963C163.566 173.453 162.9 173.93 162.229 174.395C149.152 183.5 133.608 188.38 117.682 188.38C101.757 188.38 86.2123 183.5 73.1356 174.395C72.465 173.93 71.7985 173.453 71.1447 172.963C61.3726 165.69 53.4348 156.227 47.9659 145.332C42.497 134.437 39.6487 122.412 39.6487 110.217C39.6487 98.0221 42.497 85.9965 47.9659 75.1015C53.4348 64.2064 61.3726 54.744 71.1447 47.4708C71.7985 46.9807 72.465 46.5033 73.1356 46.0385C86.2123 36.9336 101.757 32.0536 117.682 32.0536C133.608 32.0536 149.152 36.9336 162.229 46.0385C162.9 46.5033 163.566 46.9807 164.22 47.4708C173.999 54.7376 181.942 64.1987 187.411 75.0952C192.881 85.9917 195.725 98.0205 195.716 110.217Z" fill="white"/>
<path d="M117.682 181.62C157.052 181.62 188.967 149.652 188.967 110.217C188.967 70.782 157.052 38.8137 117.682 38.8137C78.3128 38.8137 46.3975 70.782 46.3975 110.217C46.3975 149.652 78.3128 181.62 117.682 181.62Z" fill="#1B85ED"/>
<path opacity="0.2" d="M117.868 39.0133C116.787 39.0133 115.713 39.0416 114.645 39.0893C132.661 40.6751 149.403 49.0616 161.477 62.5498C173.551 76.0379 180.055 93.6191 179.671 111.731C179.288 129.843 172.045 147.132 159.41 160.095C146.775 173.058 129.694 180.725 111.626 181.544C113.683 181.723 115.764 181.82 117.868 181.82C136.774 181.82 154.906 174.297 168.274 160.906C181.643 147.515 189.153 129.354 189.153 110.416C189.153 91.4792 181.643 73.3175 168.274 59.9268C154.906 46.5361 136.774 39.0133 117.868 39.0133V39.0133Z" fill="black"/>
<path d="M117.893 33.7437C117.278 33.7447 116.689 33.9899 116.254 34.4255C115.819 34.861 115.574 35.4515 115.573 36.0674V46.2075C115.573 46.8238 115.818 47.4149 116.253 47.8507C116.688 48.2865 117.278 48.5313 117.893 48.5313C118.508 48.5313 119.099 48.2865 119.534 47.8507C119.969 47.4149 120.213 46.8238 120.213 46.2075V36.0674C120.212 35.4515 119.967 34.861 119.532 34.4255C119.098 33.9899 118.508 33.7447 117.893 33.7437Z" fill="white"/>
<path d="M164.22 47.4708C163.566 46.9807 162.9 46.5032 162.229 46.0385C161.827 46.0122 161.424 46.0915 161.062 46.2686C160.699 46.4457 160.389 46.7144 160.162 47.0483L154.464 55.4265C154.117 55.9358 153.987 56.562 154.102 57.1674C154.217 57.7727 154.567 58.3076 155.075 58.6544C155.584 59.0013 156.209 59.1315 156.813 59.0167C157.418 58.9018 157.952 58.5511 158.298 58.0418L163.996 49.6636C164.213 49.3457 164.347 48.9786 164.386 48.5956C164.425 48.2126 164.368 47.826 164.22 47.4708Z" fill="white"/>
<path d="M190.11 85.6736C189.995 85.3911 189.826 85.134 189.613 84.917C189.399 84.6999 189.144 84.5272 188.864 84.4087C188.583 84.2903 188.282 84.2283 187.978 84.2264C187.674 84.2245 187.372 84.2826 187.09 84.3976L177.709 88.2128C177.14 88.4451 176.686 88.8944 176.447 89.4619C176.208 90.0294 176.204 90.6687 176.435 91.2392C176.666 91.8098 177.115 92.265 177.681 92.5048C178.247 92.7446 178.885 92.7494 179.455 92.5181L188.836 88.7029C189.405 88.4694 189.859 88.0195 190.098 87.4517C190.336 86.884 190.341 86.2446 190.11 85.6736Z" fill="white"/>
<path d="M80.9009 55.4265L75.2023 47.0483C74.9753 46.7144 74.6652 46.4457 74.3027 46.2686C73.9402 46.0915 73.5379 46.0122 73.1355 46.0385C72.4648 46.5032 71.7984 46.9807 71.1446 47.4708C70.9964 47.826 70.9392 48.2126 70.9782 48.5956C71.0173 48.9786 71.1513 49.3457 71.3681 49.6636L77.0667 58.0418C77.4129 58.5511 77.947 58.9018 78.5513 59.0167C79.1557 59.1316 79.7808 59.0013 80.2893 58.6545C80.7977 58.3076 81.1478 57.7727 81.2625 57.1674C81.3772 56.562 81.2471 55.9358 80.9009 55.4265Z" fill="white"/>
<path d="M57.6554 88.2129L48.2744 84.3977C47.7045 84.1658 47.066 84.1703 46.4993 84.41C45.9326 84.6497 45.4842 85.105 45.2526 85.6759C45.0211 86.2467 45.0254 86.8863 45.2646 87.454C45.5038 88.0217 45.9583 88.4709 46.5282 88.7029L55.9091 92.5181C56.4789 92.7494 57.1171 92.7447 57.6835 92.5049C58.2498 92.2651 58.6979 91.8098 58.9293 91.2393C59.1608 90.6687 59.1566 90.0294 58.9177 89.4619C58.6788 88.8944 58.2248 88.4452 57.6554 88.2128V88.2129Z" fill="white"/>
<path d="M117.893 171.902C117.278 171.903 116.689 172.149 116.254 172.584C115.819 173.02 115.574 173.61 115.573 174.226V184.366C115.573 184.983 115.818 185.574 116.253 186.009C116.688 186.445 117.278 186.69 117.893 186.69C118.508 186.69 119.099 186.445 119.534 186.009C119.969 185.574 120.213 184.983 120.213 184.366V174.226C120.212 173.61 119.967 173.02 119.532 172.584C119.098 172.149 118.508 171.903 117.893 171.902Z" fill="white"/>
<path d="M163.996 170.77L158.298 162.392C158.126 162.14 157.907 161.924 157.652 161.757C157.398 161.589 157.112 161.474 156.813 161.417C156.514 161.36 156.206 161.363 155.908 161.425C155.61 161.487 155.327 161.607 155.075 161.779C154.823 161.951 154.608 162.171 154.441 162.426C154.274 162.681 154.159 162.967 154.102 163.266C154.045 163.566 154.048 163.874 154.11 164.173C154.172 164.471 154.292 164.755 154.464 165.007L160.162 173.385C160.389 173.719 160.699 173.988 161.062 174.165C161.424 174.342 161.827 174.421 162.229 174.395C162.9 173.93 163.566 173.453 164.22 172.963C164.368 172.608 164.425 172.221 164.386 171.838C164.347 171.455 164.213 171.088 163.996 170.77Z" fill="white"/>
<path d="M188.836 131.731L179.455 127.916C178.885 127.684 178.247 127.688 177.68 127.928C177.114 128.168 176.665 128.623 176.434 129.194C176.202 129.765 176.206 130.404 176.446 130.972C176.685 131.54 177.139 131.989 177.709 132.221L187.09 136.036C187.66 136.267 188.298 136.263 188.864 136.023C189.431 135.783 189.879 135.328 190.11 134.757C190.342 134.187 190.338 133.547 190.099 132.98C189.86 132.412 189.406 131.963 188.836 131.731V131.731Z" fill="white"/>
<path d="M80.2893 161.779C79.7808 161.433 79.1557 161.302 78.5513 161.417C77.947 161.532 77.413 161.883 77.0667 162.392L71.3681 170.77C71.1513 171.088 71.0173 171.455 70.9782 171.838C70.9392 172.221 70.9964 172.608 71.1446 172.963C71.7984 173.453 72.4648 173.93 73.1355 174.395C73.5379 174.421 73.9402 174.342 74.3027 174.165C74.6652 173.988 74.9753 173.719 75.2023 173.385L80.9009 165.007C81.0724 164.755 81.1925 164.471 81.2546 164.173C81.3166 163.874 81.3194 163.566 81.2626 163.266C81.2058 162.967 81.0906 162.681 80.9236 162.426C80.7566 162.171 80.541 161.951 80.2893 161.779Z" fill="white"/>
<path d="M58.9291 129.192C58.8145 128.909 58.6455 128.652 58.4317 128.435C58.2179 128.218 57.9635 128.045 57.683 127.927C57.4025 127.808 57.1015 127.746 56.7971 127.744C56.4927 127.742 56.1909 127.801 55.909 127.916L46.5281 131.731C45.9587 131.963 45.5046 132.412 45.2657 132.98C45.0268 133.547 45.0227 134.187 45.2541 134.757C45.4855 135.328 45.9336 135.783 46.5 136.023C47.0663 136.263 47.7045 136.267 48.2744 136.036L57.6553 132.221C58.2244 131.987 58.678 131.537 58.9168 130.97C59.1555 130.402 59.16 129.763 58.9291 129.192Z" fill="white"/>
<path d="M120.903 109.064C121.118 110.334 120.82 111.637 120.076 112.688C119.332 113.739 118.202 114.451 116.935 114.669L75.7674 121.683C75.1394 121.79 74.4966 121.772 73.8755 121.63C73.2544 121.488 72.6674 121.225 72.1478 120.856C71.6282 120.487 71.1863 120.019 70.8473 119.479C70.5082 118.938 70.2788 118.337 70.172 117.707C70.0651 117.078 70.0831 116.434 70.2247 115.812C70.3663 115.19 70.6289 114.602 70.9974 114.082C71.3659 113.561 71.8332 113.119 72.3725 112.779C72.9118 112.44 73.5126 112.21 74.1406 112.103L115.308 105.089C116.576 104.874 117.877 105.172 118.926 105.917C119.975 106.663 120.686 107.794 120.903 109.064Z" fill="#3F3D56"/>
<path d="M164.231 154.75C163.639 155.345 162.836 155.682 161.997 155.685C161.159 155.688 160.353 155.358 159.757 154.767L115.441 110.726C114.846 110.134 114.511 109.329 114.508 108.489C114.505 107.65 114.835 106.843 115.425 106.247C116.016 105.65 116.819 105.313 117.657 105.31C118.496 105.306 119.301 105.636 119.897 106.227L164.213 150.268C164.808 150.861 165.144 151.665 165.147 152.505C165.15 153.345 164.821 154.152 164.231 154.75Z" fill="#3F3D56"/>
<path d="M117.682 115.709C120.711 115.709 123.166 113.25 123.166 110.217C123.166 107.183 120.711 104.724 117.682 104.724C114.654 104.724 112.199 107.183 112.199 110.217C112.199 113.25 114.654 115.709 117.682 115.709Z" fill="#CCCCCC"/>
<path d="M79.9124 14.9755C71.4954 28.2305 58.6529 37.0271 42.8149 42.806C42.5019 43.0408 42.1459 43.2115 41.767 43.3085C41.3882 43.4054 40.994 43.4267 40.607 43.3711C40.2199 43.3154 39.8476 43.1839 39.5113 42.9842C39.175 42.7844 38.8812 42.5202 38.6468 42.2067C30.0438 30.7009 31.9863 14.2568 43.3406 5.46501C46.0856 3.34315 49.2241 1.78861 52.5739 0.891648C55.9236 -0.00531798 59.4179 -0.226848 62.8538 0.239925C66.2897 0.706698 69.5989 1.85247 72.5891 3.61073C75.5793 5.36899 78.1911 7.70471 80.2728 10.4823L80.5107 10.8005C80.7451 11.114 80.9156 11.4707 81.0124 11.8501C81.1091 12.2296 81.1304 12.6244 81.0748 13.0121C81.0192 13.3998 80.888 13.7727 80.6886 14.1096C80.4891 14.4465 80.2254 14.7407 79.9124 14.9755Z" fill="#9EDEFE"/>
<path d="M155.092 10.4823C157.173 7.7047 159.785 5.36898 162.775 3.61073C165.766 1.85247 169.075 0.7067 172.511 0.239927C175.947 -0.226846 179.441 -0.00532261 182.791 0.891643C186.14 1.78861 189.279 3.34315 192.024 5.46501C203.378 14.2568 205.321 30.7009 196.718 42.2067C196.483 42.5202 196.19 42.7844 195.853 42.9842C195.517 43.1839 195.145 43.3154 194.758 43.371C194.371 43.4267 193.976 43.4054 193.598 43.3085C193.219 43.2115 192.863 43.0408 192.55 42.806C177.847 37.1675 165.79 27.4102 155.452 14.9755C154.82 14.5013 154.402 13.7951 154.29 13.0121C154.178 12.2292 154.38 11.4336 154.854 10.8005L155.092 10.4823Z" fill="#9EDEFE"/>
<path d="M151.403 188.916C150.866 189.218 150.472 189.72 150.305 190.313C150.137 190.906 150.212 191.54 150.511 192.079L163.9 216.044C164.2 216.582 164.702 216.978 165.294 217.145C165.886 217.313 166.52 217.238 167.057 216.937C167.594 216.636 167.989 216.134 168.157 215.541C168.324 214.948 168.249 214.312 167.949 213.775L154.56 189.809C154.259 189.272 153.757 188.876 153.165 188.709C152.574 188.542 151.94 188.616 151.403 188.916Z" fill="#9EDEFE"/>
<path d="M80.8046 189.809L67.4158 213.774C67.1155 214.312 67.0407 214.948 67.208 215.541C67.3752 216.134 67.7708 216.636 68.3076 216.937C68.8445 217.238 69.4787 217.313 70.0707 217.145C70.6628 216.978 71.1642 216.582 71.4648 216.044L84.8536 192.079C85.0025 191.812 85.0975 191.519 85.1332 191.216C85.169 190.913 85.1448 190.606 85.0621 190.312C84.9793 190.018 84.8396 189.744 84.6509 189.504C84.4622 189.265 84.2282 189.064 83.9623 188.915C83.6964 188.766 83.4038 188.671 83.1012 188.636C82.7986 188.6 82.4919 188.624 82.1987 188.707C81.9054 188.79 81.6314 188.93 81.3922 189.119C81.153 189.308 80.9533 189.543 80.8046 189.809H80.8046Z" fill="#9EDEFE"/>
<path d="M166.612 222.18C170.572 222.18 173.782 218.965 173.782 214.998C173.782 211.031 170.572 207.815 166.612 207.815C162.651 207.815 159.441 211.031 159.441 214.998C159.441 218.965 162.651 222.18 166.612 222.18Z" fill="#9EDEFE"/>
<path d="M171.673 38.3912C175.633 38.3912 178.844 35.1754 178.844 31.2086C178.844 27.2418 175.633 24.0261 171.673 24.0261C167.713 24.0261 164.502 27.2418 164.502 31.2086C164.502 35.1754 167.713 38.3912 171.673 38.3912Z" fill="#9EDEFE"/>
<path d="M117.261 21.491C121.221 21.491 124.431 18.2753 124.431 14.3085C124.431 10.3417 121.221 7.12592 117.261 7.12592C113.3 7.12592 110.09 10.3417 110.09 14.3085C110.09 18.2753 113.3 21.491 117.261 21.491Z" fill="#9EDEFE"/>
<path d="M65.3787 37.5462C69.3389 37.5462 72.5493 34.3304 72.5493 30.3636C72.5493 26.3968 69.3389 23.181 65.3787 23.181C61.4184 23.181 58.208 26.3968 58.208 30.3636C58.208 34.3304 61.4184 37.5462 65.3787 37.5462Z" fill="#9EDEFE"/>
<path d="M70.0183 222.18C73.9786 222.18 77.189 218.965 77.189 214.998C77.189 211.031 73.9786 207.815 70.0183 207.815C66.0581 207.815 62.8477 211.031 62.8477 214.998C62.8477 218.965 66.0581 222.18 70.0183 222.18Z" fill="#9EDEFE"/>
<path d="M160.987 150.71C161.269 151.153 161.646 151.529 162.089 151.811C162.532 152.093 163.032 152.274 163.553 152.342C164.074 152.409 164.603 152.362 165.103 152.202C165.604 152.043 166.063 151.775 166.449 151.418L177.701 157.457L177.098 150.84L166.505 146.12C165.864 145.51 165.022 145.157 164.138 145.128C163.255 145.098 162.391 145.394 161.711 145.96C161.03 146.526 160.581 147.322 160.448 148.197C160.314 149.073 160.506 149.967 160.987 150.71H160.987Z" fill="#FFB7B7"/>
<path d="M169.185 153.019L173.594 146.923L194.836 156.981L221.27 152.013C222.576 151.768 223.921 151.813 225.208 152.147C226.495 152.48 227.693 153.093 228.716 153.943C229.74 154.792 230.565 155.857 231.132 157.061C231.698 158.266 231.994 159.581 231.996 160.912C231.998 163.317 231.047 165.625 229.352 167.329C227.658 169.032 225.357 169.993 222.956 170L192.664 170.057L169.185 153.019Z" fill="#3F3D56"/>
<path d="M162.394 258.318L157.933 256.181L164.061 237.503L170.645 240.658L162.394 258.318Z" fill="#FFB7B7"/>
<path d="M192.302 255.307C191.978 255.511 191.654 255.711 191.326 255.911C190.674 256.312 190.015 256.706 189.356 257.093C189.025 257.287 188.691 257.48 188.36 257.671V257.68L188.341 257.684L188.334 257.687L187.829 257.812L187.105 255.895L186.771 255.012L186.299 253.761L185.434 251.474L180.879 239.428L187.961 237.678L188.226 238.765H188.229L188.36 239.303L190.834 249.353L191.339 251.408L191.355 251.47L191.66 252.698L191.922 253.761L192.214 254.95L192.302 255.307Z" fill="#FFB7B7"/>
<path d="M234.545 213.004C234.096 213.726 233.638 214.445 233.176 215.157C232.317 216.483 231.436 217.79 230.531 219.076C230.531 219.08 230.528 219.08 230.525 219.083C229.997 219.573 229.414 219.999 228.788 220.353C228.762 220.373 228.732 220.386 228.706 220.402C228.245 220.658 227.754 220.855 227.244 220.99C227.061 221.036 226.874 221.082 226.691 221.128C226.029 221.285 225.373 221.42 224.721 221.538C223.561 221.745 222.414 221.893 221.274 221.985C221.182 221.994 221.09 222.001 220.999 222.008C216.309 222.352 211.745 221.797 206.98 220.888C204.627 220.442 202.225 219.907 199.738 219.352C198.926 219.168 198.11 218.988 197.284 218.807C197.222 218.794 197.156 218.778 197.091 218.765C195.911 218.505 194.712 218.249 193.483 217.997C191.936 217.678 190.34 217.37 188.682 217.077L188.8 219.418C188.898 221.218 189.272 222.993 189.908 224.679C190.615 226.754 191.176 228.395 189.993 231.812L189.423 233.466C189.718 234.288 189.82 235.166 189.719 236.034C189.618 236.901 189.318 237.733 188.843 238.465L188.728 238.639L193.483 250.688L193.791 251.47H191.356L188.361 251.473H183.285L175.961 236.755L175.611 236.053V236.016L176.368 207.733C176.377 207.483 176.397 207.231 176.43 206.981C176.563 205.847 176.921 204.751 177.482 203.757C178.043 202.763 178.796 201.891 179.697 201.191C180.56 200.515 181.549 200.018 182.606 199.728C183.663 199.439 184.767 199.362 185.854 199.504L188.361 199.829L193.483 200.492L197.091 200.961L197.163 200.971L207.803 202.35L208.566 199.231L208.707 199.179L213.187 197.535L228.68 191.846L228.719 191.833L229.738 191.459L229.859 191.656C229.895 191.715 229.931 191.774 229.964 191.833C230.971 193.642 231.792 195.549 232.412 197.525C233.455 200.752 234.314 204.037 234.984 207.362C235.014 207.506 235.04 207.638 235.063 207.756L235.073 207.792C235.083 207.848 235.089 207.884 235.093 207.894C235.45 209.384 235.201 211.202 234.545 213.004Z" fill="#2F2E41"/>
<path d="M235.199 202.581C235.15 202.371 235.088 202.157 235.022 201.951C234.502 200.384 233.896 198.848 233.207 197.349C232.433 195.642 231.506 193.814 230.402 191.834C229.868 190.876 229.293 189.879 228.678 188.844C228.37 188.326 228.05 187.797 227.718 187.259C227.705 187.234 227.691 187.21 227.675 187.187L227.58 187.029L212.251 189.084L206.543 189.849L206.202 192.698L206.12 193.403C206.117 193.403 206.117 193.403 206.12 193.407L205.891 195.33V195.333L205.586 197.874L205.56 197.871L197.089 196.771L188.359 195.639L183.67 195.031C182.584 194.89 181.48 194.966 180.422 195.255C179.365 195.545 178.376 196.042 177.513 196.719C176.612 197.418 175.859 198.29 175.298 199.285C174.737 200.279 174.38 201.375 174.246 202.509C174.216 202.738 174.197 202.975 174.187 203.208L169.763 213.708C167.116 219.987 165.43 226.631 164.763 233.415L161.519 243.803L161.981 243.846L168.855 244.486L170.671 244.657L174.669 238.811C175.124 238.145 175.557 237.459 175.96 236.756C176.623 235.609 177.213 234.421 177.726 233.198L186.374 212.585C187.042 212.7 187.704 212.81 188.359 212.914C191.391 213.406 194.3 213.807 197.089 214.118C206.156 215.132 214.008 215.211 220.997 214.351C222.96 214.112 224.857 213.796 226.689 213.406C227.361 213.265 228.024 213.113 228.678 212.95C228.832 212.914 228.983 212.877 229.134 212.838C230.488 212.488 231.733 211.804 232.755 210.847C233.777 209.891 234.543 208.693 234.983 207.363C235.508 205.822 235.583 204.163 235.199 202.581Z" fill="#2F2E41"/>
<path d="M163.819 255.269L158.992 252.951L158.235 252.587L157.026 255.561L148.585 257.422C148.167 257.513 147.79 257.736 147.508 258.058C147.226 258.38 147.055 258.783 147.018 259.21C146.982 259.636 147.082 260.063 147.305 260.428C147.528 260.793 147.861 261.077 148.257 261.239L156.505 264.61L159.123 262.25L158.481 265.417L161.587 266.688L164.992 255.833L163.819 255.269Z" fill="#2F2E41"/>
<path d="M193.482 250.688L193.791 251.47H193.482V250.688Z" fill="#2F2E41"/>
<path d="M191.802 251.637L186.744 253.392L185.95 253.666L187.18 256.632L182.489 263.903C182.257 264.263 182.145 264.687 182.171 265.114C182.197 265.541 182.358 265.949 182.632 266.278C182.905 266.607 183.277 266.839 183.691 266.942C184.106 267.044 184.543 267.011 184.938 266.847L193.166 263.429L193.369 259.907L195.138 262.61L198.237 261.324L193.032 251.211L191.802 251.637Z" fill="#2F2E41"/>
<path d="M233.938 207.336C233.638 207.336 233.342 207.262 233.076 207.122L206.387 193.153L206.079 191.888L205.497 187.887L205.505 187.849L208.044 176.127C207.997 176.027 207.9 175.862 207.79 175.675C206.657 173.752 203.208 167.899 209.79 159.84L221.345 146.345L231.263 145.918L231.376 146.06C234.028 149.394 235.816 153.333 236.582 157.526C237.349 161.72 237.068 166.037 235.767 170.096L234.734 188.778L235.842 192.551C236.49 194.768 236.383 197.138 235.538 199.287L235.792 205.396C235.801 205.647 235.761 205.896 235.672 206.131C235.584 206.365 235.449 206.579 235.276 206.76C235.103 206.941 234.895 207.086 234.665 207.185C234.436 207.284 234.188 207.335 233.938 207.336L233.938 207.336Z" fill="#3F3D56"/>
<path d="M210.787 222.743C211.239 222.476 211.627 222.112 211.924 221.678C212.22 221.244 212.418 220.75 212.504 220.231C212.589 219.712 212.56 219.181 212.419 218.674C212.277 218.168 212.026 217.698 211.684 217.299L218.1 206.246L211.477 206.62L206.399 217.059C205.768 217.68 205.387 218.51 205.327 219.394C205.266 220.278 205.532 221.153 206.073 221.853C206.613 222.554 207.392 223.031 208.261 223.195C209.13 223.359 210.028 223.199 210.787 222.743L210.787 222.743Z" fill="#FFB7B7"/>
<path d="M213.376 214.617L207.447 209.991L218.221 189.076L214.184 162.442C213.984 161.126 214.076 159.781 214.454 158.505C214.832 157.228 215.485 156.05 216.368 155.055C217.251 154.059 218.342 153.271 219.564 152.745C220.785 152.22 222.107 151.97 223.436 152.014C225.836 152.096 228.105 153.128 229.746 154.883C231.387 156.639 232.266 158.975 232.189 161.379L231.192 191.705L213.376 214.617Z" fill="#3F3D56"/>
<path d="M214.984 140.738V130.908C214.981 127.414 216.365 124.063 218.829 121.591C221.294 119.119 224.638 117.729 228.126 117.727C231.614 117.724 234.959 119.11 237.427 121.579C239.895 124.047 241.283 127.397 241.285 130.891V130.908C243.603 135.745 242.153 138.045 241.285 140.738C241.284 141.207 241.098 141.656 240.767 141.988C240.436 142.319 239.987 142.506 239.519 142.506H216.75C216.282 142.506 215.833 142.319 215.502 141.988C215.171 141.656 214.984 141.207 214.984 140.738Z" fill="#2F2E41"/>
<path d="M223.822 141.868C229.259 141.868 233.666 137.453 233.666 132.008C233.666 126.562 229.259 122.148 223.822 122.148C218.386 122.148 213.979 126.562 213.979 132.008C213.979 137.453 218.386 141.868 223.822 141.868Z" fill="#FFB7B7"/>
<path d="M234.124 134.593C234.035 134.578 233.946 134.56 233.857 134.545C232.321 134.273 230.786 134.005 229.255 133.727L229.114 130.251L227.259 133.365C223.029 134.771 219.07 133.976 215.347 132.222C214.118 131.638 212.927 130.98 211.778 130.251C212.091 128.329 212.829 126.501 213.938 124.901C215.046 123.301 216.499 121.97 218.187 121.004C218.328 120.924 218.464 120.854 218.605 120.783C218.606 120.783 218.607 120.783 218.607 120.783C218.608 120.783 218.608 120.782 218.609 120.782C218.609 120.781 218.609 120.781 218.61 120.78C218.61 120.78 218.61 120.779 218.61 120.779C218.849 120.666 219.094 120.558 219.338 120.459C221.249 119.71 223.334 119.521 225.349 119.912C227.363 120.304 229.226 121.26 230.72 122.669C233.725 125.543 235.077 130.289 234.124 134.593Z" fill="#2F2E41"/>
</g>
<defs>
<clipPath id="clip0_407_455">
<rect width="285" height="267" fill="white"/>
</clipPath>
</defs>
</svg>
