<svg width="99" height="99" viewBox="0 0 99 99" fill="none" xmlns="http://www.w3.org/2000/svg">
<path d="M25.239 55.0957L43.3331 73.1898L85.5491 30.9734L67.4547 12.879L25.239 55.0957ZM72.3605 26.0678C73.4565 27.1638 73.4565 28.9409 72.3605 30.0369L42.7095 59.6877C42.1613 60.2354 41.4432 60.5096 40.7247 60.5096C40.0067 60.5096 39.2884 60.2357 38.7404 59.6877C37.6444 58.5914 37.6444 56.8143 38.7404 55.7183L68.3912 26.0678C69.4872 24.9718 71.2645 24.9718 72.3605 26.0678Z" fill="#23709D"/>
<path d="M38.7404 59.6877C39.2887 60.2357 40.0067 60.5096 40.7247 60.5096C41.4432 60.5096 42.1613 60.2355 42.7095 59.6877L72.3605 30.0369C73.4565 28.9407 73.4565 27.1636 72.3605 26.0679C71.2648 24.9718 69.4872 24.9718 68.3912 26.0679L38.7404 55.7184C37.6444 56.8146 37.6444 58.5915 38.7404 59.6877Z" fill="#7BACC9"/>
<path d="M97.73 17.8869C96.6459 14.6424 94.2455 11.0997 90.7868 7.64185C87.3011 4.15574 81.9932 0 76.5025 0C74.0394 0 71.77 0.86609 69.922 2.50752C69.8257 2.58143 69.7337 2.66212 69.647 2.7489L58.9992 13.3965H3.37081C1.82083 13.3965 0.564148 14.6531 0.564148 16.2031V96.1933C0.564148 97.7433 1.82083 99 3.37081 99H83.361C84.911 99 86.1677 97.7433 86.1677 96.1933V38.8543C86.1677 38.6794 86.1495 38.5091 86.1188 38.343L95.44 29.0216C95.4587 29.0032 95.4774 28.9849 95.4957 28.9662C95.4961 28.966 95.4966 28.9655 95.497 28.965L95.6797 28.7821C95.766 28.6958 95.8451 28.6058 95.9176 28.5115C98.47 25.6485 99.0973 21.9806 97.73 17.8869ZM38.199 75.9945L18.3963 81.7098L22.8928 60.6883L38.199 75.9945ZM43.3331 73.1899L25.239 55.0958L67.4547 12.8793L85.5491 30.9737L43.3331 73.1899ZM80.5544 93.3867H6.17748V19.0098H53.3863L19.2205 53.1758C18.8376 53.5587 18.5736 54.044 18.4604 54.5735L11.9269 85.1187C11.7204 86.0835 12.0362 87.0859 12.7579 87.7588C13.2847 88.2495 13.9709 88.5124 14.6721 88.5124C14.822 88.5124 68.822 88.5124 68.822 88.5124C70.3725 88.5124 71.6287 87.2557 71.6287 85.7058C71.6287 84.1558 70.3725 82.8991 68.822 82.8991H34.518L43.7255 80.2416C44.1814 80.11 44.5963 79.8651 44.9319 79.5297L80.5544 43.9072V93.3867ZM91.6381 24.8743C91.6075 24.9071 91.5778 24.9405 91.549 24.9744L91.5289 24.9943C91.5193 25.0039 91.5092 25.0135 91.4997 25.0231L89.5184 27.0041L71.424 8.91L73.4509 6.88311C73.486 6.85341 73.5209 6.82277 73.5545 6.79073C74.4143 5.98755 75.3513 5.61333 76.5025 5.61333C79.2465 5.61333 83.0067 7.79926 86.8177 11.6112C88.9054 13.6984 95.4227 20.8238 91.6381 24.8743Z" fill="#7BACC9"/>
</svg>
