<svg width="102" height="102" viewBox="0 0 102 102" fill="none" xmlns="http://www.w3.org/2000/svg">
<path d="M100.39 10.2V30.6V53.1474V73.5474C100.39 74.7333 99.4281 75.6947 98.2422 75.6947H77.8422H55.2948H32.7474H3.32837V53.1474V30.6V8.05261H32.7474H55.2948H77.8422H98.2422C99.4281 8.05261 100.39 9.01404 100.39 10.2Z" fill="#E2E2E2"/>
<path d="M77.8421 30.6H55.2948V8.05261H77.8421V30.6ZM8.05261 8.05261V30.6H32.7474V8.05261H8.05261ZM77.8421 30.6V53.1474H100.39V30.6H77.8421ZM32.7474 30.6V53.1474H55.2948V30.6H32.7474ZM55.2948 75.6947H77.8421V53.1474H55.2948V75.6947ZM8.05261 75.6947H32.7474V53.1474H8.05261V75.6947Z" fill="#23709D"/>
<path d="M5.90523 100.389C3.53333 100.389 1.61047 98.4668 1.61047 96.0947V5.90523C1.61047 3.53333 3.53313 1.61047 5.90523 1.61047C8.27713 1.61047 10.2 3.53313 10.2 5.90523V96.0947C10.2 98.4666 8.27733 100.389 5.90523 100.389Z" fill="#2785BD"/>
<path d="M8.05261 99.8104C7.42049 100.177 6.68836 100.389 5.90523 100.389C3.53333 100.389 1.61047 98.4668 1.61047 96.0947V5.90523C1.61047 3.53333 3.53313 1.61047 5.90523 1.61047C6.68836 1.61047 7.42049 1.82344 8.05261 2.1896C6.77024 2.93269 5.90523 4.31626 5.90523 5.90503V96.0946C5.90523 97.6833 6.77024 99.0673 8.05261 99.8104Z" fill="#005483"/>
<path d="M98.2421 6.44214H11.8105V5.90524C11.8105 2.64921 9.16127 0 5.90524 0C2.64921 0 0 2.64921 0 5.90524V96.0948C0 99.3508 2.64921 102 5.90524 102C9.16127 102 11.8105 99.3508 11.8105 96.0948V77.3052H98.2421C100.314 77.3052 102 75.6192 102 73.5474V10.2C102 8.12793 100.314 6.44214 98.2421 6.44214ZM8.58952 96.0948C8.58952 97.575 7.38544 98.779 5.90524 98.779C4.42505 98.779 3.22097 97.575 3.22097 96.0948V5.90524C3.22097 4.42505 4.42505 3.22097 5.90524 3.22097C7.38544 3.22097 8.58952 4.42505 8.58952 5.90524V96.0948ZM98.779 73.5474C98.779 73.8434 98.5384 74.0843 98.2421 74.0843H11.8105V9.66311H98.2421C98.5382 9.66311 98.779 9.90376 98.779 10.2V73.5474Z" fill="black"/>
</svg>
