<svg width="60" height="107" viewBox="0 0 60 107" fill="none" xmlns="http://www.w3.org/2000/svg">
<path d="M30.8688 106.911C36.5851 106.911 41.219 102.725 41.219 97.5616C41.219 92.3979 36.5851 88.2119 30.8688 88.2119C25.1525 88.2119 20.5186 92.3979 20.5186 97.5616C20.5186 102.725 25.1525 106.911 30.8688 106.911Z" fill="#7BACC9"/>
<path d="M29.76 0.000704099C13.584 0.10392 0.339221 11.9784 0.109437 26.5895C0.107308 26.7244 0.106328 27.673 0.106456 28.9136C0.106563 30.7326 0.906511 32.4771 2.33035 33.7634C3.75419 35.0496 5.68532 35.7724 7.69899 35.7726C8.6972 35.7724 9.6856 35.5945 10.6077 35.2491C11.5298 34.9037 12.3675 34.3976 13.0729 33.7596C13.7784 33.1217 14.3378 32.3644 14.7191 31.5311C15.1005 30.6978 15.2963 29.8048 15.2954 28.9031C15.2947 28.0591 15.2942 27.475 15.2942 27.4392C15.2937 25.181 15.9439 22.9617 17.1809 20.9994C18.4179 19.0371 20.1991 17.3995 22.3492 16.2477C24.4994 15.0959 26.9444 14.4695 29.4438 14.4302C31.9433 14.3908 34.411 14.9399 36.6042 16.0234C38.7974 17.1069 40.6407 18.6875 41.9525 20.6097C43.2645 22.5319 43.9998 24.7294 44.0864 26.9862C44.1729 29.243 43.6076 31.4813 42.446 33.4808C41.2845 35.4804 39.5667 37.1724 37.4617 38.3903L37.4644 38.3932C37.4644 38.3932 26.6578 44.6777 23.3631 53.2989L23.3659 53.2995C22.7866 55.0656 22.493 56.8981 22.4943 58.7402C22.4943 59.4974 22.5437 66.1226 22.6389 71.4999C22.6723 73.3553 23.5117 75.1245 24.9761 76.4258C26.4406 77.7271 28.4127 78.4562 30.4669 78.4557C31.4991 78.4557 32.5211 78.2713 33.4741 77.9131C34.4271 77.5549 35.2923 77.0301 36.0199 76.3687C36.7475 75.7074 37.3231 74.9226 37.7137 74.0595C38.1043 73.1964 38.3021 72.2721 38.2957 71.3397C38.2626 66.4151 38.2447 60.6808 38.2447 60.2646C38.2447 54.9709 43.898 49.6965 48.5417 46.2569C53.8892 42.2961 57.7372 36.8985 59.2828 30.8098C59.6248 29.5563 59.8134 28.2726 59.8452 26.9819C59.8452 23.4222 59.0654 19.8976 57.5508 16.6113C56.0362 13.3251 53.8167 10.342 51.0202 7.83402C48.2237 5.32603 44.9054 3.3427 41.2566 1.9983C37.6078 0.653892 33.7005 -0.0250111 29.76 0.000704099Z" fill="#7BACC9"/>
<path d="M9.84265 32.5284C7.82897 32.5282 5.89784 31.8054 4.47399 30.5192C3.05014 29.2329 2.25018 27.4884 2.25006 25.6694C2.24995 24.4288 2.25094 23.4802 2.25302 23.3453C2.317 19.096 3.5017 14.9217 5.70885 11.1687C2.08257 15.6531 0.0886625 21.0446 0.00297467 26.5974C0.000886624 26.7323 -0.000101956 27.6808 8.29663e-06 28.9214C0.00012762 30.7404 0.800086 32.4849 2.22394 33.7712C3.64779 35.0575 5.57892 35.7802 7.59261 35.7804C9.2473 35.7798 10.8566 35.2914 12.1759 34.3893C13.4953 33.4872 14.4526 32.2207 14.9025 30.7823C13.5123 31.9085 11.71 32.5304 9.84265 32.5284Z" fill="#4B82A3"/>
<path d="M30.2747 14.4532C32.6026 14.5536 34.8688 15.1629 36.8787 16.2288C38.8885 17.2946 40.5819 18.7852 41.8136 20.5725C43.0452 22.3598 43.7783 24.3904 43.9498 26.49C44.1213 28.5896 43.7262 30.6954 42.7983 32.6266C44.1404 31.2028 45.1269 29.5342 45.6905 27.7348C46.254 25.9353 46.3814 24.0472 46.064 22.1992C45.7465 20.3512 44.9917 18.5868 43.8509 17.0262C42.7102 15.4657 41.2103 14.1456 39.4536 13.1562C37.6969 12.1667 35.7247 11.531 33.6714 11.2924C31.6181 11.0539 29.532 11.2181 27.5553 11.7738C25.5786 12.3296 23.7578 13.2638 22.217 14.5129C20.6762 15.7619 19.4517 17.2964 18.627 19.0117C20.0524 17.4969 21.844 16.2981 23.8635 15.5078C25.883 14.7174 28.0764 14.3566 30.2747 14.4532Z" fill="#4B82A3"/>
<path d="M32.6107 75.2115C30.5565 75.2119 28.5845 74.4828 27.12 73.1815C25.6556 71.8802 24.8162 70.111 24.7828 68.2557C24.6876 62.8783 24.6382 56.2531 24.6382 55.4959C24.6369 53.6539 24.9305 51.8214 25.5098 50.0552L25.5071 50.0546C25.8492 49.1682 26.2623 48.3054 26.7433 47.4731C25.2669 49.2504 24.0919 51.2165 23.257 53.3067L23.2598 53.3073C22.6804 55.0734 22.3869 56.9059 22.3882 58.748C22.3882 59.5052 22.4375 66.1304 22.5328 71.5077C22.5661 73.3631 23.4055 75.1323 24.87 76.4336C26.3344 77.7349 28.3065 78.4639 30.3607 78.4635C32.0544 78.4633 33.7024 77.9669 35.0575 77.049C36.4125 76.1311 37.4016 74.841 37.8763 73.3723C36.4369 74.5579 34.5586 75.2139 32.6107 75.2115Z" fill="#4B82A3"/>
<path d="M28.5883 104.631C27.1179 104.052 25.8166 103.173 24.7869 102.062C23.7571 100.952 23.0273 99.6401 22.6548 98.231C22.2823 96.8219 22.2775 95.3539 22.6406 93.9429C23.0038 92.5319 23.725 91.2164 24.7474 90.1002C23.562 90.882 22.5743 91.8826 21.8497 93.0356C21.1252 94.1886 20.6804 95.4676 20.5449 96.7877C20.4094 98.1079 20.5863 99.4389 21.0638 100.693C21.5413 101.946 22.3085 103.094 23.3146 104.059C24.3206 105.025 25.5424 105.786 26.8989 106.292C28.2554 106.798 29.7156 107.038 31.1825 106.995C32.6494 106.953 34.0895 106.629 35.4073 106.045C36.725 105.461 37.8903 104.631 38.8257 103.609C37.3667 104.572 35.6539 105.174 33.8577 105.353C32.0615 105.532 30.2447 105.283 28.5883 104.631Z" fill="#4B82A3"/>
</svg>
