<svg width="119" height="119" viewBox="0 0 119 119" fill="none" xmlns="http://www.w3.org/2000/svg">
<path d="M77.0815 100.242V55.7559C77.0815 50.552 72.8631 46.3337 67.6594 46.3337H51.3404C46.1364 46.3337 41.9182 50.5522 41.9182 55.7559V100.242H77.0815Z" fill="#7BACC9"/>
<path d="M77.0816 103.278H41.9185C40.2418 103.278 38.8828 101.918 38.8828 100.242V55.7559C38.8828 48.8864 44.4712 43.2979 51.3409 43.2979H67.6599C74.5291 43.2979 80.1175 48.8862 80.1175 55.7559V100.242C80.1175 101.918 78.758 103.278 77.0816 103.278ZM44.9541 97.2062H74.0459V55.7559C74.0459 52.2342 71.1809 49.3694 67.6597 49.3694H51.3406C47.8192 49.3694 44.9541 52.2345 44.9541 55.7559V97.2062Z" fill="#23709D"/>
<path d="M12.6624 103.113C10.9857 103.113 9.62671 101.753 9.62671 100.077V73.97C9.62671 67.1005 15.2151 61.512 22.0848 61.512H41.7542C43.4308 61.512 44.7898 62.8714 44.7898 64.5476V99.938C44.7898 101.614 43.4306 102.974 41.7542 102.974C40.0775 102.974 38.7185 101.614 38.7185 99.938V67.5835H22.0845C18.5631 67.5835 15.698 70.4486 15.698 73.97V100.077C15.698 101.753 14.3388 103.113 12.6624 103.113Z" fill="#23709D"/>
<path d="M77.2461 102.708C75.5699 102.708 74.2104 101.349 74.2104 99.6726V73.0487C74.2104 71.3725 75.5699 70.0131 77.2461 70.0131H96.9155C103.785 70.0131 109.373 75.6014 109.373 82.4711V86.2782C109.373 87.9544 108.014 89.3138 106.337 89.3138C104.661 89.3138 103.302 87.9544 103.302 86.2782V82.4711C103.302 78.9495 100.437 76.0846 96.9155 76.0846H80.282V99.6726C80.282 101.349 78.9226 102.708 77.2461 102.708Z" fill="#23709D"/>
<path d="M59.5 72.4913C57.8233 72.4913 56.4644 71.1319 56.4644 69.4557V59.6403C56.4644 57.9641 57.8236 56.6046 59.5 56.6046C61.1762 56.6046 62.5357 57.9641 62.5357 59.6403V69.4557C62.5357 71.1319 61.1762 72.4913 59.5 72.4913Z" fill="#23709D"/>
<path d="M50.5787 38.02C49.9493 38.02 49.3229 37.8243 48.794 37.4401C47.8592 36.7609 47.3908 35.6102 47.5863 34.4711L49.0203 26.1095L42.9453 20.1881C42.1179 19.3816 41.8199 18.1751 42.1769 17.0762C42.5339 15.9773 43.484 15.1762 44.6276 15.0097L53.0229 13.79L56.7774 6.1819C57.289 5.14576 58.3442 4.48987 59.4995 4.48987C60.6551 4.48987 61.7103 5.14599 62.2219 6.1819L65.9762 13.79L74.3715 15.0097C75.5153 15.1762 76.4649 15.9773 76.8222 17.0762C77.1792 18.1751 76.8814 19.3816 76.0542 20.1881L69.9792 26.1095L71.3793 34.2738C71.4342 34.5018 71.4628 34.7398 71.4628 34.9845C71.4628 36.6605 70.1049 38.019 68.4294 38.0202C67.9439 38.0369 67.4553 37.9063 67.0084 37.6718L59.5 33.7234L51.9909 37.6713C51.5468 37.9047 51.0619 38.02 50.5787 38.02ZM59.5 27.2581C59.9853 27.2581 60.4706 27.3744 60.9124 27.6065L64.3899 29.4345L63.7257 25.5624C63.5569 24.5776 63.8835 23.5729 64.5986 22.8751L67.4119 20.1333L63.5244 19.5687C62.5354 19.4248 61.6808 18.8038 61.2385 17.9078L59.5 14.3855L57.7613 17.9085C57.319 18.8043 56.4643 19.4255 55.4756 19.5694L51.5881 20.134L54.4014 22.8758C55.117 23.5733 55.4435 24.5779 55.2743 25.5631L54.6101 29.4352L58.0876 27.6072C58.5294 27.3744 59.0145 27.2581 59.5 27.2581Z" fill="#23709D"/>
<path d="M63.3326 60.9296H55.6674C53.9907 60.9296 52.6317 59.5702 52.6317 57.8939C52.6317 56.2177 53.9909 54.8583 55.6674 54.8583H63.3326C65.0089 54.8583 66.3683 56.2177 66.3683 57.8939C66.3683 59.5702 65.0089 60.9296 63.3326 60.9296Z" fill="#23709D"/>
<path d="M63.3326 73.8318H55.6674C53.9907 73.8318 52.6317 72.4724 52.6317 70.7962C52.6317 69.1199 53.9909 67.7605 55.6674 67.7605H63.3326C65.0089 67.7605 66.3683 69.1199 66.3683 70.7962C66.3683 72.4724 65.0089 73.8318 63.3326 73.8318Z" fill="#23709D"/>
<path d="M110.5 114.51H8.4999C3.81311 114.51 0 110.697 0 106.01C0 101.323 3.81311 97.51 8.4999 97.51H110.5C115.187 97.51 119 101.323 119 106.01C119 110.697 115.187 114.51 110.5 114.51ZM8.4999 103.581C7.16092 103.581 6.07132 104.671 6.07132 106.01C6.07132 107.349 7.16092 108.438 8.4999 108.438H110.5C111.839 108.438 112.928 107.349 112.928 106.01C112.928 104.671 111.839 103.581 110.5 103.581H8.4999Z" fill="#23709D"/>
</svg>
